<svg width="329" height="400" viewBox="0 0 329 400" fill="none" xmlns="http://www.w3.org/2000/svg">
<path fill-rule="evenodd" clip-rule="evenodd" d="M136.942 394.262C117.857 388.025 104.737 375.549 93.6472 365.004C91.1612 362.64 88.7772 360.373 86.4509 358.295C77.5292 350.326 67.3447 348.791 56.919 347.221C42.9008 345.109 28.4466 342.931 16.0403 324.957C0.271213 302.111 7.29401 278.946 14.3476 255.679C21.048 233.577 27.7761 211.384 15.023 189.285C-16.5284 134.613 8.56076 76.364 27.1633 53.0961C48.0621 26.9561 70.6687 24.2267 102.83 20.3438C106.048 19.9553 109.361 19.5553 112.778 19.1191C122.287 17.9052 128.53 14.1644 134.963 10.3098C144.714 4.46646 154.902 -1.63837 177.568 0.401536C188.702 1.40357 197.423 4.49253 202.582 7.85644C212.22 12.9847 218.236 20.5474 224.05 27.8566C227.791 32.5609 231.45 37.1601 235.937 40.9377C245.088 48.6421 255.313 49.8774 265.78 51.142C279.854 52.8422 294.366 54.5954 307.294 72.1982C323.725 94.5724 317.384 117.934 311.015 141.397C304.965 163.686 298.89 186.067 312.285 207.783C345.424 261.507 322.052 320.466 304.139 344.269C284.015 371.01 261.498 374.4 229.464 379.223C226.259 379.706 222.959 380.203 219.556 380.739C210.016 382.242 204.692 385.867 199.317 389.527C191.268 395.007 183.105 400.565 160.501 399.196C150.587 398.596 142.829 396.596 136.942 394.262Z" fill="white"/>
</svg>
