<svg width="1278" height="800" viewBox="0 0 1278 800" fill="none" xmlns="http://www.w3.org/2000/svg">
<g opacity="0.4">
<path opacity="0.4" d="M49.5728 426.409C49.5769 424.039 51.6122 422.011 53.9825 422.015C56.3528 422.019 58.381 424.054 58.3769 426.424C58.3728 428.795 56.3376 430.823 53.9673 430.819C51.5969 430.815 49.5684 428.949 49.5728 426.409Z" fill="#F4F4F4"/>
<path opacity="0.4" d="M375.155 427.311C375.158 425.787 376.345 424.604 377.869 424.607C379.392 424.609 380.576 425.797 380.573 427.32C380.57 428.844 379.383 430.027 377.859 430.025C376.335 430.191 375.152 428.835 375.155 427.311Z" fill="#F4F4F4"/>
<path opacity="0.4" d="M420.697 428.744C420.704 424.85 423.926 421.639 427.82 421.646C431.714 421.653 434.926 424.875 434.919 428.769C434.912 432.663 431.69 435.875 427.796 435.868C423.732 435.861 420.69 432.639 420.697 428.744Z" fill="#F4F4F4"/>
<path opacity="0.4" d="M476.543 443.74C476.548 441.031 478.753 438.834 481.462 438.839C484.171 438.843 486.368 441.048 486.363 443.757C486.359 446.466 484.154 448.663 481.445 448.659C478.736 448.654 476.539 446.449 476.543 443.74Z" fill="#F4F4F4"/>
<path opacity="0.4" d="M526.716 411.15C526.72 408.611 528.755 406.583 531.295 406.587C533.835 406.591 535.863 408.627 535.858 411.166C535.854 413.706 533.819 415.734 531.279 415.73C528.739 415.725 526.711 413.69 526.716 411.15Z" fill="#F4F4F4"/>
<path opacity="0.4" d="M570.883 424.094C570.89 420.369 573.942 417.327 577.667 417.334C581.392 417.34 584.434 420.393 584.428 424.118C584.421 427.843 581.369 430.885 577.644 430.878C573.919 430.872 570.877 427.819 570.883 424.094Z" fill="#F4F4F4"/>
<path opacity="0.4" d="M937.969 412.031C937.973 409.491 940.009 407.463 942.548 407.467C945.088 407.472 947.116 409.507 947.112 412.047C947.107 414.586 945.072 416.615 942.532 416.61C939.992 416.775 937.965 414.57 937.969 412.031Z" fill="#F4F4F4"/>
<path opacity="0.4" d="M108.981 437.517C108.984 435.993 110.171 434.81 111.695 434.813C113.219 434.815 114.402 436.003 114.399 437.526C114.397 439.05 113.209 440.233 111.686 440.231C110.162 440.228 108.979 439.041 108.981 437.517Z" fill="#F4F4F4"/>
<path opacity="0.4" d="M641.815 429.804C641.817 428.449 643.004 427.266 644.359 427.269C645.713 427.271 646.896 428.458 646.894 429.813C646.892 431.167 645.704 432.35 644.35 432.348C642.995 432.346 641.812 431.158 641.815 429.804Z" fill="#F4F4F4"/>
<path opacity="0.4" d="M994.169 418.562C994.173 416.361 995.869 414.671 998.07 414.675C1000.27 414.678 1001.96 416.374 1001.96 418.575C1001.95 420.776 1000.26 422.467 998.056 422.463C995.855 422.459 994.165 420.763 994.169 418.562Z" fill="#F4F4F4"/>
<path opacity="0.4" d="M158.933 434.725C158.939 430.831 162.162 427.619 166.056 427.626C169.95 427.633 173.161 430.855 173.155 434.75C173.148 438.644 169.926 441.855 166.031 441.848C162.137 441.841 158.926 438.619 158.933 434.725Z" fill="#F4F4F4"/>
<path opacity="0.4" d="M681.267 428.179C681.272 425.301 683.646 422.935 686.524 422.94C689.403 422.945 691.769 425.319 691.764 428.198C691.759 431.076 689.384 433.442 686.506 433.437C683.628 433.432 681.262 431.058 681.267 428.179Z" fill="#F4F4F4"/>
<path opacity="0.4" d="M1039.89 412.546C1039.9 410.006 1041.93 407.978 1044.47 407.982C1047.01 407.987 1049.04 410.022 1049.04 412.561C1049.03 415.101 1047 417.129 1044.46 417.125C1041.92 417.12 1039.89 415.085 1039.89 412.546Z" fill="#F4F4F4"/>
<path opacity="0.4" d="M218.856 441.94C218.86 439.908 220.556 438.387 222.418 438.391C224.45 438.394 225.97 440.09 225.967 441.952C225.964 443.984 224.268 445.505 222.406 445.502C220.374 445.498 218.853 443.972 218.856 441.94Z" fill="#F4F4F4"/>
<path opacity="0.4" d="M741.542 427.776C741.545 425.913 743.072 424.392 744.934 424.396C746.797 424.399 748.318 425.925 748.315 427.788C748.311 429.65 746.785 431.171 744.922 431.168C743.06 431.165 741.539 429.638 741.542 427.776Z" fill="#F4F4F4"/>
<path opacity="0.4" d="M1108.92 440.771C1108.93 438.739 1110.62 437.049 1112.65 437.052C1114.69 437.056 1116.38 438.752 1116.37 440.784C1116.37 442.815 1114.67 444.506 1112.64 444.502C1110.61 444.498 1108.92 442.802 1108.92 440.771Z" fill="#F4F4F4"/>
<path opacity="0.4" d="M256.614 441.328C256.618 438.958 258.483 437.098 260.854 437.103C263.224 437.107 265.083 438.972 265.079 441.343C265.075 443.713 263.209 445.572 260.839 445.568C258.469 445.564 256.61 443.529 256.614 441.328Z" fill="#F4F4F4"/>
<path opacity="0.4" d="M794.055 412.121C794.062 408.396 797.115 405.184 801.009 405.191C804.734 405.197 807.945 408.25 807.939 412.145C807.932 415.869 804.879 419.081 800.985 419.074C797.091 419.068 794.049 415.845 794.055 412.121Z" fill="#F4F4F4"/>
<path opacity="0.4" d="M1150.11 417.139C1150.11 413.245 1153.34 410.033 1157.23 410.04C1161.12 410.047 1164.33 413.269 1164.33 417.163C1164.32 421.057 1161.1 424.269 1157.2 424.262C1153.14 424.255 1150.1 421.033 1150.11 417.139Z" fill="#F4F4F4"/>
<path opacity="0.4" d="M324.539 422.483C324.542 421.298 325.559 420.284 326.744 420.286C327.929 420.288 328.944 421.306 328.941 422.491C328.939 423.676 327.922 424.69 326.737 424.688C325.551 424.686 324.537 423.668 324.539 422.483Z" fill="#F4F4F4"/>
<path opacity="0.4" d="M847.508 440.488C847.514 437.102 850.397 434.229 853.783 434.234C857.17 434.24 860.043 437.124 860.037 440.51C860.031 443.896 857.148 446.769 853.762 446.763C850.376 446.758 847.502 443.874 847.508 440.488Z" fill="#F4F4F4"/>
<path opacity="0.4" d="M1211.07 410.303C1211.07 407.594 1213.28 405.227 1216.16 405.232C1218.87 405.237 1221.23 407.442 1221.23 410.32C1221.22 413.029 1219.02 415.396 1216.14 415.391C1213.26 415.386 1211.06 413.181 1211.07 410.303Z" fill="#F4F4F4"/>
<path opacity="0.4" d="M-1.02193 409.56C-1.02017 408.544 -0.172199 407.699 0.84366 407.701C1.85952 407.703 2.70467 408.551 2.70291 409.566C2.70115 410.582 1.85308 411.427 0.837216 411.426C-0.17835 411.255 -1.02369 410.576 -1.02193 409.56Z" fill="#F4F4F4"/>
<path opacity="0.4" d="M881.923 414.474C881.929 411.088 884.812 408.214 888.198 408.22C891.585 408.226 894.458 411.109 894.452 414.495C894.446 417.882 891.563 420.755 888.177 420.749C884.791 420.743 881.917 417.86 881.923 414.474Z" fill="#F4F4F4"/>
<path opacity="0.4" d="M1249.45 439.829C1249.46 436.443 1252.17 433.738 1255.56 433.744C1258.94 433.75 1261.65 436.464 1261.64 439.85C1261.64 443.236 1258.92 445.94 1255.54 445.935C1252.15 446.098 1249.45 443.215 1249.45 439.829Z" fill="#F4F4F4"/>
<path opacity="0.4" d="M65.5743 474.352C65.5767 472.997 66.5943 471.983 67.9488 471.985C69.3033 471.988 70.3174 473.005 70.3151 474.36C70.3127 475.714 69.2951 476.728 67.9406 476.726C66.5861 476.724 65.572 475.706 65.5743 474.352Z" fill="#F4F4F4"/>
<path opacity="0.4" d="M372.015 480.977C372.019 478.268 374.224 476.071 376.933 476.076C379.642 476.08 381.839 478.285 381.835 480.994C381.83 483.703 379.625 485.9 376.916 485.896C374.207 485.891 372.01 483.686 372.015 480.977Z" fill="#F4F4F4"/>
<path opacity="0.4" d="M423.991 482.252C423.992 481.236 424.841 480.222 426.026 480.224C427.042 480.226 428.056 481.074 428.054 482.259C428.052 483.275 427.204 484.289 426.019 484.287C424.834 484.285 423.989 483.437 423.991 482.252Z" fill="#F4F4F4"/>
<path opacity="0.4" d="M480.881 481.335C480.887 477.779 483.77 474.906 487.325 474.912C490.881 474.918 493.754 477.802 493.748 481.357C493.742 484.913 490.859 487.786 487.303 487.78C483.748 487.774 480.874 484.89 480.881 481.335Z" fill="#F4F4F4"/>
<path opacity="0.4" d="M531.691 471.433C531.697 467.878 534.58 465.174 537.966 465.18C541.521 465.186 544.225 468.069 544.22 471.455C544.213 475.01 541.33 477.714 537.944 477.709C534.558 477.703 531.685 474.989 531.691 471.433Z" fill="#F4F4F4"/>
<path opacity="0.4" d="M586.224 462.554C586.227 461.03 587.413 460.017 588.768 460.019C590.292 460.022 591.306 461.208 591.303 462.563C591.301 464.087 590.114 465.101 588.759 465.098C587.235 465.265 586.221 464.078 586.224 462.554Z" fill="#F4F4F4"/>
<path opacity="0.4" d="M931.773 470.263C931.78 466.538 934.832 463.496 938.557 463.502C942.282 463.509 945.324 466.562 945.318 470.287C945.311 474.011 942.259 477.054 938.534 477.047C934.809 477.041 931.767 473.988 931.773 470.263Z" fill="#F4F4F4"/>
<path opacity="0.4" d="M108.746 476.12C108.751 473.072 111.295 470.537 114.342 470.542C117.39 470.548 119.925 473.092 119.92 476.139C119.915 479.187 117.371 481.722 114.323 481.717C111.106 481.711 108.74 479.167 108.746 476.12Z" fill="#F4F4F4"/>
<path opacity="0.4" d="M623.446 477.687C623.448 476.333 624.466 475.319 625.821 475.321C627.175 475.324 628.189 476.341 628.187 477.696C628.185 479.05 627.167 480.064 625.812 480.062C624.458 480.06 623.444 479.042 623.446 477.687Z" fill="#F4F4F4"/>
<path opacity="0.4" d="M989.826 481.876C989.833 477.982 993.055 474.94 996.78 474.947C1000.67 474.953 1003.72 478.176 1003.71 481.9C1003.7 485.795 1000.48 488.837 996.756 488.83C992.862 488.823 989.82 485.771 989.826 481.876Z" fill="#F4F4F4"/>
<path opacity="0.4" d="M154.953 483.988C154.955 482.972 155.803 482.296 156.65 482.297C157.665 482.299 158.341 483.147 158.34 483.994C158.338 485.009 157.49 485.685 156.644 485.684C155.628 485.682 154.952 484.834 154.953 483.988Z" fill="#F4F4F4"/>
<path opacity="0.4" d="M682.558 464.752C682.561 462.89 684.087 461.369 685.95 461.372C687.812 461.375 689.333 462.902 689.33 464.764C689.327 466.627 687.8 468.148 685.938 468.145C684.076 468.141 682.554 466.615 682.558 464.752Z" fill="#F4F4F4"/>
<path opacity="0.4" d="M1048.93 473.852C1048.93 472.328 1050.12 471.145 1051.64 471.147C1053.17 471.15 1054.35 472.337 1054.35 473.861C1054.34 475.385 1053.16 476.568 1051.63 476.565C1050.11 476.563 1048.93 475.376 1048.93 473.852Z" fill="#F4F4F4"/>
<path opacity="0.4" d="M218.783 484.268C218.787 482.236 220.483 480.546 222.514 480.549C224.546 480.553 226.236 482.249 226.233 484.281C226.229 486.312 224.533 488.003 222.501 487.999C220.47 487.996 218.78 486.3 218.783 484.268Z" fill="#F4F4F4"/>
<path opacity="0.4" d="M731.947 493.282C731.95 491.927 732.967 490.913 734.322 490.916C735.676 490.918 736.69 491.936 736.688 493.29C736.686 494.645 735.668 495.659 734.313 495.656C732.959 495.485 731.945 494.467 731.947 493.282Z" fill="#F4F4F4"/>
<path opacity="0.4" d="M1103.59 490.369C1103.59 488.676 1104.95 487.324 1106.64 487.327C1108.33 487.33 1109.69 488.687 1109.68 490.38C1109.68 492.073 1108.32 493.425 1106.63 493.422C1104.94 493.419 1103.59 492.062 1103.59 490.369Z" fill="#F4F4F4"/>
<path opacity="0.4" d="M270.086 483.171C270.09 480.631 272.126 478.603 274.665 478.607C277.205 478.612 279.233 480.647 279.229 483.187C279.224 485.726 277.189 487.755 274.649 487.75C272.109 487.915 270.082 485.711 270.086 483.171Z" fill="#F4F4F4"/>
<path opacity="0.4" d="M795.953 489.16C795.958 486.282 798.333 483.916 801.211 483.921C804.089 483.926 806.455 486.3 806.45 489.178C806.445 492.057 804.071 494.423 801.193 494.418C798.315 494.413 795.948 492.039 795.953 489.16Z" fill="#F4F4F4"/>
<path opacity="0.4" d="M1157.46 471.161C1157.47 468.283 1159.84 466.086 1162.55 466.091C1165.43 466.096 1167.63 468.47 1167.62 471.179C1167.62 474.057 1165.24 476.254 1162.53 476.249C1159.65 476.244 1157.46 473.87 1157.46 471.161Z" fill="#F4F4F4"/>
<path opacity="0.4" d="M303.978 465.621C303.983 463.081 306.018 460.884 308.727 460.889C311.267 460.893 313.464 462.928 313.46 465.637C313.455 468.177 311.42 470.375 308.711 470.37C306.002 470.365 303.974 468.33 303.978 465.621Z" fill="#F4F4F4"/>
<path opacity="0.4" d="M838.318 467.562C838.326 463.329 841.717 460.118 845.781 460.125C850.014 460.132 853.225 463.524 853.218 467.588C853.211 471.651 849.819 475.031 845.755 475.024C841.692 475.017 838.311 471.795 838.318 467.562Z" fill="#F4F4F4"/>
<path opacity="0.4" d="M1207.05 481.575C1207.06 479.712 1208.58 478.361 1210.27 478.364C1212.14 478.367 1213.49 479.893 1213.49 481.586C1213.48 483.448 1211.96 484.8 1210.26 484.797C1208.4 484.794 1207.05 483.437 1207.05 481.575Z" fill="#F4F4F4"/>
<path opacity="0.4" d="M-7.91294 478.119C-7.9062 474.225 -4.68373 471.013 -0.7896 471.02C3.10453 471.027 6.31577 474.249 6.30903 478.143C6.30229 482.038 3.07992 485.249 -0.814204 485.242C-4.70833 485.235 -7.91967 482.013 -7.91294 478.119Z" fill="#F4F4F4"/>
<path opacity="0.4" d="M882.491 477.458C882.496 474.749 884.701 472.552 887.579 472.557C890.288 472.561 892.655 474.767 892.65 477.476C892.645 480.184 890.44 482.551 887.562 482.546C884.853 482.541 882.486 480.336 882.491 477.458Z" fill="#F4F4F4"/>
<path opacity="0.4" d="M1247.17 488.078C1247.17 486.047 1248.7 484.525 1250.73 484.529C1252.76 484.532 1254.28 486.059 1254.28 488.091C1254.27 490.122 1252.75 491.643 1250.72 491.64C1248.69 491.636 1247.16 490.11 1247.17 488.078Z" fill="#F4F4F4"/>
<path opacity="0.4" d="M61.9587 509.054C61.9622 507.022 63.4886 505.501 65.5203 505.505C67.552 505.508 69.0732 507.035 69.0697 509.066C69.0662 511.098 67.5397 512.619 65.508 512.616C63.6456 512.612 61.9555 510.916 61.9587 509.054Z" fill="#F4F4F4"/>
<path opacity="0.4" d="M363.655 517.534C363.659 515.502 365.355 513.812 367.386 513.816C369.418 513.819 371.108 515.515 371.105 517.547C371.101 519.579 369.405 521.269 367.373 521.265C365.342 521.262 363.652 519.566 363.655 517.534Z" fill="#F4F4F4"/>
<path opacity="0.4" d="M415.649 508.65C415.655 504.925 418.708 501.883 422.433 501.889C426.158 501.896 429.2 504.949 429.194 508.673C429.187 512.398 426.134 515.441 422.41 515.434C418.685 515.428 415.642 512.375 415.649 508.65Z" fill="#F4F4F4"/>
<path opacity="0.4" d="M476.937 510.11C476.943 506.386 479.996 503.174 483.89 503.181C487.615 503.187 490.827 506.24 490.82 510.135C490.814 513.859 487.76 517.071 483.866 517.064C479.972 517.057 476.93 513.835 476.937 510.11Z" fill="#F4F4F4"/>
<path opacity="0.4" d="M511.117 521.514C511.122 518.805 513.327 516.608 516.036 516.612C518.745 516.617 520.942 518.822 520.937 521.531C520.933 524.24 518.728 526.437 516.019 526.432C513.31 526.427 511.113 524.223 511.117 521.514Z" fill="#F4F4F4"/>
<path opacity="0.4" d="M565.148 509.755C565.153 506.538 567.867 503.834 571.084 503.84C574.301 503.845 577.005 506.559 577 509.776C576.994 512.993 574.28 515.697 571.063 515.691C567.847 515.686 565.142 512.972 565.148 509.755Z" fill="#F4F4F4"/>
<path opacity="0.4" d="M930.969 543.742C930.971 542.219 932.159 541.035 933.682 541.038C935.206 541.041 936.389 542.228 936.387 543.752C936.384 545.275 935.197 546.459 933.673 546.456C932.149 546.453 930.966 545.266 930.969 543.742Z" fill="#F4F4F4"/>
<path opacity="0.4" d="M102.037 536.89C102.041 534.52 103.907 532.491 106.447 532.496C108.817 532.5 110.846 534.366 110.841 536.905C110.837 539.276 108.971 541.304 106.432 541.3C103.892 541.126 102.033 539.261 102.037 536.89Z" fill="#F4F4F4"/>
<path opacity="0.4" d="M637.248 524.61C637.25 523.425 638.268 522.411 639.453 522.413C640.638 522.415 641.652 523.432 641.65 524.617C641.648 525.803 640.631 526.817 639.445 526.815C638.26 526.982 637.246 525.964 637.248 524.61Z" fill="#F4F4F4"/>
<path opacity="0.4" d="M987.365 534.697C987.37 531.48 989.914 528.945 993.131 528.95C996.348 528.956 998.883 531.5 998.878 534.717C998.872 537.934 996.328 540.469 993.111 540.463C989.894 540.458 987.359 537.914 987.365 534.697Z" fill="#F4F4F4"/>
<path opacity="0.4" d="M156.943 508.372C156.947 506.002 158.982 503.973 161.353 503.977C163.723 503.982 165.752 505.847 165.747 508.387C165.743 510.757 163.708 512.786 161.338 512.782C158.967 512.777 156.939 510.742 156.943 508.372Z" fill="#F4F4F4"/>
<path opacity="0.4" d="M676.712 516.551C676.715 514.689 678.241 513.168 680.104 513.171C681.966 513.174 683.487 514.701 683.484 516.563C683.481 518.425 681.954 519.947 680.092 519.943C678.229 520.109 676.708 518.583 676.712 516.551Z" fill="#F4F4F4"/>
<path opacity="0.4" d="M1040.01 539.19C1040.02 535.465 1043.07 532.592 1046.63 532.598C1050.18 532.605 1053.23 535.657 1053.22 539.213C1053.21 542.938 1050.16 545.811 1046.6 545.805C1043.05 545.798 1040.01 542.746 1040.01 539.19Z" fill="#F4F4F4"/>
<path opacity="0.4" d="M199.226 534.18C199.229 532.487 200.586 531.135 202.279 531.138C203.972 531.141 205.324 532.498 205.321 534.191C205.318 535.884 203.961 537.236 202.268 537.233C200.575 537.23 199.223 535.873 199.226 534.18Z" fill="#F4F4F4"/>
<path opacity="0.4" d="M735.261 535.277C735.268 531.213 738.66 527.833 742.723 527.84C746.787 527.847 750.167 531.239 750.16 535.303C750.153 539.366 746.761 542.746 742.698 542.739C738.465 542.732 735.253 539.51 735.261 535.277Z" fill="#F4F4F4"/>
<path opacity="0.4" d="M1103.36 522.877C1103.37 520.168 1105.57 517.971 1108.28 517.975C1110.99 517.98 1113.19 520.185 1113.18 522.894C1113.18 525.603 1110.97 527.8 1108.26 527.795C1105.56 527.791 1103.36 525.586 1103.36 522.877Z" fill="#F4F4F4"/>
<path opacity="0.4" d="M271.564 509.755C271.566 508.401 272.584 507.387 273.938 507.389C275.293 507.391 276.307 508.409 276.304 509.764C276.302 511.118 275.285 512.132 273.93 512.13C272.576 512.127 271.561 511.11 271.564 509.755Z" fill="#F4F4F4"/>
<path opacity="0.4" d="M775.764 512.998C775.771 509.104 778.994 505.893 782.888 505.899C786.782 505.906 789.993 509.129 789.986 513.023C789.98 516.917 786.757 520.128 782.863 520.121C778.8 519.945 775.758 516.892 775.764 512.998Z" fill="#F4F4F4"/>
<path opacity="0.4" d="M1150.92 533.456C1150.92 532.61 1151.6 531.934 1152.45 531.935C1153.29 531.937 1153.97 532.615 1153.97 533.461C1153.97 534.308 1153.29 534.984 1152.44 534.983C1151.6 535.15 1150.92 534.303 1150.92 533.456Z" fill="#F4F4F4"/>
<path opacity="0.4" d="M312.367 509.826C312.37 508.133 313.727 506.781 315.42 506.784C317.113 506.787 318.466 508.143 318.463 509.836C318.46 511.53 317.103 512.882 315.41 512.879C313.717 512.876 312.365 511.519 312.367 509.826Z" fill="#F4F4F4"/>
<path opacity="0.4" d="M834.491 526.814C834.498 522.92 837.721 519.708 841.615 519.715C845.509 519.722 848.72 522.944 848.713 526.838C848.707 530.732 845.484 533.944 841.59 533.937C837.696 533.93 834.485 530.708 834.491 526.814Z" fill="#F4F4F4"/>
<path opacity="0.4" d="M1205.29 519.667C1205.3 515.773 1208.35 512.73 1212.25 512.737C1216.14 512.744 1219.18 515.797 1219.18 519.691C1219.17 523.585 1216.12 526.627 1212.22 526.62C1208.5 526.614 1205.29 523.561 1205.29 519.667Z" fill="#F4F4F4"/>
<path opacity="0.4" d="M1.63444 537.902C1.64059 534.346 4.52382 531.473 8.07932 531.479C11.6348 531.485 14.5081 534.368 14.5019 537.924C14.4958 541.479 11.6126 544.353 8.05706 544.347C4.50156 544.34 1.62829 541.457 1.63444 537.902Z" fill="#F4F4F4"/>
<path opacity="0.4" d="M894.41 536.399C894.416 533.182 896.96 530.646 900.177 530.652C903.394 530.658 905.929 533.202 905.923 536.419C905.918 539.635 903.374 542.171 900.157 542.165C896.94 542.16 894.405 539.616 894.41 536.399Z" fill="#F4F4F4"/>
<path opacity="0.4" d="M1260.66 517.223C1260.67 515.191 1262.36 513.501 1264.39 513.505C1266.42 513.508 1268.12 515.204 1268.11 517.236C1268.11 519.267 1266.41 520.958 1264.38 520.954C1262.35 520.781 1260.66 519.255 1260.66 517.223Z" fill="#F4F4F4"/>
<path opacity="0.4" d="M50.3089 588.102C50.3118 586.409 51.6686 585.057 53.3617 585.06C55.0548 585.063 56.4069 586.419 56.404 588.112C56.4011 589.806 55.0443 591.158 53.3512 591.155C51.6581 591.152 50.3059 589.795 50.3089 588.102Z" fill="#F4F4F4"/>
<path opacity="0.4" d="M356.963 568.823C356.968 565.945 359.173 563.748 362.051 563.753C364.93 563.758 367.127 565.963 367.122 568.841C367.117 571.719 364.912 573.916 362.034 573.911C359.325 573.907 356.958 571.702 356.963 568.823Z" fill="#F4F4F4"/>
<path opacity="0.4" d="M426.223 562.171C426.228 559.123 428.772 556.588 431.82 556.593C434.867 556.599 437.402 559.143 437.397 562.19C437.392 565.238 434.848 567.773 431.8 567.768C428.753 567.762 426.217 565.388 426.223 562.171Z" fill="#F4F4F4"/>
<path opacity="0.4" d="M482.262 563.453C482.264 562.268 483.112 561.423 484.297 561.425C485.483 561.427 486.328 562.275 486.326 563.46C486.324 564.476 485.476 565.49 484.29 565.488C483.105 565.486 482.26 564.638 482.262 563.453Z" fill="#F4F4F4"/>
<path opacity="0.4" d="M539.436 593.858C539.438 593.012 540.116 592.336 540.963 592.337C541.809 592.339 542.486 593.017 542.484 593.864C542.483 594.71 541.804 595.386 540.958 595.385C540.28 595.384 539.435 594.705 539.436 593.858Z" fill="#F4F4F4"/>
<path opacity="0.4" d="M573.01 564.964C573.016 561.747 575.56 559.212 578.776 559.217C581.993 559.223 584.529 561.767 584.523 564.984C584.518 568.201 581.973 570.736 578.757 570.73C575.54 570.725 573.005 568.012 573.01 564.964Z" fill="#F4F4F4"/>
<path opacity="0.4" d="M954.952 577.646C954.958 574.598 957.332 572.232 960.38 572.237C963.427 572.243 965.793 574.617 965.788 577.665C965.783 580.712 963.408 583.078 960.361 583.073C957.482 583.068 954.947 580.693 954.952 577.646Z" fill="#F4F4F4"/>
<path opacity="0.4" d="M116.04 565.697C116.044 563.496 117.909 561.637 120.11 561.641C122.312 561.645 124.171 563.511 124.167 565.712C124.163 567.913 122.297 569.772 120.096 569.768C117.726 569.764 116.036 567.899 116.04 565.697Z" fill="#F4F4F4"/>
<path opacity="0.4" d="M637.003 568.8C637.006 566.768 638.702 565.078 640.734 565.081C642.766 565.085 644.456 566.781 644.452 568.813C644.449 570.844 642.753 572.534 640.721 572.531C638.689 572.527 636.999 570.831 637.003 568.8Z" fill="#F4F4F4"/>
<path opacity="0.4" d="M992.217 567.89C992.223 564.673 994.936 561.969 998.153 561.974C1001.37 561.98 1004.07 564.694 1004.07 567.911C1004.06 571.127 1001.35 573.832 998.133 573.826C994.916 573.821 992.212 571.107 992.217 567.89Z" fill="#F4F4F4"/>
<path opacity="0.4" d="M168.865 565.62C168.87 562.911 171.074 560.883 173.614 560.887C176.323 560.892 178.351 563.096 178.346 565.636C178.342 568.345 176.137 570.373 173.598 570.368C170.889 570.364 168.861 568.159 168.865 565.62Z" fill="#F4F4F4"/>
<path opacity="0.4" d="M677.622 577.335C677.627 574.796 679.662 572.768 682.202 572.772C684.741 572.776 686.769 574.812 686.765 577.351C686.761 579.891 684.725 581.919 682.186 581.915C679.646 581.91 677.618 579.875 677.622 577.335Z" fill="#F4F4F4"/>
<path opacity="0.4" d="M1032.48 585.907C1032.49 582.351 1035.37 579.478 1038.93 579.484C1042.48 579.49 1045.36 582.374 1045.35 585.929C1045.34 589.485 1042.46 592.358 1038.9 592.352C1035.35 592.345 1032.48 589.462 1032.48 585.907Z" fill="#F4F4F4"/>
<path opacity="0.4" d="M199.51 565.673C199.515 562.625 202.059 560.09 205.107 560.095C208.155 560.1 210.69 562.644 210.685 565.692C210.679 568.739 208.135 571.275 205.088 571.269C201.871 571.264 199.505 568.889 199.51 565.673Z" fill="#F4F4F4"/>
<path opacity="0.4" d="M721.118 587.231C721.124 583.844 723.838 581.14 727.224 581.146C730.61 581.152 733.314 583.866 733.308 587.252C733.302 590.638 730.589 593.342 727.203 593.336C723.816 593.33 721.112 590.617 721.118 587.231Z" fill="#F4F4F4"/>
<path opacity="0.4" d="M1111.08 565.048C1111.08 562.17 1113.46 559.804 1116.34 559.809C1119.21 559.814 1121.58 562.188 1121.58 565.066C1121.57 567.945 1119.2 570.311 1116.32 570.306C1113.27 570.301 1111.07 567.927 1111.08 565.048Z" fill="#F4F4F4"/>
<path opacity="0.4" d="M257.382 584.228C257.386 581.688 259.422 579.49 262.131 579.495C264.671 579.5 266.868 581.535 266.863 584.244C266.859 586.784 264.823 588.981 262.115 588.977C259.575 588.972 257.377 586.937 257.382 584.228Z" fill="#F4F4F4"/>
<path opacity="0.4" d="M794.08 593.622C794.084 590.913 796.289 588.715 798.998 588.72C801.707 588.725 803.904 590.93 803.9 593.639C803.895 596.348 801.69 598.545 798.981 598.54C796.272 598.535 794.075 596.331 794.08 593.622Z" fill="#F4F4F4"/>
<path opacity="0.4" d="M1140.55 559.85C1140.55 556.972 1142.93 554.606 1145.8 554.611C1148.68 554.616 1151.05 556.99 1151.04 559.869C1151.04 562.747 1148.66 565.113 1145.79 565.108C1142.91 565.103 1140.54 562.729 1140.55 559.85Z" fill="#F4F4F4"/>
<path opacity="0.4" d="M301.608 563.31C301.615 559.754 304.498 556.881 308.053 556.887C311.609 556.893 314.482 559.776 314.476 563.332C314.47 566.887 311.587 569.761 308.031 569.754C304.476 569.748 301.602 566.865 301.608 563.31Z" fill="#F4F4F4"/>
<path opacity="0.4" d="M831.171 586.405C831.177 583.019 833.891 580.145 837.277 580.151C840.663 580.157 843.537 582.871 843.531 586.427C843.525 589.813 840.811 592.686 837.255 592.68C834.039 592.505 831.165 589.791 831.171 586.405Z" fill="#F4F4F4"/>
<path opacity="0.4" d="M1207.72 584.517C1207.72 583.162 1208.91 581.979 1210.26 581.982C1211.62 581.984 1212.8 583.171 1212.8 584.526C1212.8 585.88 1211.61 587.063 1210.26 587.061C1208.73 587.058 1207.72 585.871 1207.72 584.517Z" fill="#F4F4F4"/>
<path opacity="0.4" d="M7.85088 565.679C7.85498 563.309 9.72036 561.619 11.9214 561.623C14.1224 561.627 15.9816 563.492 15.9778 565.694C15.974 567.895 14.1084 569.754 11.9073 569.75C9.7063 569.746 7.84678 568.05 7.85088 565.679Z" fill="#F4F4F4"/>
<path opacity="0.4" d="M879.766 584.627C879.768 583.78 880.446 583.104 881.293 583.106C882.139 583.107 882.815 583.785 882.814 584.632C882.812 585.479 882.134 586.155 881.287 586.153C880.441 586.321 879.765 585.643 879.766 584.627Z" fill="#F4F4F4"/>
<path opacity="0.4" d="M1264.26 588.001C1264.27 585.8 1266.13 583.941 1268.33 583.945C1270.54 583.948 1272.4 585.814 1272.39 588.015C1272.39 590.216 1270.52 592.075 1268.32 592.071C1266.12 592.068 1264.26 590.202 1264.26 588.001Z" fill="#F4F4F4"/>
<path opacity="0.4" d="M50.4219 620.61C50.4236 619.594 51.2714 618.918 52.1179 618.919C53.1338 618.921 53.8095 619.769 53.8081 620.616C53.8063 621.631 52.9586 622.307 52.112 622.306C51.2655 622.304 50.4201 621.626 50.4219 620.61Z" fill="#F4F4F4"/>
<path opacity="0.4" d="M363.654 615.734C363.66 612.686 366.204 610.151 369.251 610.156C372.299 610.161 374.834 612.705 374.829 615.753C374.824 618.801 372.28 621.336 369.232 621.331C366.184 621.325 363.649 618.781 363.654 615.734Z" fill="#F4F4F4"/>
<path opacity="0.4" d="M427.815 620.416C427.821 617.03 430.534 614.325 433.921 614.331C437.307 614.337 440.011 617.051 440.005 620.437C439.999 623.823 437.286 626.527 433.9 626.522C430.513 626.516 427.809 623.802 427.815 620.416Z" fill="#F4F4F4"/>
<path opacity="0.4" d="M458.603 635.876C458.609 632.49 461.322 629.786 464.709 629.792C468.095 629.798 470.799 632.511 470.793 635.898C470.787 639.284 468.074 641.988 464.688 641.982C461.301 641.976 458.597 639.263 458.603 635.876Z" fill="#F4F4F4"/>
<path opacity="0.4" d="M512.969 625.304C512.972 623.611 514.329 622.259 516.022 622.262C517.715 622.265 519.068 623.621 519.065 625.314C519.062 627.008 517.705 628.36 516.012 628.357C514.319 628.185 512.967 626.828 512.969 625.304Z" fill="#F4F4F4"/>
<path opacity="0.4" d="M580.521 627.114C580.524 625.421 581.881 624.069 583.574 624.072C585.267 624.075 586.62 625.431 586.617 627.124C586.614 628.818 585.257 630.17 583.564 630.167C581.871 630.164 580.519 628.807 580.521 627.114Z" fill="#F4F4F4"/>
<path opacity="0.4" d="M950.312 617.595C950.317 614.378 952.862 611.674 956.248 611.68C959.465 611.685 962.169 614.229 962.164 617.616C962.158 620.833 959.614 623.537 956.227 623.531C952.842 623.356 950.306 620.812 950.312 617.595Z" fill="#F4F4F4"/>
<path opacity="0.4" d="M98.6699 623.741C98.674 621.37 100.54 619.511 102.91 619.515C105.28 619.519 107.139 621.385 107.135 623.755C107.131 626.126 105.266 627.985 102.895 627.981C100.525 627.807 98.6661 625.942 98.6699 623.741Z" fill="#F4F4F4"/>
<path opacity="0.4" d="M627.439 616.528C627.443 614.327 629.139 612.637 631.34 612.641C633.541 612.645 635.231 614.341 635.227 616.542C635.223 618.743 633.527 620.433 631.326 620.429C629.294 620.426 627.435 618.729 627.439 616.528Z" fill="#F4F4F4"/>
<path opacity="0.4" d="M1002.78 625.136C1002.79 622.765 1004.82 620.737 1007.19 620.741C1009.56 620.745 1011.59 622.78 1011.59 625.151C1011.58 627.521 1009.55 629.549 1007.18 629.545C1004.81 629.372 1002.78 627.506 1002.78 625.136Z" fill="#F4F4F4"/>
<path opacity="0.4" d="M160.99 615.891C160.992 614.875 161.84 613.861 163.025 613.863C164.041 613.864 165.055 614.713 165.053 615.898C165.052 616.914 164.203 617.928 163.018 617.926C161.833 617.755 160.988 616.907 160.99 615.891Z" fill="#F4F4F4"/>
<path opacity="0.4" d="M682.761 640.666C682.767 637.449 685.481 634.745 688.697 634.751C691.914 634.756 694.619 637.47 694.613 640.687C694.607 643.904 691.894 646.608 688.677 646.602C685.291 646.596 682.756 643.883 682.761 640.666Z" fill="#F4F4F4"/>
<path opacity="0.4" d="M1056.11 629.46C1056.11 628.275 1057.13 627.261 1058.32 627.263C1059.5 627.265 1060.51 628.282 1060.51 629.468C1060.51 630.653 1059.49 631.667 1058.31 631.665C1056.95 631.493 1056.11 630.476 1056.11 629.46Z" fill="#F4F4F4"/>
<path opacity="0.4" d="M203.807 626.293C203.813 622.907 206.527 620.203 209.913 620.209C213.299 620.214 216.003 622.928 215.998 626.314C215.992 629.7 213.278 632.405 209.892 632.399C206.506 632.393 203.802 629.679 203.807 626.293Z" fill="#F4F4F4"/>
<path opacity="0.4" d="M729.152 640.916C729.155 639.392 730.342 638.378 731.696 638.381C733.22 638.383 734.234 639.57 734.232 640.925C734.229 642.449 733.042 643.462 731.687 643.46C730.333 643.627 729.15 642.44 729.152 640.916Z" fill="#F4F4F4"/>
<path opacity="0.4" d="M1091.65 637.818C1091.66 633.924 1094.71 630.882 1098.6 630.888C1102.5 630.895 1105.54 633.948 1105.53 637.842C1105.53 641.736 1102.47 644.779 1098.58 644.772C1094.69 644.765 1091.64 641.712 1091.65 637.818Z" fill="#F4F4F4"/>
<path opacity="0.4" d="M266.945 635.037C266.95 632.159 269.324 629.792 272.203 629.797C275.081 629.802 277.447 632.177 277.442 635.055C277.437 637.933 275.063 640.3 272.185 640.295C269.137 640.12 266.94 637.746 266.945 635.037Z" fill="#F4F4F4"/>
<path opacity="0.4" d="M786.222 633.734C786.226 631.702 787.922 629.843 790.123 629.847C792.154 629.85 794.014 631.547 794.01 633.748C794.007 635.779 792.31 637.639 790.109 637.635C787.908 637.631 786.218 635.935 786.222 633.734Z" fill="#F4F4F4"/>
<path opacity="0.4" d="M1159.19 645.385C1159.2 643.692 1160.55 642.17 1162.42 642.173C1164.11 642.176 1165.63 643.533 1165.63 645.396C1165.62 647.089 1164.27 648.61 1162.4 648.607C1160.71 648.604 1159.19 647.078 1159.19 645.385Z" fill="#F4F4F4"/>
<path opacity="0.4" d="M314.05 613.616C314.052 612.431 315.07 611.417 316.255 611.419C317.44 611.421 318.454 612.439 318.452 613.624C318.45 614.809 317.433 615.823 316.247 615.821C315.062 615.819 314.048 614.802 314.05 613.616Z" fill="#F4F4F4"/>
<path opacity="0.4" d="M827.564 616.197C827.569 613.319 829.944 610.953 832.822 610.958C835.7 610.963 838.066 613.337 838.061 616.215C838.056 619.094 835.682 621.46 832.804 621.455C829.926 621.45 827.559 619.076 827.564 616.197Z" fill="#F4F4F4"/>
<path opacity="0.4" d="M1192.1 611.918C1192.1 608.363 1194.99 605.49 1198.54 605.496C1202.1 605.502 1204.97 608.385 1204.96 611.941C1204.96 615.496 1202.08 618.369 1198.52 618.363C1194.96 618.357 1192.09 615.474 1192.1 611.918Z" fill="#F4F4F4"/>
<path opacity="0.4" d="M878.691 619.164C878.695 616.625 880.9 614.427 883.44 614.432C885.979 614.436 888.176 616.641 888.172 619.181C888.168 621.72 885.963 623.918 883.423 623.913C880.714 623.908 878.686 621.873 878.691 619.164Z" fill="#F4F4F4"/>
<path opacity="0.4" d="M1248.81 617.604C1248.81 616.588 1249.66 615.573 1250.67 615.575C1251.69 615.577 1252.7 616.425 1252.7 617.61C1252.7 618.626 1251.85 619.471 1250.67 619.469C1249.65 619.637 1248.8 618.789 1248.81 617.604Z" fill="#F4F4F4"/>
<path opacity="0.4" d="M44.4044 673.593C44.4085 671.223 46.4438 669.195 48.8141 669.199C51.1844 669.203 53.2126 671.238 53.2085 673.609C53.2044 675.979 51.1692 678.007 48.7989 678.003C46.4285 677.999 44.4003 675.964 44.4044 673.593Z" fill="#F4F4F4"/>
<path opacity="0.4" d="M366.617 665.177C366.623 661.622 369.506 658.748 373.062 658.755C376.617 658.761 379.49 661.644 379.484 665.2C379.478 668.755 376.595 671.628 373.039 671.622C369.484 671.616 366.61 668.902 366.617 665.177Z" fill="#F4F4F4"/>
<path opacity="0.4" d="M430.079 682.049C430.085 678.493 432.968 675.789 436.354 675.795C439.91 675.801 442.614 678.684 442.608 682.07C442.602 685.626 439.719 688.33 436.332 688.324C432.946 688.318 430.073 685.435 430.079 682.049Z" fill="#F4F4F4"/>
<path opacity="0.4" d="M461.095 663.478C461.097 662.463 461.945 661.617 462.96 661.619C463.976 661.621 464.821 662.469 464.82 663.485C464.818 664.501 463.97 665.346 462.954 665.344C461.938 665.512 461.093 664.664 461.095 663.478Z" fill="#F4F4F4"/>
<path opacity="0.4" d="M520.336 673.401C520.341 670.354 522.716 667.987 525.763 667.993C528.811 667.998 531.177 670.372 531.172 673.42C531.167 676.467 528.792 678.834 525.745 678.828C522.697 678.823 520.331 676.279 520.336 673.401Z" fill="#F4F4F4"/>
<path opacity="0.4" d="M588.024 694.174C588.027 692.65 589.214 691.467 590.738 691.47C592.262 691.472 593.445 692.66 593.442 694.184C593.44 695.707 592.252 696.89 590.729 696.888C589.205 696.885 588.022 695.698 588.024 694.174Z" fill="#F4F4F4"/>
<path opacity="0.4" d="M930.215 686.131C930.221 682.237 933.274 679.194 937.168 679.201C941.062 679.208 944.105 682.261 944.098 686.155C944.091 690.049 941.038 693.091 937.144 693.085C933.25 693.078 930.208 689.856 930.215 686.131Z" fill="#F4F4F4"/>
<path opacity="0.4" d="M108.378 688.603C108.381 686.572 110.077 684.881 112.109 684.885C114.141 684.888 115.831 686.584 115.827 688.616C115.824 690.648 114.128 692.338 112.096 692.335C110.064 692.331 108.374 690.635 108.378 688.603Z" fill="#F4F4F4"/>
<path opacity="0.4" d="M638.685 672.59C638.689 670.389 640.555 668.529 642.756 668.533C644.957 668.537 646.816 670.403 646.812 672.604C646.808 674.805 644.943 676.664 642.742 676.66C640.541 676.656 638.682 674.791 638.685 672.59Z" fill="#F4F4F4"/>
<path opacity="0.4" d="M990.689 668.288C990.692 666.595 992.049 665.243 993.742 665.246C995.435 665.249 996.787 666.606 996.785 668.299C996.782 669.992 995.425 671.344 993.732 671.341C992.039 671.169 990.687 669.812 990.689 668.288Z" fill="#F4F4F4"/>
<path opacity="0.4" d="M167.504 667.034C167.509 664.156 169.884 661.789 172.762 661.794C175.64 661.799 178.007 664.174 178.002 667.052C177.997 669.93 175.622 672.297 172.744 672.292C169.866 672.287 167.499 669.912 167.504 667.034Z" fill="#F4F4F4"/>
<path opacity="0.4" d="M682.501 693.321C682.508 689.089 685.9 685.708 690.133 685.716C694.366 685.723 697.746 689.115 697.739 693.348C697.732 697.581 694.339 700.961 690.107 700.954C685.874 700.946 682.494 697.554 682.501 693.321Z" fill="#F4F4F4"/>
<path opacity="0.4" d="M1036.91 666.845C1036.92 664.644 1038.61 662.954 1040.81 662.957C1043.02 662.961 1044.71 664.657 1044.7 666.858C1044.7 669.059 1043 670.75 1040.8 670.746C1038.6 670.742 1036.91 668.877 1036.91 666.845Z" fill="#F4F4F4"/>
<path opacity="0.4" d="M221.31 687.106C221.315 684.397 223.52 682.2 226.229 682.204C228.938 682.209 231.135 684.414 231.13 687.123C231.126 689.832 228.921 692.029 226.212 692.024C223.503 692.02 221.306 689.815 221.31 687.106Z" fill="#F4F4F4"/>
<path opacity="0.4" d="M728.389 690.692C728.392 689.168 729.579 687.815 731.103 687.818C732.627 687.821 733.979 689.008 733.976 690.701C733.973 692.394 732.786 693.577 731.093 693.575C729.569 693.403 728.386 692.215 728.389 690.692Z" fill="#F4F4F4"/>
<path opacity="0.4" d="M1090.9 682.853C1090.9 681.499 1092.09 680.316 1093.44 680.318C1094.79 680.32 1095.98 681.508 1095.98 682.862C1095.97 684.217 1094.79 685.4 1093.43 685.397C1091.91 685.395 1090.89 684.208 1090.9 682.853Z" fill="#F4F4F4"/>
<path opacity="0.4" d="M270.075 685.158C270.082 681.264 273.135 678.222 277.029 678.229C280.923 678.235 283.965 681.288 283.959 685.182C283.952 689.076 280.899 692.119 277.005 692.112C273.111 692.105 270.069 688.883 270.075 685.158Z" fill="#F4F4F4"/>
<path opacity="0.4" d="M789.673 693.845C789.677 691.475 791.543 689.616 793.913 689.62C796.284 689.624 798.143 691.49 798.139 693.86C798.135 696.23 796.269 698.09 793.899 698.086C791.528 698.081 789.669 696.216 789.673 693.845Z" fill="#F4F4F4"/>
<path opacity="0.4" d="M1147.82 659.418C1147.83 656.031 1150.54 653.327 1153.93 653.333C1157.32 653.339 1160.02 656.053 1160.01 659.439C1160.01 662.825 1157.3 665.529 1153.91 665.523C1150.52 665.518 1147.82 662.804 1147.82 659.418Z" fill="#F4F4F4"/>
<path opacity="0.4" d="M322.913 677.8C322.915 676.446 323.933 675.432 325.287 675.434C326.642 675.436 327.656 676.454 327.653 677.808C327.651 679.163 326.633 680.177 325.279 680.175C323.924 680.172 322.911 678.985 322.913 677.8Z" fill="#F4F4F4"/>
<path opacity="0.4" d="M829.002 665.639C829.007 663.268 830.872 661.409 833.243 661.413C835.613 661.417 837.472 663.283 837.468 665.653C837.464 668.024 835.598 669.883 833.228 669.879C831.027 670.044 828.998 668.009 829.002 665.639Z" fill="#F4F4F4"/>
<path opacity="0.4" d="M1211.95 684.587C1211.96 680.523 1215.18 677.312 1219.24 677.319C1223.31 677.326 1226.52 680.548 1226.51 684.612C1226.5 688.675 1223.28 691.887 1219.22 691.88C1215.32 691.704 1211.94 688.481 1211.95 684.587Z" fill="#F4F4F4"/>
<path opacity="0.4" d="M-11.8099 675.528C-11.8032 671.634 -8.58073 668.423 -4.6866 668.429C-0.792476 668.436 2.41887 671.658 2.41213 675.553C2.40539 679.447 -0.817079 682.658 -4.71121 682.651C-8.60533 682.645 -11.8167 679.422 -11.8099 675.528Z" fill="#F4F4F4"/>
<path opacity="0.4" d="M903.479 677.28C903.481 675.757 904.838 674.404 906.362 674.407C907.886 674.41 909.238 675.767 909.235 677.29C909.233 678.814 907.876 680.166 906.352 680.164C904.659 680.161 903.476 678.804 903.479 677.28Z" fill="#F4F4F4"/>
<path opacity="0.4" d="M1257.86 670.106C1257.86 667.227 1260.24 664.861 1263.12 664.866C1265.99 664.871 1268.36 667.245 1268.35 670.124C1268.35 673.002 1265.98 675.368 1263.1 675.363C1260.22 675.358 1257.85 672.984 1257.86 670.106Z" fill="#F4F4F4"/>
<path opacity="0.4" d="M50.5924 717.794C50.5948 716.44 51.782 715.257 53.1364 715.259C54.4909 715.262 55.674 716.449 55.6717 717.803C55.6694 719.158 54.4821 720.341 53.1277 720.338C51.7732 720.336 50.5901 719.149 50.5924 717.794Z" fill="#F4F4F4"/>
<path opacity="0.4" d="M357.393 711.722C357.397 709.521 359.093 707.83 361.294 707.834C363.495 707.838 365.185 709.534 365.181 711.735C365.178 713.936 363.482 715.626 361.281 715.623C359.08 715.619 357.389 713.923 357.393 711.722Z" fill="#F4F4F4"/>
<path opacity="0.4" d="M407.298 735.851C407.302 733.48 409.337 731.452 411.708 731.456C414.078 731.46 416.106 733.495 416.102 735.866C416.098 738.236 414.063 740.264 411.693 740.26C409.153 740.425 407.294 738.39 407.298 735.851Z" fill="#F4F4F4"/>
<path opacity="0.4" d="M476.903 724.966C476.907 723.103 478.433 721.752 480.126 721.754C481.819 721.757 483.34 723.284 483.337 724.977C483.334 726.839 481.807 728.36 480.114 728.358C478.421 728.355 476.9 726.828 476.903 724.966Z" fill="#F4F4F4"/>
<path opacity="0.4" d="M513.651 720.966C513.655 718.426 515.691 716.228 518.23 716.233C520.77 716.237 522.967 718.273 522.963 720.982C522.958 723.521 520.923 725.719 518.214 725.714C515.844 725.541 513.646 723.505 513.651 720.966Z" fill="#F4F4F4"/>
<path opacity="0.4" d="M584.762 720.242C584.768 716.687 587.652 713.813 591.207 713.819C594.763 713.826 597.636 716.709 597.63 720.264C597.624 723.82 594.74 726.693 591.185 726.687C587.629 726.681 584.756 723.967 584.762 720.242Z" fill="#F4F4F4"/>
<path opacity="0.4" d="M944.036 722.049C944.04 719.509 946.075 717.481 948.615 717.485C951.155 717.49 953.183 719.525 953.178 722.065C953.174 724.604 951.139 726.632 948.599 726.628C946.06 726.624 944.031 724.588 944.036 722.049Z" fill="#F4F4F4"/>
<path opacity="0.4" d="M96.0996 739.375C96.1017 738.19 97.1193 737.176 98.3045 737.178C99.4896 737.18 100.504 738.198 100.502 739.383C100.5 740.568 99.482 741.582 98.2968 741.58C96.9424 741.578 96.0976 740.561 96.0996 739.375Z" fill="#F4F4F4"/>
<path opacity="0.4" d="M617.284 712.341C617.288 709.801 619.323 707.942 621.693 707.946C624.233 707.951 626.092 709.986 626.088 712.356C626.083 714.896 624.048 716.754 621.678 716.75C619.138 716.746 617.279 714.88 617.284 712.341Z" fill="#F4F4F4"/>
<path opacity="0.4" d="M992.275 730.428C992.278 728.397 993.974 726.706 996.006 726.71C998.038 726.713 999.728 728.409 999.724 730.441C999.721 732.473 998.025 734.163 995.993 734.16C993.961 734.156 992.271 732.46 992.275 730.428Z" fill="#F4F4F4"/>
<path opacity="0.4" d="M153.71 713.401C153.715 710.861 155.75 708.833 158.289 708.838C160.829 708.842 162.857 710.877 162.853 713.417C162.849 715.957 160.813 717.985 158.274 717.98C155.734 717.976 153.706 715.941 153.71 713.401Z" fill="#F4F4F4"/>
<path opacity="0.4" d="M686.174 723.465C686.181 719.401 689.573 716.021 693.636 716.028C697.7 716.035 701.08 719.427 701.073 723.491C701.066 727.554 697.674 730.934 693.61 730.927C689.547 730.751 686.167 727.528 686.174 723.465Z" fill="#F4F4F4"/>
<path opacity="0.4" d="M1042.04 738.133C1042.04 735.255 1044.42 732.889 1047.3 732.894C1050.17 732.899 1052.54 735.273 1052.54 738.152C1052.53 741.03 1050.16 743.396 1047.28 743.391C1044.4 743.386 1042.03 741.012 1042.04 738.133Z" fill="#F4F4F4"/>
<path opacity="0.4" d="M208.38 723.485C208.387 719.591 211.609 716.38 215.503 716.386C219.397 716.393 222.609 719.616 222.602 723.51C222.595 727.404 219.373 730.615 215.479 730.608C211.415 730.601 208.373 727.379 208.38 723.485Z" fill="#F4F4F4"/>
<path opacity="0.4" d="M734.759 727.104C734.764 724.565 736.8 722.367 739.508 722.372C742.048 722.376 744.245 724.412 744.241 727.121C744.236 729.66 742.201 731.858 739.492 731.853C736.783 731.679 734.755 729.644 734.759 727.104Z" fill="#F4F4F4"/>
<path opacity="0.4" d="M1098.59 735.522C1098.6 731.459 1101.99 728.078 1106.06 728.085C1110.12 728.092 1113.5 731.484 1113.49 735.548C1113.49 739.611 1110.09 742.992 1106.03 742.985C1101.97 742.978 1098.59 739.755 1098.59 735.522Z" fill="#F4F4F4"/>
<path opacity="0.4" d="M273.745 716.995C273.749 714.455 275.785 712.427 278.324 712.431C280.864 712.436 282.892 714.471 282.888 717.011C282.883 719.55 280.848 721.579 278.308 721.574C275.769 721.57 273.741 719.365 273.745 716.995Z" fill="#F4F4F4"/>
<path opacity="0.4" d="M793.509 727.884C793.511 726.699 794.528 725.854 795.544 725.855C796.73 725.857 797.744 726.875 797.742 727.891C797.74 729.076 796.722 729.921 795.537 729.919C794.521 730.086 793.507 729.069 793.509 727.884Z" fill="#F4F4F4"/>
<path opacity="0.4" d="M1160.22 738.846C1160.22 736.137 1162.43 733.939 1165.13 733.944C1167.84 733.949 1170.04 736.154 1170.04 738.863C1170.03 741.571 1167.83 743.769 1165.12 743.764C1162.41 743.59 1160.21 741.554 1160.22 738.846Z" fill="#F4F4F4"/>
<path opacity="0.4" d="M303.714 716.201C303.717 714.338 305.243 712.986 306.937 712.989C308.799 712.992 310.151 714.519 310.148 716.212C310.145 718.074 308.619 719.426 306.925 719.423C305.063 719.42 303.711 718.063 303.714 716.201Z" fill="#F4F4F4"/>
<path opacity="0.4" d="M844.482 721.707C844.484 720.691 845.332 720.015 846.178 720.017C847.194 720.019 847.87 720.866 847.868 721.713C847.866 722.729 847.019 723.404 846.172 723.403C845.156 723.571 844.48 722.723 844.482 721.707Z" fill="#F4F4F4"/>
<path opacity="0.4" d="M1194.62 720.789C1194.62 717.403 1197.34 714.699 1200.72 714.705C1204.11 714.71 1206.81 717.424 1206.81 720.81C1206.8 724.197 1204.09 726.901 1200.7 726.895C1197.32 726.889 1194.61 724.175 1194.62 720.789Z" fill="#F4F4F4"/>
<path opacity="0.4" d="M-1.87675 707.883C-1.87118 704.666 0.672898 702.131 3.88979 702.137C7.10667 702.142 9.64186 704.686 9.6363 707.903C9.63073 711.12 7.08676 713.655 3.86987 713.65C0.822584 713.475 -1.88202 710.931 -1.87675 707.883Z" fill="#F4F4F4"/>
<path opacity="0.4" d="M901.039 717.742C901.045 714.186 903.928 711.144 907.653 711.15C911.208 711.156 914.251 714.04 914.245 717.765C914.238 721.489 911.355 724.363 907.63 724.356C903.906 724.18 901.032 721.297 901.039 717.742Z" fill="#F4F4F4"/>
<path opacity="0.4" d="M1269.61 728.538C1269.61 727.183 1270.8 726 1272.15 726.002C1273.51 726.005 1274.69 727.192 1274.69 728.546C1274.69 729.901 1273.5 731.084 1272.14 731.082C1270.79 731.079 1269.61 729.892 1269.61 728.538Z" fill="#F4F4F4"/>
<path opacity="0.4" d="M39.4589 791.933C39.463 789.563 41.4982 787.534 43.8686 787.539C46.2389 787.543 48.2672 789.578 48.2631 791.948C48.259 794.319 46.2237 796.347 43.8533 796.343C41.4833 796.169 39.4548 794.303 39.4589 791.933Z" fill="#F4F4F4"/>
<path opacity="0.4" d="M367.789 770.66C367.791 769.306 368.978 768.122 370.333 768.125C371.687 768.127 372.87 769.314 372.868 770.669C372.866 772.023 371.678 773.206 370.324 773.204C368.8 773.032 367.786 772.015 367.789 770.66Z" fill="#F4F4F4"/>
<path opacity="0.4" d="M427.063 761.62C427.067 759.08 429.103 757.052 431.642 757.056C434.182 757.061 436.21 759.096 436.206 761.636C436.201 764.175 434.166 766.203 431.626 766.199C429.087 766.195 427.059 764.159 427.063 761.62Z" fill="#F4F4F4"/>
<path opacity="0.4" d="M483.567 787.791C483.57 785.929 485.097 784.408 486.959 784.411C488.822 784.414 490.343 785.94 490.34 787.803C490.336 789.665 488.81 791.186 486.947 791.183C485.085 791.18 483.564 789.654 483.567 787.791Z" fill="#F4F4F4"/>
<path opacity="0.4" d="M521.678 778.714C521.682 776.005 523.887 773.978 526.426 773.982C529.135 773.987 531.163 776.191 531.159 778.731C531.154 781.44 528.95 783.468 526.41 783.463C523.87 783.459 521.673 781.423 521.678 778.714Z" fill="#F4F4F4"/>
<path opacity="0.4" d="M562.669 768.288C562.675 764.563 565.728 761.69 569.283 761.696C573.008 761.703 575.881 764.755 575.875 768.311C575.868 772.036 572.816 774.909 569.26 774.903C565.535 775.065 562.662 772.013 562.669 768.288Z" fill="#F4F4F4"/>
<path opacity="0.4" d="M951.559 777.257C951.566 773.532 954.619 770.49 958.343 770.496C962.068 770.503 965.11 773.556 965.104 777.28C965.098 781.005 962.045 784.048 958.32 784.041C954.595 784.035 951.553 780.982 951.559 777.257Z" fill="#F4F4F4"/>
<path opacity="0.4" d="M101.258 791.532C101.261 790.008 102.448 788.655 104.141 788.658C105.665 788.661 107.017 789.849 107.015 791.542C107.012 793.235 105.824 794.418 104.131 794.415C102.607 794.412 101.255 793.225 101.258 791.532Z" fill="#F4F4F4"/>
<path opacity="0.4" d="M634.793 769.428C634.795 768.413 635.643 767.567 636.659 767.569C637.675 767.571 638.52 768.419 638.518 769.435C638.516 770.451 637.668 771.296 636.652 771.294C635.637 771.292 634.791 770.444 634.793 769.428Z" fill="#F4F4F4"/>
<path opacity="0.4" d="M993.069 760.567C993.075 757.18 995.789 754.307 999.344 754.313C1002.73 754.319 1005.6 757.033 1005.6 760.588C1005.59 763.975 1002.88 766.848 999.323 766.842C995.767 766.836 993.063 763.953 993.069 760.567Z" fill="#F4F4F4"/>
<path opacity="0.4" d="M144.94 791.607C144.946 788.221 147.829 785.348 151.215 785.354C154.601 785.359 157.475 788.243 157.469 791.629C157.463 795.015 154.58 797.888 151.193 797.883C147.807 797.877 144.934 794.993 144.94 791.607Z" fill="#F4F4F4"/>
<path opacity="0.4" d="M684.377 783.398C684.38 781.705 685.736 780.522 687.26 780.525C688.953 780.528 690.136 781.884 690.134 783.408C690.131 785.101 688.774 786.284 687.25 786.281C685.557 786.278 684.374 784.922 684.377 783.398Z" fill="#F4F4F4"/>
<path opacity="0.4" d="M1032.68 767.239C1032.68 764.191 1035.23 761.656 1038.27 761.661C1041.32 761.666 1043.86 764.21 1043.85 767.258C1043.85 770.306 1041.3 772.841 1038.25 772.836C1035.04 772.83 1032.67 770.286 1032.68 767.239Z" fill="#F4F4F4"/>
<path opacity="0.4" d="M205.907 782.909C205.913 779.184 208.966 776.141 212.691 776.148C216.416 776.154 219.458 779.207 219.451 782.932C219.445 786.657 216.392 789.699 212.667 789.693C208.942 789.856 205.9 786.803 205.907 782.909Z" fill="#F4F4F4"/>
<path opacity="0.4" d="M725.034 770.431C725.036 769.246 726.053 768.232 727.239 768.234C728.424 768.236 729.438 769.254 729.436 770.439C729.434 771.624 728.416 772.638 727.231 772.636C726.046 772.634 725.032 771.616 725.034 770.431Z" fill="#F4F4F4"/>
<path opacity="0.4" d="M1110.23 760.77C1110.23 759.415 1111.25 758.401 1112.61 758.403C1113.96 758.406 1114.97 759.423 1114.97 760.778C1114.97 762.132 1113.95 763.146 1112.6 763.144C1111.24 763.311 1110.23 762.124 1110.23 760.77Z" fill="#F4F4F4"/>
<path opacity="0.4" d="M263.477 780.13C263.479 778.776 264.666 777.593 266.021 777.595C267.375 777.597 268.559 778.785 268.556 780.139C268.554 781.494 267.367 782.677 266.012 782.674C264.658 782.672 263.474 781.654 263.477 780.13Z" fill="#F4F4F4"/>
<path opacity="0.4" d="M785.325 760.715C785.329 758.514 787.025 756.824 789.226 756.828C791.427 756.832 793.117 758.528 793.113 760.729C793.109 762.93 791.413 764.62 789.212 764.616C787.181 764.613 785.321 762.916 785.325 760.715Z" fill="#F4F4F4"/>
<path opacity="0.4" d="M1148.95 789.958C1148.96 788.773 1149.97 787.928 1150.99 787.93C1152.17 787.932 1153.02 788.949 1153.02 789.965C1153.01 791.15 1152 791.995 1150.98 791.993C1149.97 791.991 1148.95 791.143 1148.95 789.958Z" fill="#F4F4F4"/>
<path opacity="0.4" d="M323.075 779.725C323.08 777.016 325.285 774.819 327.993 774.824C330.702 774.828 332.9 777.033 332.895 779.742C332.89 782.451 330.685 784.648 327.976 784.644C325.268 784.639 323.07 782.434 323.075 779.725Z" fill="#F4F4F4"/>
<path opacity="0.4" d="M828.798 783.817C828.8 782.462 829.818 781.448 831.173 781.451C832.527 781.453 833.541 782.471 833.539 783.825C833.537 785.18 832.519 786.194 831.164 786.191C829.81 786.189 828.796 785.171 828.798 783.817Z" fill="#F4F4F4"/>
<path opacity="0.4" d="M1209.08 776.517C1209.09 773.978 1211.12 771.78 1213.83 771.785C1216.37 771.789 1218.57 773.825 1218.56 776.534C1218.56 779.073 1216.52 781.271 1213.81 781.266C1211.11 781.261 1209.08 779.057 1209.08 776.517Z" fill="#F4F4F4"/>
<path opacity="0.4" d="M-4.67302 758.502C-4.67067 757.148 -3.65312 756.134 -2.29864 756.136C-0.94416 756.139 0.0699829 757.156 0.0676397 758.511C0.0652966 759.865 -0.952361 760.879 -2.30684 760.877C-3.66132 760.875 -4.67536 759.857 -4.67302 758.502Z" fill="#F4F4F4"/>
<path opacity="0.4" d="M896.88 772.93C896.884 770.559 898.919 768.531 901.289 768.535C903.66 768.539 905.688 770.574 905.684 772.945C905.68 775.315 903.644 777.343 901.274 777.339C898.904 777.166 896.875 775.3 896.88 772.93Z" fill="#F4F4F4"/>
<path opacity="0.4" d="M1261.58 768.312C1261.59 766.111 1263.45 764.252 1265.65 764.256C1267.85 764.259 1269.71 766.125 1269.71 768.326C1269.71 770.527 1267.84 772.386 1265.64 772.382C1263.44 772.379 1261.58 770.513 1261.58 768.312Z" fill="#F4F4F4"/>
<path opacity="0.4" d="M53.1299 33.9542C53.1337 31.7532 54.9994 29.894 57.2004 29.8978C59.4014 29.9016 61.2605 31.7672 61.2567 33.9682C61.2529 36.1693 59.3873 38.0285 57.1863 38.0246C54.816 38.0205 53.1261 36.1552 53.1299 33.9542Z" fill="#F4F4F4"/>
<path opacity="0.4" d="M365.21 9.9439C365.217 5.88046 368.44 2.66914 372.503 2.67617C376.398 2.68291 379.778 5.90565 379.771 9.96909C379.764 13.8632 376.542 17.2438 372.478 17.2368C368.415 17.0605 365.204 13.838 365.21 9.9439Z" fill="#F4F4F4"/>
<path opacity="0.4" d="M408.17 36.2614C408.174 33.5525 410.379 31.3552 413.088 31.3599C415.797 31.3646 417.994 33.5695 417.99 36.2784C417.985 38.9874 415.78 41.1846 413.071 41.1799C410.362 41.1752 408.165 38.9704 408.17 36.2614Z" fill="#F4F4F4"/>
<path opacity="0.4" d="M483.886 16.4135C483.89 14.0432 485.755 12.184 488.126 12.1881C490.496 12.1922 492.355 14.0578 492.351 16.4282C492.347 18.7985 490.481 20.6577 488.111 20.6536C485.741 20.6495 483.882 18.7839 483.886 16.4135Z" fill="#F4F4F4"/>
<path opacity="0.4" d="M533.986 25.1351C533.989 23.442 535.346 22.0899 537.039 22.0928C538.732 22.0957 540.085 23.4525 540.082 25.1456C540.079 26.8387 538.722 28.1909 537.029 28.188C535.336 28.185 533.983 26.8282 533.986 25.1351Z" fill="#F4F4F4"/>
<path opacity="0.4" d="M584.596 33.5186C584.601 30.6404 586.806 28.4431 589.684 28.4481C592.562 28.4531 594.759 30.6579 594.754 33.5362C594.749 36.4145 592.544 38.6117 589.666 38.6067C586.957 38.602 584.591 36.2276 584.596 33.5186Z" fill="#F4F4F4"/>
<path opacity="0.4" d="M952.549 9.09752C952.557 4.86477 955.949 1.65375 960.012 1.66078C964.245 1.6681 967.456 5.05986 967.449 9.1233C967.442 13.356 964.05 16.5671 959.986 16.56C955.923 16.7223 952.542 13.3303 952.549 9.09752Z" fill="#F4F4F4"/>
<path opacity="0.4" d="M103.958 13.7247C103.965 9.83054 107.187 6.61921 111.081 6.62595C114.975 6.63269 118.187 9.85514 118.18 13.7493C118.173 17.6434 114.951 20.8547 111.057 20.848C106.993 20.8409 103.951 17.6188 103.958 13.7247Z" fill="#F4F4F4"/>
<path opacity="0.4" d="M633.547 21.5826C633.552 18.8736 635.757 16.6764 638.466 16.6811C641.175 16.6858 643.372 18.8906 643.367 21.5996C643.363 24.3085 641.158 26.5058 638.449 26.5011C635.74 26.4964 633.542 24.2916 633.547 21.5826Z" fill="#F4F4F4"/>
<path opacity="0.4" d="M1000.07 40.8408C1000.08 38.1318 1002.28 36.1039 1004.82 36.1083C1007.53 36.113 1009.56 38.3175 1009.55 40.8572C1009.55 43.5661 1007.34 45.594 1004.8 45.5897C1002.26 45.5853 1000.07 43.3804 1000.07 40.8408Z" fill="#F4F4F4"/>
<path opacity="0.4" d="M170.619 40.7605C170.622 39.5754 171.639 38.5613 172.824 38.5633C174.009 38.5654 175.024 39.583 175.021 40.7682C175.019 41.9533 174.002 42.9674 172.817 42.9654C171.632 42.9633 170.617 41.9457 170.619 40.7605Z" fill="#F4F4F4"/>
<path opacity="0.4" d="M680.949 24.5431C680.951 23.5272 681.798 22.8514 682.645 22.8529C683.661 22.8547 684.337 23.5331 684.335 24.5489C684.333 25.5648 683.655 26.2409 682.639 26.2391C681.793 26.2376 680.947 25.5589 680.949 24.5431Z" fill="#F4F4F4"/>
<path opacity="0.4" d="M1039.71 28.5497C1039.71 26.6873 1041.24 25.1661 1043.1 25.1694C1044.97 25.1726 1046.49 26.699 1046.48 28.5614C1046.48 30.4238 1044.95 31.945 1043.09 31.9418C1041.23 31.7692 1039.71 30.2428 1039.71 28.5497Z" fill="#F4F4F4"/>
<path opacity="0.4" d="M199.604 21.8479C199.607 20.3241 200.794 19.141 202.318 19.1436C203.842 19.1462 205.025 20.3335 205.022 21.8572C205.02 23.381 203.832 24.5642 202.309 24.5615C200.785 24.5589 199.602 23.3717 199.604 21.8479Z" fill="#F4F4F4"/>
<path opacity="0.4" d="M736.483 24.6392C736.485 23.1154 737.842 21.7633 739.366 21.7659C740.89 21.7685 742.242 23.1254 742.239 24.6491C742.237 26.1729 740.88 27.5251 739.356 27.5224C737.832 27.5198 736.48 26.163 736.483 24.6392Z" fill="#F4F4F4"/>
<path opacity="0.4" d="M1109.99 20.0363C1109.99 18.5125 1111.18 17.3294 1112.7 17.332C1114.23 17.3347 1115.41 18.5219 1115.41 20.0457C1115.4 21.5694 1114.22 22.7526 1112.69 22.7499C1111.17 22.7473 1109.99 21.5601 1109.99 20.0363Z" fill="#F4F4F4"/>
<path opacity="0.4" d="M272.239 21.6347C272.24 20.7882 272.919 19.9428 273.935 19.9446C274.781 19.946 275.627 20.6247 275.625 21.6406C275.624 22.4872 274.945 23.3325 273.929 23.3308C272.913 23.329 272.237 22.4813 272.239 21.6347Z" fill="#F4F4F4"/>
<path opacity="0.4" d="M775.587 28.4315C775.592 25.0453 778.306 22.1717 781.862 22.1778C785.248 22.1837 788.122 24.8976 788.116 28.4531C788.11 31.8393 785.396 34.7129 781.84 34.7068C778.285 34.5313 775.581 31.8177 775.587 28.4315Z" fill="#F4F4F4"/>
<path opacity="0.4" d="M1143.33 29.745C1143.33 27.3746 1145.2 25.5154 1147.57 25.5195C1149.94 25.5236 1151.8 27.3893 1151.79 29.7596C1151.79 32.1299 1149.92 33.9891 1147.55 33.985C1145.18 34.1502 1143.32 32.1153 1143.33 29.745Z" fill="#F4F4F4"/>
<path opacity="0.4" d="M322.167 32.0489C322.172 29.5093 324.207 27.4811 326.747 27.4854C329.286 27.4898 331.314 29.5251 331.31 32.0647C331.306 34.6044 329.27 36.6326 326.731 36.6282C324.191 36.6238 322.163 34.5886 322.167 32.0489Z" fill="#F4F4F4"/>
<path opacity="0.4" d="M827.413 18.5317C827.419 15.1455 830.132 12.4412 833.519 12.4471C836.905 12.4529 839.609 15.1666 839.603 18.5528C839.597 21.939 836.884 24.6432 833.497 24.6374C830.111 24.8008 827.407 21.9179 827.413 18.5317Z" fill="#F4F4F4"/>
<path opacity="0.4" d="M1201.07 24.088C1201.08 21.5484 1203.11 19.5202 1205.65 19.5246C1208.19 19.529 1210.22 21.5642 1210.21 24.1038C1210.21 26.6435 1208.17 28.6717 1205.63 28.6673C1203.1 28.6629 1201.07 26.6277 1201.07 24.088Z" fill="#F4F4F4"/>
<path opacity="0.4" d="M7.45364 12.2032C7.46038 8.30905 10.6829 5.09773 14.577 5.10446C18.4711 5.1112 21.6824 8.33365 21.6757 12.2278C21.669 16.1219 18.4465 19.3332 14.5524 19.3265C10.6582 19.3198 7.4469 16.0973 7.45364 12.2032Z" fill="#F4F4F4"/>
<path opacity="0.4" d="M892.743 32.3591C892.748 29.4808 895.122 27.1146 898 27.1196C900.879 27.1245 903.076 29.4987 903.071 32.3769C903.066 35.2552 900.691 37.6215 897.982 37.6168C895.104 37.6118 892.738 35.2373 892.743 32.3591Z" fill="#F4F4F4"/>
<path opacity="0.4" d="M1267.27 23.3563C1267.28 20.478 1269.65 18.1118 1272.53 18.1167C1275.41 18.1217 1277.78 20.4962 1277.77 23.3744C1277.77 26.2527 1275.39 28.6189 1272.51 28.614C1269.63 28.609 1267.27 26.2345 1267.27 23.3563Z" fill="#F4F4F4"/>
<path opacity="0.4" d="M54.755 73.2368C54.7599 70.3585 57.1344 67.9923 60.0127 67.9972C62.891 68.0022 65.2572 70.3767 65.2522 73.2549C65.2472 76.1332 62.8728 78.4994 59.9945 78.4945C57.1163 78.4895 54.75 76.115 54.755 73.2368Z" fill="#F4F4F4"/>
<path opacity="0.4" d="M354.949 69.1843C354.953 66.814 356.989 64.7858 359.359 64.7899C361.729 64.794 363.758 66.8292 363.753 69.1996C363.749 71.5699 361.714 73.5981 359.344 73.594C356.974 73.5899 354.945 71.5547 354.949 69.1843Z" fill="#F4F4F4"/>
<path opacity="0.4" d="M433.655 83.0353C433.659 80.665 435.524 78.8058 437.895 78.8099C440.265 78.814 442.124 80.6796 442.12 83.0499C442.116 85.4203 440.25 87.2795 437.88 87.2754C435.51 87.2713 433.651 85.2363 433.655 83.0353Z" fill="#F4F4F4"/>
<path opacity="0.4" d="M470.569 80.2207C470.576 76.1573 473.799 72.9459 477.862 72.953C481.926 72.96 485.137 76.1824 485.13 80.2459C485.123 84.3093 481.9 87.5206 477.837 87.5136C473.943 87.3376 470.563 84.1148 470.569 80.2207Z" fill="#F4F4F4"/>
<path opacity="0.4" d="M516.276 84.0248C516.279 82.6703 517.466 81.4872 518.82 81.4896C520.175 81.4919 521.358 82.6791 521.356 84.0336C521.353 85.3881 520.166 86.5712 518.812 86.5689C517.288 86.3969 516.274 85.3793 516.276 84.0248Z" fill="#F4F4F4"/>
<path opacity="0.4" d="M578.754 82.6088C578.761 78.884 581.813 76.011 585.369 76.0172C589.094 76.0236 591.967 79.0762 591.96 82.6317C591.954 86.3565 588.902 89.2295 585.346 89.2233C581.621 89.2169 578.748 86.1643 578.754 82.6088Z" fill="#F4F4F4"/>
<path opacity="0.4" d="M940.723 92.0391C940.728 89.6688 942.593 87.6403 945.133 87.6447C947.503 87.6488 949.532 89.5147 949.528 92.0544C949.524 94.4247 947.658 96.4532 945.118 96.4488C942.748 96.4447 940.719 94.4095 940.723 92.0391Z" fill="#F4F4F4"/>
<path opacity="0.4" d="M95.5284 90.9154C95.5305 89.7302 96.5483 88.5468 97.9028 88.5491C99.088 88.5512 100.271 89.5691 100.269 90.9236C100.267 92.1087 99.2491 93.2922 97.8946 93.2898C96.5401 93.2875 95.5261 92.2699 95.5284 90.9154Z" fill="#F4F4F4"/>
<path opacity="0.4" d="M635.99 77.4596C635.993 75.5972 637.52 74.076 639.382 74.0792C641.245 74.0824 642.766 75.6089 642.763 77.4713C642.759 79.3337 641.233 80.8548 639.37 80.8516C637.339 80.8481 635.987 79.322 635.99 77.4596Z" fill="#F4F4F4"/>
<path opacity="0.4" d="M996.61 84.178C996.616 80.4532 999.669 77.4109 1003.39 77.4174C1007.12 77.4238 1010.16 80.4766 1010.15 84.2015C1010.15 87.9263 1007.1 90.9686 1003.37 90.9621C999.645 90.9557 996.603 87.9029 996.61 84.178Z" fill="#F4F4F4"/>
<path opacity="0.4" d="M144.301 84.5665C144.306 81.1803 147.02 78.3067 150.576 78.3128C153.962 78.3187 156.836 81.0326 156.829 84.5881C156.824 87.9743 154.11 90.8479 150.554 90.8418C147.168 90.8359 144.294 88.122 144.301 84.5665Z" fill="#F4F4F4"/>
<path opacity="0.4" d="M681.728 63.8242C681.733 60.7766 684.277 58.2414 687.324 58.2467C690.372 58.2519 692.907 60.796 692.902 63.8436C692.897 66.8911 690.353 69.4264 687.305 69.4211C684.258 69.4158 681.722 66.8718 681.728 63.8242Z" fill="#F4F4F4"/>
<path opacity="0.4" d="M1051.12 86.1348C1051.13 82.2407 1054.18 79.1984 1058.08 79.2051C1061.97 79.2119 1065.01 82.2647 1065.01 86.1588C1065 90.053 1061.95 93.0953 1058.05 93.0885C1054.16 92.9125 1051.12 89.8596 1051.12 86.1348Z" fill="#F4F4F4"/>
<path opacity="0.4" d="M201.864 85.6815C201.868 83.4805 203.734 81.6213 205.935 81.6251C208.136 81.6289 209.995 83.4945 209.991 85.6955C209.987 87.8966 208.122 89.7558 205.921 89.7519C203.55 89.7478 201.86 87.8825 201.864 85.6815Z" fill="#F4F4F4"/>
<path opacity="0.4" d="M732.007 67.2975C732.013 63.9113 734.726 61.207 738.113 61.2129C741.499 61.2187 744.203 63.9324 744.197 67.3186C744.191 70.7048 741.478 73.409 738.092 73.4032C734.705 73.3973 732.001 70.6837 732.007 67.2975Z" fill="#F4F4F4"/>
<path opacity="0.4" d="M1101.76 76.7411C1101.77 73.3549 1104.48 70.4813 1108.04 70.4875C1111.43 70.4933 1114.3 73.2073 1114.29 76.7628C1114.29 80.149 1111.57 83.0225 1108.02 83.0164C1104.63 83.0105 1101.76 80.2966 1101.76 76.7411Z" fill="#F4F4F4"/>
<path opacity="0.4" d="M265.879 76.9887C265.881 75.8035 266.898 74.7894 268.083 74.7915C269.269 74.7935 270.283 75.8111 270.281 76.9963C270.278 78.1815 269.261 79.1956 268.076 79.1935C266.891 79.0222 265.876 78.1739 265.879 76.9887Z" fill="#F4F4F4"/>
<path opacity="0.4" d="M789.226 71.9675C789.23 69.2585 791.435 67.2306 793.975 67.235C796.683 67.2397 798.711 69.4442 798.707 71.9839C798.702 74.6928 796.498 76.7207 793.958 76.7164C791.249 76.881 789.221 74.6764 789.226 71.9675Z" fill="#F4F4F4"/>
<path opacity="0.4" d="M1137.67 67.4915C1137.68 63.9359 1140.56 61.0627 1144.12 61.0688C1147.67 61.075 1150.55 63.9582 1150.54 67.5137C1150.54 71.0692 1147.65 73.9425 1144.1 73.9364C1140.71 73.9305 1137.67 71.047 1137.67 67.4915Z" fill="#F4F4F4"/>
<path opacity="0.4" d="M305.145 84.5059C305.152 80.6117 308.205 77.5694 312.099 77.5762C315.993 77.5829 319.036 80.6357 319.029 84.5299C319.022 88.424 315.969 91.4663 312.075 91.4596C308.35 91.4531 305.139 88.4 305.145 84.5059Z" fill="#F4F4F4"/>
<path opacity="0.4" d="M828.642 91.1681C828.643 90.3216 829.322 89.6455 830.168 89.647C831.015 89.6484 831.691 90.3269 831.689 91.1734C831.688 92.02 831.009 92.696 830.163 92.6946C829.316 92.6931 828.64 92.0147 828.642 91.1681Z" fill="#F4F4F4"/>
<path opacity="0.4" d="M1211.14 78.7927C1211.14 75.4065 1214.02 72.5332 1217.41 72.539C1220.8 72.5449 1223.67 75.2588 1223.66 78.8143C1223.66 82.2005 1220.78 85.0738 1217.39 85.068C1214 85.0621 1211.13 82.3482 1211.14 78.7927Z" fill="#F4F4F4"/>
<path opacity="0.4" d="M12.5764 85.0157C12.5808 82.4761 14.616 80.4479 17.1556 80.4522C19.6953 80.4566 21.7235 82.4919 21.7191 85.0315C21.7147 87.5712 19.6795 89.5994 17.1398 89.595C14.6002 89.5906 12.572 87.5554 12.5764 85.0157Z" fill="#F4F4F4"/>
<path opacity="0.4" d="M889.272 81.4529C889.278 77.8974 892.161 75.1934 895.547 75.1993C899.102 75.2054 901.806 78.0884 901.8 81.4746C901.794 85.0301 898.911 87.734 895.525 87.7282C892.139 87.7223 889.266 84.8391 889.272 81.4529Z" fill="#F4F4F4"/>
<path opacity="0.4" d="M1261.41 85.1441C1261.41 82.0965 1263.96 79.5613 1267.01 79.5666C1270.05 79.5718 1272.59 82.1159 1272.58 85.1634C1272.58 88.211 1270.03 90.7463 1266.99 90.741C1263.94 90.7357 1261.4 88.1917 1261.41 85.1441Z" fill="#F4F4F4"/>
<path opacity="0.4" d="M68.7243 121.514C68.7258 120.668 69.4045 119.822 70.4203 119.824C71.2669 119.826 72.1123 120.504 72.1105 121.52C72.1087 122.536 71.4303 123.212 70.4145 123.21C69.5679 123.209 68.7225 122.53 68.7243 121.514Z" fill="#F4F4F4"/>
<path opacity="0.4" d="M359.456 106.779C359.462 102.885 362.685 99.674 366.579 99.6808C370.473 99.6875 373.684 102.91 373.678 106.804C373.671 110.698 370.449 113.91 366.554 113.903C362.66 113.896 359.449 110.674 359.456 106.779Z" fill="#F4F4F4"/>
<path opacity="0.4" d="M412.271 112.289C412.274 110.596 413.631 109.244 415.324 109.247C417.017 109.25 418.369 110.607 418.366 112.3C418.363 113.993 417.006 115.345 415.313 115.342C413.62 115.339 412.268 113.982 412.271 112.289Z" fill="#F4F4F4"/>
<path opacity="0.4" d="M472.347 129.324C472.352 126.276 474.896 123.741 477.943 123.746C480.991 123.751 483.526 126.295 483.521 129.343C483.516 132.391 480.972 134.926 477.924 134.921C474.876 134.915 472.341 132.371 472.347 129.324Z" fill="#F4F4F4"/>
<path opacity="0.4" d="M532.949 135.523C532.955 132.137 535.669 129.433 539.055 129.439C542.441 129.445 545.145 132.158 545.139 135.545C545.134 138.931 542.42 141.635 539.034 141.629C535.648 141.623 532.943 138.91 532.949 135.523Z" fill="#F4F4F4"/>
<path opacity="0.4" d="M576.972 133.907C576.978 130.859 579.352 128.493 582.4 128.498C585.447 128.504 587.814 130.878 587.808 133.926C587.803 136.973 585.429 139.339 582.381 139.334C579.333 139.329 576.967 136.954 576.972 133.907Z" fill="#F4F4F4"/>
<path opacity="0.4" d="M950.503 115.421C950.505 114.236 951.523 113.222 952.708 113.224C953.893 113.226 954.907 114.243 954.905 115.429C954.903 116.614 953.886 117.628 952.7 117.626C951.515 117.624 950.501 116.606 950.503 115.421Z" fill="#F4F4F4"/>
<path opacity="0.4" d="M103.609 117.511C103.611 116.665 104.289 115.989 105.136 115.99C105.982 115.992 106.658 116.67 106.657 117.517C106.655 118.363 105.977 119.039 105.13 119.038C104.283 119.206 103.608 118.358 103.609 117.511Z" fill="#F4F4F4"/>
<path opacity="0.4" d="M644.196 129.452C644.199 127.928 645.386 126.745 646.91 126.747C648.434 126.75 649.617 127.937 649.614 129.461C649.612 130.985 648.424 132.168 646.9 132.165C645.377 132.163 644.194 130.975 644.196 129.452Z" fill="#F4F4F4"/>
<path opacity="0.4" d="M987.241 116.67C987.247 113.114 990.131 110.241 993.686 110.247C997.242 110.253 1000.11 113.137 1000.11 116.692C1000.1 120.248 997.22 123.121 993.664 123.115C990.109 123.109 987.235 120.225 987.241 116.67Z" fill="#F4F4F4"/>
<path opacity="0.4" d="M161.144 135.388C161.15 131.664 164.203 128.452 168.097 128.459C171.822 128.465 175.034 131.518 175.027 135.412C175.021 139.137 171.968 142.349 168.073 142.342C164.179 142.335 161.137 139.283 161.144 135.388Z" fill="#F4F4F4"/>
<path opacity="0.4" d="M675.047 108.849C675.052 105.801 677.596 103.266 680.644 103.271C683.691 103.277 686.226 105.821 686.221 108.868C686.216 111.916 683.672 114.451 680.624 114.446C677.577 114.441 675.041 112.066 675.047 108.849Z" fill="#F4F4F4"/>
<path opacity="0.4" d="M1043.78 121.677C1043.78 120.492 1044.8 119.478 1045.99 119.48C1047.17 119.482 1048.19 120.5 1048.18 121.685C1048.18 122.87 1047.16 123.884 1045.98 123.882C1044.79 123.88 1043.78 123.032 1043.78 121.677Z" fill="#F4F4F4"/>
<path opacity="0.4" d="M220.441 113.142C220.447 109.587 223.33 106.713 226.886 106.719C230.441 106.726 233.314 109.609 233.308 113.164C233.302 116.72 230.419 119.593 226.863 119.587C223.308 119.581 220.435 116.698 220.441 113.142Z" fill="#F4F4F4"/>
<path opacity="0.4" d="M740.36 132.158C740.363 130.465 741.72 128.943 743.583 128.947C745.276 128.95 746.797 130.307 746.794 132.169C746.791 133.862 745.434 135.384 743.572 135.38C741.709 135.377 740.357 133.851 740.36 132.158Z" fill="#F4F4F4"/>
<path opacity="0.4" d="M1092.2 124.809C1092.2 123.285 1093.56 121.933 1095.08 121.936C1096.61 121.938 1097.96 123.295 1097.96 124.819C1097.95 126.343 1096.6 127.695 1095.07 127.692C1093.38 127.689 1092.2 126.502 1092.2 124.809Z" fill="#F4F4F4"/>
<path opacity="0.4" d="M248.891 109.805C248.897 105.911 252.12 102.53 256.184 102.537C260.078 102.544 263.289 105.766 263.282 109.83C263.275 113.724 260.052 117.105 256.158 117.098C252.095 116.921 248.884 113.699 248.891 109.805Z" fill="#F4F4F4"/>
<path opacity="0.4" d="M782.718 114.792C782.722 112.591 784.587 110.901 786.619 110.905C788.82 110.909 790.51 112.774 790.506 114.806C790.502 117.007 788.806 118.697 786.605 118.693C784.573 118.689 782.714 116.824 782.718 114.792Z" fill="#F4F4F4"/>
<path opacity="0.4" d="M1146.87 137.263C1146.87 135.401 1148.4 133.71 1150.43 133.714C1152.29 133.717 1153.98 135.244 1153.98 137.276C1153.97 139.138 1152.45 140.828 1150.41 140.825C1148.55 140.822 1146.86 139.126 1146.87 137.263Z" fill="#F4F4F4"/>
<path opacity="0.4" d="M322.175 125.339C322.182 121.615 325.234 118.742 328.79 118.748C332.515 118.754 335.387 121.807 335.381 125.362C335.375 129.087 332.322 131.96 328.767 131.954C325.211 131.948 322.169 129.064 322.175 125.339Z" fill="#F4F4F4"/>
<path opacity="0.4" d="M845.374 108.297C845.38 104.911 848.094 102.038 851.649 102.044C855.205 102.05 857.909 104.764 857.903 108.319C857.897 111.705 855.183 114.579 851.628 114.573C848.072 114.567 845.368 111.684 845.374 108.297Z" fill="#F4F4F4"/>
<path opacity="0.4" d="M1192.43 124.643C1192.44 122.612 1194.13 120.922 1196.16 120.925C1198.19 120.929 1199.88 122.625 1199.88 124.656C1199.88 126.688 1198.18 128.378 1196.15 128.375C1194.12 128.371 1192.43 126.675 1192.43 124.643Z" fill="#F4F4F4"/>
<path opacity="0.4" d="M-4.43591 132.054C-4.43298 130.361 -3.07618 129.009 -1.38308 129.012C0.310022 129.015 1.66214 130.372 1.65921 132.065C1.65628 133.758 0.299478 135.11 -1.39362 135.107C-3.08672 135.104 -4.43883 133.747 -4.43591 132.054Z" fill="#F4F4F4"/>
<path opacity="0.4" d="M882.62 109.378C882.626 106.33 885 103.964 888.047 103.969C891.095 103.974 893.461 106.349 893.456 109.396C893.451 112.444 891.076 114.81 888.029 114.805C884.981 114.8 882.615 112.256 882.62 109.378Z" fill="#F4F4F4"/>
<path opacity="0.4" d="M1257.92 142.026C1257.93 141.18 1258.6 140.504 1259.45 140.505C1260.3 140.507 1260.97 141.185 1260.97 142.032C1260.97 142.878 1260.29 143.554 1259.45 143.553C1258.6 143.721 1257.92 142.873 1257.92 142.026Z" fill="#F4F4F4"/>
<path opacity="0.4" d="M54.4279 164.495C54.432 162.124 56.2979 160.096 58.8376 160.1C61.2079 160.104 63.2365 161.97 63.2321 164.51C63.228 166.88 61.362 168.909 58.8223 168.904C56.2827 168.9 54.4235 167.034 54.4279 164.495Z" fill="#F4F4F4"/>
<path opacity="0.4" d="M365.913 191.107C365.917 188.567 367.953 186.37 370.662 186.375C373.201 186.379 375.399 188.414 375.394 191.123C375.39 193.663 373.354 195.861 370.645 195.856C368.106 195.851 365.909 193.647 365.913 191.107Z" fill="#F4F4F4"/>
<path opacity="0.4" d="M432.485 171.921C432.487 170.567 433.675 169.384 435.029 169.386C436.384 169.388 437.567 170.575 437.564 171.93C437.562 173.284 436.375 174.468 435.02 174.465C433.666 174.463 432.483 173.276 432.485 171.921Z" fill="#F4F4F4"/>
<path opacity="0.4" d="M480.036 186.394C480.039 184.701 481.396 183.18 483.259 183.183C484.952 183.186 486.473 184.543 486.47 186.406C486.467 188.099 485.11 189.62 483.248 189.617C481.555 189.614 480.033 188.088 480.036 186.394Z" fill="#F4F4F4"/>
<path opacity="0.4" d="M532.906 160.582C532.909 158.55 534.605 156.86 536.637 156.863C538.669 156.867 540.359 158.563 540.355 160.594C540.352 162.626 538.656 164.316 536.624 164.313C534.423 164.14 532.902 162.613 532.906 160.582Z" fill="#F4F4F4"/>
<path opacity="0.4" d="M570.115 182.995C570.12 179.947 572.495 177.581 575.542 177.586C578.59 177.592 580.956 179.966 580.951 183.014C580.946 186.061 578.571 188.427 575.524 188.422C572.476 188.417 570.11 186.042 570.115 182.995Z" fill="#F4F4F4"/>
<path opacity="0.4" d="M950.039 187.885C950.045 184.499 952.759 181.795 956.145 181.801C959.531 181.806 962.235 184.52 962.229 187.906C962.224 191.292 959.51 193.997 956.124 193.991C952.738 193.985 950.033 191.271 950.039 187.885Z" fill="#F4F4F4"/>
<path opacity="0.4" d="M105.686 189.303C105.688 188.117 106.536 187.272 107.721 187.274C108.906 187.276 109.751 188.124 109.749 189.31C109.747 190.495 108.899 191.34 107.714 191.338C106.529 191.336 105.684 190.488 105.686 189.303Z" fill="#F4F4F4"/>
<path opacity="0.4" d="M637.841 181.757C637.847 178.71 640.221 176.344 643.269 176.349C646.316 176.354 648.683 178.729 648.677 181.776C648.672 184.824 646.298 187.19 643.25 187.185C640.372 187.18 637.836 184.805 637.841 181.757Z" fill="#F4F4F4"/>
<path opacity="0.4" d="M980.512 189.631C980.519 185.567 983.911 182.187 987.975 182.194C992.038 182.201 995.418 185.593 995.411 189.656C995.404 193.72 992.012 197.1 987.949 197.093C983.885 197.086 980.505 193.694 980.512 189.631Z" fill="#F4F4F4"/>
<path opacity="0.4" d="M148.189 185.82C148.193 183.45 150.228 181.422 152.599 181.426C154.969 181.43 156.997 183.465 156.993 185.836C156.989 188.375 154.954 190.234 152.584 190.23C150.213 190.226 148.185 188.36 148.189 185.82Z" fill="#F4F4F4"/>
<path opacity="0.4" d="M688.331 161.528C688.334 159.496 690.03 157.975 691.893 157.978C693.924 157.982 695.445 159.678 695.442 161.54C695.438 163.572 693.743 165.093 691.88 165.089C690.018 165.086 688.328 163.39 688.331 161.528Z" fill="#F4F4F4"/>
<path opacity="0.4" d="M1047.41 177.556C1047.42 173.493 1050.81 170.112 1054.87 170.119C1058.94 170.126 1062.32 173.518 1062.31 177.582C1062.3 181.645 1058.91 185.026 1054.85 185.019C1050.78 184.842 1047.4 181.62 1047.41 177.556Z" fill="#F4F4F4"/>
<path opacity="0.4" d="M209.324 177.461C209.331 173.736 212.384 170.694 216.109 170.7C219.833 170.707 222.876 173.76 222.869 177.484C222.863 181.209 219.81 184.251 216.085 184.245C212.53 184.239 209.318 181.186 209.324 177.461Z" fill="#F4F4F4"/>
<path opacity="0.4" d="M734.872 172.783C734.877 169.566 737.422 167.031 740.638 167.036C743.855 167.042 746.391 169.586 746.385 172.803C746.379 176.019 743.835 178.555 740.618 178.549C737.401 178.713 734.866 176 734.872 172.783Z" fill="#F4F4F4"/>
<path opacity="0.4" d="M1087.38 173.054C1087.38 169.499 1090.26 166.795 1093.65 166.801C1097.21 166.807 1099.91 169.69 1099.9 173.076C1099.9 176.631 1097.02 179.335 1093.63 179.33C1090.24 179.324 1087.37 176.44 1087.38 173.054Z" fill="#F4F4F4"/>
<path opacity="0.4" d="M250.824 167.035C250.827 165.004 252.523 163.313 254.555 163.317C256.587 163.32 258.277 165.016 258.273 167.048C258.27 169.08 256.574 170.77 254.542 170.766C252.51 170.763 250.82 169.067 250.824 167.035Z" fill="#F4F4F4"/>
<path opacity="0.4" d="M793.624 172.207C793.631 168.144 797.023 164.763 801.086 164.771C805.15 164.778 808.53 168.17 808.523 172.233C808.516 176.296 805.124 179.677 801.061 179.67C796.997 179.663 793.617 176.271 793.624 172.207Z" fill="#F4F4F4"/>
<path opacity="0.4" d="M1152.37 182.987C1152.38 179.77 1155.09 177.065 1158.31 177.071C1161.53 177.076 1164.23 179.79 1164.23 183.007C1164.22 186.224 1161.51 188.928 1158.29 188.923C1155.07 188.917 1152.37 186.373 1152.37 182.987Z" fill="#F4F4F4"/>
<path opacity="0.4" d="M306.511 176.105C306.516 173.396 308.721 171.199 311.429 171.203C314.138 171.208 316.336 173.413 316.331 176.122C316.326 178.831 314.121 181.028 311.413 181.023C308.704 181.019 306.506 178.814 306.511 176.105Z" fill="#F4F4F4"/>
<path opacity="0.4" d="M845.099 169.249C845.104 166.371 847.479 163.835 850.527 163.84C853.405 163.845 855.94 166.22 855.935 169.268C855.93 172.146 853.555 174.681 850.508 174.676C847.461 174.502 845.094 172.127 845.099 169.249Z" fill="#F4F4F4"/>
<path opacity="0.4" d="M1195.05 178.828C1195.05 176.457 1196.92 174.598 1199.29 174.602C1201.66 174.606 1203.52 176.472 1203.51 178.842C1203.51 181.213 1201.64 183.072 1199.27 183.068C1197.07 183.064 1195.04 181.198 1195.05 178.828Z" fill="#F4F4F4"/>
<path opacity="0.4" d="M3.59749 186.078C3.60159 183.708 5.63678 181.68 8.00712 181.684C10.3775 181.688 12.4057 183.723 12.4016 186.093C12.3975 188.464 10.3622 190.492 7.99189 190.488C5.45253 190.314 3.59339 188.448 3.59749 186.078Z" fill="#F4F4F4"/>
<path opacity="0.4" d="M894.529 174.413C894.53 173.567 895.209 172.722 896.225 172.723C897.071 172.725 897.917 173.403 897.915 174.419C897.913 175.266 897.235 176.111 896.219 176.109C895.203 176.108 894.527 175.429 894.529 174.413Z" fill="#F4F4F4"/>
<path opacity="0.4" d="M1259.74 169.628C1259.74 168.273 1260.93 167.09 1262.28 167.092C1263.64 167.095 1264.82 168.282 1264.82 169.636C1264.82 170.991 1263.63 172.174 1262.27 172.172C1260.75 172 1259.74 170.982 1259.74 169.628Z" fill="#F4F4F4"/>
<path opacity="0.4" d="M58.3607 240.013C58.3627 238.828 59.3801 237.984 60.3959 237.985C61.5811 237.987 62.4262 238.835 62.4242 240.02C62.4221 241.206 61.5741 242.051 60.3889 242.049C59.373 242.047 58.3586 241.199 58.3607 240.013Z" fill="#F4F4F4"/>
<path opacity="0.4" d="M377.859 234.471C377.866 230.408 381.258 227.027 385.321 227.034C389.385 227.041 392.765 230.433 392.758 234.497C392.751 238.56 389.359 241.941 385.296 241.934C381.232 241.927 377.852 238.704 377.859 234.471Z" fill="#F4F4F4"/>
<path opacity="0.4" d="M410.077 205.914C410.079 204.729 411.097 203.545 412.452 203.547C413.637 203.55 414.82 204.567 414.818 205.922C414.816 207.107 413.798 208.291 412.443 208.288C411.089 208.117 410.075 207.099 410.077 205.914Z" fill="#F4F4F4"/>
<path opacity="0.4" d="M474.584 206.364C474.589 203.147 477.133 200.611 480.35 200.617C483.567 200.623 486.103 203.167 486.097 206.383C486.091 209.6 483.547 212.136 480.33 212.13C477.114 212.124 474.579 209.411 474.584 206.364Z" fill="#F4F4F4"/>
<path opacity="0.4" d="M537.039 217.985C537.043 215.615 539.078 213.587 541.449 213.591C543.819 213.595 545.847 215.63 545.843 218C545.839 220.371 543.804 222.399 541.434 222.395C538.894 222.39 537.035 220.525 537.039 217.985Z" fill="#F4F4F4"/>
<path opacity="0.4" d="M589.341 226.879C589.345 224.34 591.38 222.312 593.92 222.316C596.46 222.32 598.488 224.356 598.483 226.895C598.479 229.435 596.444 231.463 593.904 231.459C591.364 231.624 589.336 229.588 589.341 226.879Z" fill="#F4F4F4"/>
<path opacity="0.4" d="M954.354 238.347C954.357 236.654 955.714 235.302 957.407 235.304C959.1 235.307 960.452 236.664 960.449 238.357C960.446 240.05 959.089 241.403 957.396 241.4C955.703 241.397 954.351 240.04 954.354 238.347Z" fill="#F4F4F4"/>
<path opacity="0.4" d="M114.79 211.837C114.795 208.62 117.509 205.915 120.726 205.921C123.943 205.927 126.647 208.64 126.642 211.857C126.636 215.074 123.922 217.778 120.705 217.773C117.32 217.597 114.784 215.053 114.79 211.837Z" fill="#F4F4F4"/>
<path opacity="0.4" d="M618.666 206.613C618.671 203.904 620.876 201.707 623.585 201.711C626.294 201.716 628.491 203.921 628.486 206.63C628.481 209.339 626.277 211.536 623.568 211.531C620.858 211.696 618.661 209.491 618.666 206.613Z" fill="#F4F4F4"/>
<path opacity="0.4" d="M985.391 207.755C985.397 203.861 988.62 200.65 992.514 200.657C996.408 200.664 999.619 203.886 999.613 207.78C999.606 211.674 996.384 214.886 992.489 214.879C988.595 214.872 985.384 211.65 985.391 207.755Z" fill="#F4F4F4"/>
<path opacity="0.4" d="M164.184 237.657C164.19 233.933 167.243 231.06 170.798 231.066C174.523 231.072 177.396 234.125 177.39 237.68C177.384 241.405 174.331 244.278 170.775 244.272C167.22 244.266 164.178 241.213 164.184 237.657Z" fill="#F4F4F4"/>
<path opacity="0.4" d="M684.152 228.229C684.158 224.673 687.042 221.8 690.597 221.806C694.153 221.812 697.026 224.695 697.02 228.251C697.014 231.806 694.13 234.68 690.575 234.674C687.019 234.667 684.146 231.784 684.152 228.229Z" fill="#F4F4F4"/>
<path opacity="0.4" d="M1037.15 238.659C1037.15 236.966 1038.51 235.783 1040.03 235.786C1041.72 235.789 1042.91 237.145 1042.9 238.669C1042.9 240.362 1041.54 241.545 1040.02 241.542C1038.5 241.709 1037.14 240.352 1037.15 238.659Z" fill="#F4F4F4"/>
<path opacity="0.4" d="M221.098 222.348C221.101 220.655 222.458 219.303 224.151 219.306C225.844 219.309 227.196 220.666 227.194 222.359C227.191 224.052 225.834 225.404 224.141 225.401C222.448 225.398 221.095 224.042 221.098 222.348Z" fill="#F4F4F4"/>
<path opacity="0.4" d="M730.725 221.029C730.727 220.013 731.575 219.337 732.421 219.339C733.437 219.341 734.113 220.188 734.111 221.035C734.11 222.051 733.262 222.726 732.415 222.725C731.569 222.723 730.724 221.875 730.725 221.029Z" fill="#F4F4F4"/>
<path opacity="0.4" d="M1102.17 233.693C1102.17 230.814 1104.55 228.448 1107.43 228.453C1110.31 228.458 1112.67 230.833 1112.67 233.711C1112.66 236.589 1110.29 238.955 1107.41 238.95C1104.53 238.945 1102.16 236.571 1102.17 233.693Z" fill="#F4F4F4"/>
<path opacity="0.4" d="M266.442 240.373C266.444 239.358 267.292 238.343 268.478 238.345C269.493 238.347 270.508 239.195 270.506 240.38C270.504 241.396 269.656 242.411 268.471 242.409C267.285 242.407 266.44 241.559 266.442 240.373Z" fill="#F4F4F4"/>
<path opacity="0.4" d="M783.023 231.786C783.025 230.431 784.043 229.417 785.398 229.419C786.752 229.422 787.766 230.439 787.764 231.794C787.762 233.148 786.744 234.162 785.389 234.16C784.035 234.158 783.021 232.971 783.023 231.786Z" fill="#F4F4F4"/>
<path opacity="0.4" d="M1165.51 224.659C1165.51 223.305 1166.53 222.291 1167.88 222.293C1169.24 222.296 1170.25 223.313 1170.25 224.668C1170.25 226.022 1169.23 227.036 1167.87 227.034C1166.69 227.032 1165.51 225.845 1165.51 224.659Z" fill="#F4F4F4"/>
<path opacity="0.4" d="M314.198 234.869C314.204 230.975 317.427 227.764 321.321 227.77C325.215 227.777 328.426 231 328.42 234.894C328.413 238.788 325.19 241.999 321.296 241.992C317.402 241.816 314.191 238.763 314.198 234.869Z" fill="#F4F4F4"/>
<path opacity="0.4" d="M842.156 206.661C842.162 202.767 845.215 199.725 849.109 199.731C853.004 199.738 856.046 202.791 856.039 206.685C856.032 210.579 852.979 213.622 849.085 213.615C845.191 213.608 842.149 210.386 842.156 206.661Z" fill="#F4F4F4"/>
<path opacity="0.4" d="M1212.09 211.026C1212.09 210.179 1212.77 209.503 1213.62 209.505C1214.46 209.506 1215.14 210.185 1215.14 211.031C1215.14 211.878 1214.46 212.554 1213.61 212.552C1212.77 212.551 1212.09 211.873 1212.09 211.026Z" fill="#F4F4F4"/>
<path opacity="0.4" d="M-8.81749 218.056C-8.81251 215.178 -6.43811 212.812 -3.55985 212.817C-0.681579 212.822 1.68462 215.196 1.67964 218.075C1.67466 220.953 -0.699739 223.319 -3.57801 223.314C-6.62558 223.309 -8.82247 220.935 -8.81749 218.056Z" fill="#F4F4F4"/>
<path opacity="0.4" d="M885.139 219.095C885.143 216.725 887.179 214.697 889.549 214.701C891.919 214.705 893.947 216.74 893.943 219.111C893.939 221.481 891.904 223.509 889.534 223.505C886.994 223.501 885.135 221.466 885.139 219.095Z" fill="#F4F4F4"/>
<path opacity="0.4" d="M1269.78 234.998C1269.79 232.797 1271.48 231.107 1273.69 231.111C1275.89 231.115 1277.58 232.811 1277.57 235.012C1277.57 237.213 1275.87 238.903 1273.67 238.899C1271.64 238.896 1269.78 237.199 1269.78 234.998Z" fill="#F4F4F4"/>
<path opacity="0.4" d="M49.0147 259.638C49.0209 256.082 51.9039 253.378 55.2901 253.384C58.8456 253.39 61.5496 256.273 61.5437 259.659C61.5376 263.215 58.6546 265.919 55.2684 265.913C51.7129 265.907 49.0086 263.193 49.0147 259.638Z" fill="#F4F4F4"/>
<path opacity="0.4" d="M376.783 269.008C376.786 267.485 377.973 266.302 379.497 266.304C381.021 266.307 382.204 267.494 382.201 269.018C382.199 270.542 381.011 271.725 379.488 271.722C378.133 271.72 376.781 270.532 376.783 269.008Z" fill="#F4F4F4"/>
<path opacity="0.4" d="M430.435 280.276C430.441 276.72 433.325 273.847 436.88 273.853C440.436 273.859 443.309 276.743 443.303 280.298C443.297 283.854 440.413 286.727 436.858 286.721C433.302 286.715 430.429 283.831 430.435 280.276Z" fill="#F4F4F4"/>
<path opacity="0.4" d="M478.696 275.957C478.699 274.095 480.225 272.743 481.919 272.746C483.781 272.749 485.133 274.275 485.13 275.969C485.127 277.831 483.601 279.183 481.907 279.18C480.214 279.346 478.693 277.82 478.696 275.957Z" fill="#F4F4F4"/>
<path opacity="0.4" d="M533.534 286.38C533.54 283.163 536.084 280.628 539.301 280.634C542.518 280.639 545.053 283.183 545.048 286.4C545.042 289.617 542.498 292.152 539.281 292.147C536.064 291.972 533.529 289.428 533.534 286.38Z" fill="#F4F4F4"/>
<path opacity="0.4" d="M574.5 290.684C574.506 287.467 577.05 284.932 580.267 284.937C583.483 284.943 586.019 287.487 586.013 290.704C586.008 293.921 583.464 296.456 580.247 296.45C577.03 296.445 574.494 293.901 574.5 290.684Z" fill="#F4F4F4"/>
<path opacity="0.4" d="M938.048 268.625C938.049 267.779 938.728 267.103 939.574 267.104C940.421 267.106 941.097 267.784 941.095 268.631C941.094 269.477 940.416 270.153 939.569 270.152C938.722 270.32 938.046 269.472 938.048 268.625Z" fill="#F4F4F4"/>
<path opacity="0.4" d="M98.7407 289.184C98.7445 286.983 100.441 285.293 102.642 285.296C104.843 285.3 106.533 286.996 106.529 289.197C106.525 291.398 104.829 293.089 102.628 293.085C100.427 293.081 98.7369 291.385 98.7407 289.184Z" fill="#F4F4F4"/>
<path opacity="0.4" d="M637.034 256.93C637.037 255.237 638.394 254.054 639.917 254.056C641.611 254.059 642.793 255.416 642.791 256.94C642.788 258.633 641.431 259.816 639.908 259.813C638.384 259.81 637.031 258.623 637.034 256.93Z" fill="#F4F4F4"/>
<path opacity="0.4" d="M1005.73 293.123C1005.73 291.091 1007.43 289.401 1009.46 289.404C1011.49 289.408 1013.18 291.104 1013.18 293.136C1013.18 295.167 1011.48 296.858 1009.45 296.854C1007.25 296.85 1005.73 295.155 1005.73 293.123Z" fill="#F4F4F4"/>
<path opacity="0.4" d="M153.315 256.77C153.319 254.569 155.184 252.71 157.385 252.714C159.586 252.718 161.445 254.583 161.442 256.784C161.438 258.986 159.572 260.845 157.371 260.841C155.17 260.837 153.311 258.971 153.315 256.77Z" fill="#F4F4F4"/>
<path opacity="0.4" d="M688.956 289.358C688.963 285.294 692.355 281.914 696.419 281.921C700.482 281.928 703.863 285.32 703.856 289.384C703.849 293.447 700.457 296.827 696.393 296.82C692.16 296.813 688.949 293.591 688.956 289.358Z" fill="#F4F4F4"/>
<path opacity="0.4" d="M1033.02 272.176C1033.03 268.112 1036.42 264.732 1040.49 264.739C1044.55 264.746 1047.93 268.138 1047.92 272.202C1047.92 276.265 1044.52 279.645 1040.46 279.638C1036.23 279.631 1033.02 276.239 1033.02 272.176Z" fill="#F4F4F4"/>
<path opacity="0.4" d="M221.549 255.703C221.552 254.01 222.908 252.658 224.602 252.661C226.295 252.664 227.647 254.021 227.644 255.714C227.641 257.407 226.284 258.759 224.591 258.756C222.898 258.753 221.546 257.396 221.549 255.703Z" fill="#F4F4F4"/>
<path opacity="0.4" d="M723.201 264.021C723.205 261.651 725.241 259.622 727.611 259.627C729.981 259.631 732.009 261.666 732.005 264.036C732.001 266.407 729.966 268.435 727.596 268.431C725.056 268.426 723.197 266.561 723.201 264.021Z" fill="#F4F4F4"/>
<path opacity="0.4" d="M1100.57 278.218C1100.58 274.155 1103.8 270.774 1108.03 270.782C1112.1 270.789 1115.48 274.011 1115.47 278.244C1115.46 282.308 1112.24 285.688 1108.01 285.681C1103.94 285.505 1100.56 282.282 1100.57 278.218Z" fill="#F4F4F4"/>
<path opacity="0.4" d="M258.09 272.698C258.097 268.634 261.32 265.423 265.383 265.43C269.447 265.437 272.658 268.659 272.651 272.723C272.644 276.786 269.422 279.998 265.358 279.991C261.295 279.814 258.084 276.592 258.09 272.698Z" fill="#F4F4F4"/>
<path opacity="0.4" d="M780.244 272.077C780.248 269.707 782.114 267.848 784.484 267.852C786.855 267.856 788.714 269.722 788.71 272.092C788.706 274.462 786.84 276.322 784.47 276.317C782.099 276.483 780.24 274.448 780.244 272.077Z" fill="#F4F4F4"/>
<path opacity="0.4" d="M1147.13 275.59C1147.14 272.881 1149.34 270.853 1151.88 270.858C1154.59 270.862 1156.62 273.067 1156.62 275.606C1156.61 278.315 1154.41 280.343 1151.87 280.339C1149.33 280.335 1147.13 278.299 1147.13 275.59Z" fill="#F4F4F4"/>
<path opacity="0.4" d="M315.137 278.722C315.14 277.198 316.327 276.015 317.851 276.018C319.375 276.02 320.558 277.208 320.555 278.731C320.553 280.255 319.366 281.438 317.842 281.436C316.318 281.264 315.135 280.077 315.137 278.722Z" fill="#F4F4F4"/>
<path opacity="0.4" d="M833.752 268.953C833.755 267.26 835.112 265.738 836.974 265.742C838.668 265.744 840.189 267.102 840.186 268.964C840.183 270.657 838.826 272.179 836.963 272.175C835.101 272.172 833.749 270.815 833.752 268.953Z" fill="#F4F4F4"/>
<path opacity="0.4" d="M1211.12 282.812C1211.13 280.103 1213.33 277.906 1216.04 277.91C1218.75 277.915 1220.95 280.12 1220.94 282.829C1220.94 285.538 1218.73 287.735 1216.02 287.73C1213.31 287.726 1211.12 285.521 1211.12 282.812Z" fill="#F4F4F4"/>
<path opacity="0.4" d="M4.63067 273.952C4.63682 270.397 7.5203 267.354 11.2451 267.361C14.8006 267.367 17.8433 270.25 17.8368 273.975C17.8307 277.531 14.9471 280.573 11.2223 280.567C7.49745 280.56 4.62452 277.508 4.63067 273.952Z" fill="#F4F4F4"/>
<path opacity="0.4" d="M887.747 277.681C887.75 275.988 889.107 274.636 890.8 274.639C892.493 274.642 893.845 275.998 893.842 277.692C893.839 279.385 892.482 280.737 890.789 280.734C889.096 280.731 887.744 279.374 887.747 277.681Z" fill="#F4F4F4"/>
<path opacity="0.4" d="M1244.66 276.097C1244.66 274.404 1246.02 273.052 1247.71 273.055C1249.4 273.058 1250.75 274.414 1250.75 276.108C1250.75 277.801 1249.39 279.153 1247.7 279.15C1246.01 279.147 1244.65 277.79 1244.66 276.097Z" fill="#F4F4F4"/>
<path opacity="0.4" d="M63.1482 310.794C63.152 308.593 65.0177 306.734 67.2187 306.738C69.4197 306.741 71.2788 308.607 71.275 310.808C71.2712 313.009 69.4057 314.868 67.2046 314.865C65.0039 314.691 63.1444 312.995 63.1482 310.794Z" fill="#F4F4F4"/>
<path opacity="0.4" d="M371.128 308.448C371.132 306.078 372.998 304.219 375.368 304.223C377.738 304.227 379.597 306.093 379.593 308.463C379.589 310.833 377.724 312.692 375.353 312.688C372.983 312.684 371.124 310.819 371.128 308.448Z" fill="#F4F4F4"/>
<path opacity="0.4" d="M411.417 312.073C411.42 310.55 412.607 309.366 414.131 309.369C415.655 309.372 416.838 310.559 416.835 312.083C416.833 313.607 415.645 314.79 414.122 314.787C412.598 314.784 411.415 313.597 411.417 312.073Z" fill="#F4F4F4"/>
<path opacity="0.4" d="M460.991 331.63C460.994 330.276 462.011 329.262 463.366 329.264C464.72 329.266 465.734 330.284 465.732 331.638C465.73 332.993 464.712 334.007 463.358 334.005C462.003 334.002 460.989 332.815 460.991 331.63Z" fill="#F4F4F4"/>
<path opacity="0.4" d="M517.216 324.108C517.219 322.246 518.745 320.725 520.608 320.728C522.47 320.731 523.991 322.258 523.988 324.12C523.985 325.982 522.458 327.504 520.596 327.5C518.734 327.497 517.212 325.971 517.216 324.108Z" fill="#F4F4F4"/>
<path opacity="0.4" d="M564.471 314.031C564.475 311.322 566.68 309.125 569.389 309.13C572.098 309.135 574.295 311.339 574.291 314.048C574.286 316.757 572.081 318.955 569.372 318.95C566.663 318.945 564.466 316.74 564.471 314.031Z" fill="#F4F4F4"/>
<path opacity="0.4" d="M949.609 338.401C949.616 334.846 952.499 331.972 956.054 331.979C959.61 331.985 962.483 334.868 962.477 338.423C962.471 341.979 959.588 344.852 956.032 344.846C952.477 344.84 949.603 341.957 949.609 338.401Z" fill="#F4F4F4"/>
<path opacity="0.4" d="M91.2387 319.477C91.2443 316.26 93.7886 313.556 97.1748 313.562C100.392 313.567 103.096 316.112 103.09 319.498C103.085 322.715 100.541 325.419 97.1543 325.413C93.9374 325.408 91.2331 322.694 91.2387 319.477Z" fill="#F4F4F4"/>
<path opacity="0.4" d="M620.186 307.017C620.192 303.123 623.245 300.08 627.139 300.087C631.033 300.094 634.076 303.147 634.069 307.041C634.062 310.935 631.009 313.977 627.115 313.97C623.221 313.794 620.179 310.741 620.186 307.017Z" fill="#F4F4F4"/>
<path opacity="0.4" d="M1005.17 320.72C1005.18 316.995 1008.23 313.783 1012.13 313.79C1015.85 313.796 1019.06 316.849 1019.06 320.744C1019.05 324.468 1016 327.68 1012.1 327.673C1008.38 327.667 1005.17 324.614 1005.17 320.72Z" fill="#F4F4F4"/>
<path opacity="0.4" d="M151.321 332.956C151.325 330.586 153.36 328.558 155.73 328.562C158.101 328.566 160.129 330.601 160.125 332.971C160.121 335.342 158.085 337.37 155.715 337.366C153.175 337.362 151.316 335.327 151.321 332.956Z" fill="#F4F4F4"/>
<path opacity="0.4" d="M674.149 334.2C674.153 331.83 676.019 329.801 678.558 329.806C680.929 329.81 682.957 331.676 682.953 334.215C682.949 336.586 681.083 338.445 678.543 338.44C676.004 338.605 674.145 336.57 674.149 334.2Z" fill="#F4F4F4"/>
<path opacity="0.4" d="M1050.23 311.316C1050.23 307.93 1053.12 305.057 1056.5 305.063C1059.89 305.068 1062.76 307.952 1062.76 311.338C1062.75 314.724 1059.87 317.597 1056.48 317.592C1053.09 317.586 1050.22 314.872 1050.23 311.316Z" fill="#F4F4F4"/>
<path opacity="0.4" d="M200.249 334.226C200.251 333.041 201.268 332.196 202.284 332.198C203.469 332.2 204.314 333.217 204.312 334.233C204.31 335.418 203.293 336.263 202.277 336.261C201.092 336.429 200.247 335.411 200.249 334.226Z" fill="#F4F4F4"/>
<path opacity="0.4" d="M748.299 338.73C748.301 337.376 749.489 336.193 750.843 336.195C752.197 336.197 753.381 337.384 753.378 338.739C753.376 340.093 752.189 341.277 750.834 341.274C749.48 341.272 748.297 340.085 748.299 338.73Z" fill="#F4F4F4"/>
<path opacity="0.4" d="M1092.71 320.025C1092.72 315.961 1095.94 312.75 1100 312.757C1104.07 312.764 1107.28 315.986 1107.27 320.05C1107.26 324.113 1104.04 327.325 1099.98 327.317C1095.91 327.31 1092.7 324.088 1092.71 320.025Z" fill="#F4F4F4"/>
<path opacity="0.4" d="M252.085 318.909C252.087 317.724 253.104 316.71 254.289 316.712C255.475 316.714 256.489 317.732 256.487 318.917C256.485 320.102 255.467 321.116 254.282 321.114C253.097 321.112 252.082 320.264 252.085 318.909Z" fill="#F4F4F4"/>
<path opacity="0.4" d="M783.871 328.972C783.878 325.247 786.93 322.374 790.486 322.38C794.211 322.386 797.084 325.439 797.077 328.994C797.071 332.719 794.018 335.592 790.463 335.586C786.738 335.58 783.865 332.696 783.871 328.972Z" fill="#F4F4F4"/>
<path opacity="0.4" d="M1158.4 320.308C1158.4 318.445 1159.93 317.093 1161.62 317.096C1163.49 317.1 1164.84 318.626 1164.83 320.319C1164.83 322.181 1163.3 323.533 1161.61 323.53C1159.92 323.527 1158.4 322.17 1158.4 320.308Z" fill="#F4F4F4"/>
<path opacity="0.4" d="M306.957 309.523C306.96 307.999 308.317 306.647 309.841 306.649C311.364 306.652 312.717 308.009 312.714 309.533C312.711 311.056 311.354 312.408 309.831 312.406C308.307 312.403 306.955 311.046 306.957 309.523Z" fill="#F4F4F4"/>
<path opacity="0.4" d="M842.952 333.645C842.955 331.783 844.482 330.261 846.344 330.265C848.207 330.268 849.728 331.794 849.725 333.657C849.721 335.519 848.195 337.04 846.332 337.037C844.47 336.865 842.949 335.338 842.952 333.645Z" fill="#F4F4F4"/>
<path opacity="0.4" d="M1195.44 341.196C1195.45 337.81 1198.16 335.106 1201.55 335.112C1204.94 335.118 1207.64 337.831 1207.63 341.217C1207.63 344.604 1204.91 347.308 1201.53 347.302C1198.14 347.296 1195.44 344.583 1195.44 341.196Z" fill="#F4F4F4"/>
<path opacity="0.4" d="M1.18268 309.671C1.18502 308.316 2.37224 307.133 3.72672 307.135C5.0812 307.138 6.26432 308.325 6.26198 309.679C6.25963 311.034 5.07241 312.217 3.71793 312.215C2.36345 312.212 1.18034 311.025 1.18268 309.671Z" fill="#F4F4F4"/>
<path opacity="0.4" d="M892.426 313.583C892.429 311.89 893.785 310.368 895.648 310.372C897.341 310.374 898.862 311.732 898.859 313.594C898.856 315.287 897.499 316.809 895.637 316.805C893.944 316.802 892.423 315.276 892.426 313.583Z" fill="#F4F4F4"/>
<path opacity="0.4" d="M1250.52 314.372C1250.52 310.816 1253.4 307.943 1256.96 307.949C1260.52 307.955 1263.39 310.838 1263.38 314.394C1263.38 317.95 1260.49 320.823 1256.94 320.817C1253.38 320.81 1250.51 317.927 1250.52 314.372Z" fill="#F4F4F4"/>
<path opacity="0.4" d="M63.3474 391.386C63.3541 387.492 66.5766 384.28 70.4707 384.287C74.3648 384.294 77.5761 387.516 77.5693 391.41C77.5626 395.304 74.3402 398.516 70.4461 398.509C66.3827 398.502 63.3406 395.28 63.3474 391.386Z" fill="#F4F4F4"/>
<path opacity="0.4" d="M371.501 386.162C371.504 384.639 372.691 383.456 374.215 383.458C375.739 383.461 376.922 384.648 376.919 386.172C376.917 387.696 375.729 388.879 374.206 388.876C372.682 389.043 371.498 387.856 371.501 386.162Z" fill="#F4F4F4"/>
<path opacity="0.4" d="M429.264 370.178C429.27 366.453 432.323 363.58 435.878 363.586C439.603 363.593 442.476 366.645 442.47 370.201C442.463 373.926 439.411 376.799 435.855 376.793C432.3 376.956 429.257 373.903 429.264 370.178Z" fill="#F4F4F4"/>
<path opacity="0.4" d="M465.169 363.806C465.174 360.759 467.718 358.223 470.765 358.229C473.813 358.234 476.348 360.778 476.343 363.826C476.338 366.873 473.794 369.408 470.746 369.403C467.699 369.398 465.163 366.854 465.169 363.806Z" fill="#F4F4F4"/>
<path opacity="0.4" d="M516.26 387.09C516.265 384.381 518.469 382.353 521.009 382.358C523.718 382.362 525.746 384.567 525.741 387.106C525.737 389.815 523.532 391.843 520.992 391.839C518.283 391.834 516.256 389.63 516.26 387.09Z" fill="#F4F4F4"/>
<path opacity="0.4" d="M570.952 384.476C570.957 381.259 573.501 378.724 576.718 378.729C579.935 378.735 582.47 381.279 582.465 384.496C582.459 387.713 579.915 390.248 576.698 390.242C573.481 390.237 570.946 387.693 570.952 384.476Z" fill="#F4F4F4"/>
<path opacity="0.4" d="M949.392 366.168C949.399 362.274 952.621 359.062 956.515 359.069C960.409 359.076 963.621 362.298 963.614 366.192C963.607 370.086 960.385 373.298 956.491 373.291C952.427 373.284 949.385 370.062 949.392 366.168Z" fill="#F4F4F4"/>
<path opacity="0.4" d="M113.494 373.864C113.496 372.341 114.683 371.157 116.207 371.16C117.731 371.163 118.914 372.35 118.911 373.874C118.909 375.397 117.722 376.581 116.198 376.578C114.843 376.576 113.491 375.388 113.494 373.864Z" fill="#F4F4F4"/>
<path opacity="0.4" d="M630.711 388.473C630.714 386.949 631.901 385.766 633.425 385.769C634.949 385.772 636.132 386.959 636.129 388.483C636.127 390.006 634.94 391.19 633.416 391.187C631.892 391.184 630.709 389.997 630.711 388.473Z" fill="#F4F4F4"/>
<path opacity="0.4" d="M984.955 361.658C984.962 357.933 988.014 355.06 991.57 355.066C995.294 355.072 998.168 358.125 998.161 361.68C998.155 365.405 995.102 368.278 991.547 368.272C987.991 368.435 984.949 365.382 984.955 361.658Z" fill="#F4F4F4"/>
<path opacity="0.4" d="M154.785 385.449C154.788 383.925 155.975 382.742 157.499 382.745C159.023 382.747 160.206 383.934 160.203 385.458C160.2 386.982 159.013 388.165 157.489 388.162C155.966 388.16 154.783 386.973 154.785 385.449Z" fill="#F4F4F4"/>
<path opacity="0.4" d="M684.407 374.344C684.413 370.958 687.296 368.084 690.682 368.09C694.069 368.096 696.942 370.979 696.936 374.366C696.93 377.752 694.047 380.625 690.661 380.619C687.275 380.613 684.401 377.899 684.407 374.344Z" fill="#F4F4F4"/>
<path opacity="0.4" d="M1044.21 364.808C1044.21 362.945 1045.74 361.594 1047.43 361.597C1049.29 361.6 1050.65 363.126 1050.64 364.819C1050.64 366.681 1049.11 368.033 1047.42 368.03C1045.73 368.197 1044.21 366.67 1044.21 364.808Z" fill="#F4F4F4"/>
<path opacity="0.4" d="M209.995 376.91C210 374.37 212.035 372.511 214.405 372.515C216.945 372.52 218.803 374.554 218.799 376.925C218.795 379.464 216.76 381.323 214.39 381.319C212.019 381.315 209.991 379.449 209.995 376.91Z" fill="#F4F4F4"/>
<path opacity="0.4" d="M727.934 366.123C727.94 362.737 730.654 360.033 734.04 360.039C737.426 360.044 740.131 362.758 740.125 366.144C740.119 369.53 737.405 372.235 734.019 372.229C730.633 372.223 727.929 369.509 727.934 366.123Z" fill="#F4F4F4"/>
<path opacity="0.4" d="M1107.16 385.065C1107.16 383.541 1108.52 382.189 1110.04 382.191C1111.56 382.194 1112.92 383.551 1112.91 385.075C1112.91 386.599 1111.55 387.951 1110.03 387.948C1108.34 387.945 1107.15 386.758 1107.16 385.065Z" fill="#F4F4F4"/>
<path opacity="0.4" d="M265.021 377.174C265.028 372.941 268.42 369.561 272.653 369.568C276.885 369.576 280.266 372.968 280.258 377.2C280.251 381.433 276.859 384.814 272.626 384.806C268.394 384.799 265.013 381.407 265.021 377.174Z" fill="#F4F4F4"/>
<path opacity="0.4" d="M778.363 381.11C778.368 378.062 780.912 375.527 783.96 375.532C787.007 375.537 789.542 378.081 789.537 381.129C789.532 384.177 786.988 386.712 783.94 386.707C780.893 386.701 778.357 384.327 778.363 381.11Z" fill="#F4F4F4"/>
<path opacity="0.4" d="M1166.62 362.311C1166.63 360.617 1167.98 359.265 1169.68 359.268C1171.37 359.271 1172.72 360.628 1172.72 362.321C1172.72 364.014 1171.36 365.366 1169.67 365.363C1167.97 365.36 1166.62 364.004 1166.62 362.311Z" fill="#F4F4F4"/>
<path opacity="0.4" d="M309.577 360.997C309.581 358.796 311.277 357.106 313.478 357.11C315.679 357.114 317.369 358.81 317.366 361.011C317.362 363.212 315.666 364.902 313.465 364.898C311.433 364.895 309.573 363.198 309.577 360.997Z" fill="#F4F4F4"/>
<path opacity="0.4" d="M839.142 383.246C839.147 380.03 841.691 377.494 844.908 377.5C848.125 377.505 850.66 380.049 850.655 383.266C850.649 386.483 848.105 389.018 844.888 389.013C841.671 389.177 839.136 386.463 839.142 383.246Z" fill="#F4F4F4"/>
<path opacity="0.4" d="M1208.75 383.547C1208.75 379.653 1211.97 376.442 1215.87 376.449C1219.76 376.455 1222.97 379.678 1222.97 383.572C1222.96 387.466 1219.74 390.677 1215.84 390.671C1211.95 390.833 1208.74 387.611 1208.75 383.547Z" fill="#F4F4F4"/>
<path opacity="0.4" d="M7.16167 376.728C7.16812 373.003 10.2207 370.13 13.7762 370.137C17.501 370.143 20.374 373.196 20.3678 376.751C20.3614 380.476 17.3089 383.349 13.7534 383.343C10.1979 383.337 7.15523 380.453 7.16167 376.728Z" fill="#F4F4F4"/>
<path opacity="0.4" d="M880.468 374.514C880.475 370.789 883.358 367.916 887.083 367.922C890.808 367.929 893.681 370.812 893.674 374.537C893.668 378.261 890.785 381.135 887.06 381.128C883.335 381.122 880.462 378.239 880.468 374.514Z" fill="#F4F4F4"/>
<path opacity="0.4" d="M1244.64 382.932C1244.65 378.869 1247.87 375.657 1251.93 375.664C1256 375.671 1259.21 378.894 1259.2 382.957C1259.19 387.021 1255.97 390.232 1251.91 390.225C1247.84 390.218 1244.63 386.995 1244.64 382.932Z" fill="#F4F4F4"/>
</g>
</svg>
