<svg width="1280" height="620" viewBox="0 0 1280 620" fill="none" xmlns="http://www.w3.org/2000/svg">
<path fill-rule="evenodd" clip-rule="evenodd" d="M0 619.049H1279.49H1280V43.8775C1279.83 43.5868 1279.66 43.2954 1279.49 43.0035C1277.97 40.3732 1276.57 37.6966 1275.3 35.02C1276.8 35.8386 1278.41 36.5513 1280 37.1386V34.8633C1278.1 32.8415 1276.47 30.5575 1275.94 28.2734C1276.93 29.7429 1278.34 30.856 1280 31.6899V26.6758C1276.21 24.2359 1272.84 21.4867 1270.57 18.7158C1267.74 15.1544 1266.33 10.5717 1264.99 6.2065L1264.99 6.20402C1264.34 4.09253 1263.7 2.03201 1262.93 0.162659L1263.04 0.837292C1263.47 5.89723 1262.61 11.1821 1261 15.9047C1257.67 24.9001 1251.54 30.5223 1243.26 36.2569C1242.86 36.5584 1242.36 36.7952 1241.85 37.0368C1241.42 37.2456 1240.97 37.458 1240.57 37.7187C1246.7 38.056 1252.4 36.4818 1255.84 31.7591C1255.38 32.6721 1255 33.5136 1254.63 34.304C1253.13 37.6022 1252.02 40.0102 1247.78 43.0035C1252.08 42.4412 1255.41 40.4173 1257.88 37.8311C1256.27 51.0994 1249.5 64.3676 1240.36 75.1622C1234.88 71.4516 1224.56 61.4441 1222.73 51.774C1222.51 50.7127 1222.28 49.6628 1222.04 48.6166L1222.04 48.6114C1221.24 45.0038 1220.45 41.44 1220.36 37.6062L1220.15 42.7786C1220.26 44.915 1220.15 47.0514 1220.04 49.1878C1219.72 54.4726 1218.64 59.7575 1216.06 64.3676C1213.05 69.7649 1206.28 75.9493 1203.49 77.9733C1204.14 77.6507 1204.82 77.3319 1205.5 77.0105C1209.84 74.9697 1214.4 72.8217 1215.96 68.907C1215.68 69.7079 1215.42 70.547 1215.14 71.4142L1215.14 71.4153C1213.9 75.322 1212.49 79.7993 1209.29 83.9328C1212.3 82.2461 1214.88 80.1097 1217.14 77.6359L1217.25 77.5235C1215.85 86.2941 1211.98 93.4904 1207.68 99.0001C1204.45 96.8637 1201.44 94.2775 1199.72 91.6913C1198.09 89.3204 1197.44 86.3636 1196.82 83.5287L1196.82 83.5278C1196.5 82.0607 1196.18 80.6263 1195.75 79.3226V79.7724C1195.75 83.0332 1194.89 86.4065 1193.7 89.33C1191.12 94.8397 1187.04 98.1006 1181.56 101.361L1181.55 101.356C1180.48 99.7837 1179.4 98.2113 1178.44 96.6388C1176.61 93.4904 1174.89 89.8923 1174.14 88.318C1177.04 91.4665 1180.91 94.0526 1185.96 93.8278C1182.74 92.5909 1170.05 80.7843 1168.01 69.4276C1167.85 68.5544 1167.68 67.6853 1167.51 66.8179L1167.5 66.8109C1166.78 63.101 1166.05 59.4228 1165.97 55.5971L1165.86 60.657C1165.96 62.7399 1165.87 64.7159 1165.76 66.7935V66.7969L1165.75 66.9539C1165.54 72.1262 1164.57 77.2986 1162.21 81.9088C1159.63 87.1936 1153.5 93.2655 1151.03 95.2895C1151.5 95.0402 1151.99 94.7922 1152.48 94.5423C1156.42 92.5305 1160.61 90.3943 1162.01 86.478C1161.79 87.1879 1161.58 87.9289 1161.36 88.6938L1161.36 88.6986C1160.26 92.56 1158.98 97.0258 1156.08 101.137C1158.66 99.4499 1161.02 97.4259 1163.07 94.9522C1163.07 94.9522 1163.07 94.8397 1163.17 94.8397C1160.81 111.931 1149.41 122.838 1144.25 126.998C1150.92 125.537 1155.76 123.175 1160.16 118.79C1158.77 126.099 1156.62 133.295 1153.61 139.817C1153.35 140.493 1153.01 141.21 1152.67 141.943C1152.44 142.429 1152.21 142.922 1151.99 143.415C1145.87 137.681 1141.03 130.034 1137.05 122.951C1135.55 120.477 1134.26 118.003 1132.97 115.417C1134.9 116.429 1136.94 117.216 1138.88 117.666C1136.62 115.867 1134.04 113.28 1133.4 110.694C1135.87 114.405 1142.21 114.855 1146.73 114.63C1140.81 112.718 1133.18 108.445 1129.63 104.06C1127.59 101.537 1126.63 98.2858 1125.73 95.1907C1125.3 93.7341 1124.88 92.312 1124.37 91.0167V91.4664C1124.69 94.9522 1124.04 98.7752 1122.97 102.036C1120.6 108.333 1116.3 112.268 1110.61 116.316C1110.34 116.541 1110.01 116.682 1109.69 116.822C1109.37 116.963 1109.05 117.103 1108.78 117.328C1113.08 117.553 1117.06 116.541 1119.42 113.168C1119.03 113.908 1118.72 114.583 1118.42 115.217C1117.43 117.376 1116.66 119.039 1113.83 121.039C1116.84 120.702 1119.21 119.24 1120.93 117.441C1120.28 122.501 1118.56 127.673 1116.09 132.396C1110.6 128.573 1102.65 118.115 1096.74 110.02C1095.42 107.95 1094.2 105.725 1093.29 104.054L1093.28 104.052C1092.86 103.272 1092.5 102.614 1092.22 102.149C1095.23 105.072 1099.32 107.546 1104.59 107.321C1101.25 106.196 1087.92 94.9522 1085.77 84.2701C1085.57 83.2409 1085.35 82.2179 1085.13 81.1968L1085.13 81.1818C1084.41 77.8569 1083.7 74.5512 1083.62 71.1142L1083.52 75.9493C1083.62 77.921 1083.52 79.7859 1083.42 81.7521L1083.41 81.9088C1083.19 86.8563 1082.12 91.6913 1079.75 96.0766C1076.96 101.137 1070.62 106.871 1068.04 108.67C1068.55 108.423 1069.09 108.177 1069.62 107.93L1069.63 107.926C1073.66 106.062 1077.95 104.08 1079.46 100.52C1079.23 101.193 1079 101.895 1078.77 102.62L1078.77 102.621C1077.6 106.252 1076.25 110.442 1073.41 114.292C1076.21 112.718 1078.68 110.807 1080.72 108.445C1080.72 108.445 1080.72 108.333 1080.83 108.333C1079.54 117.103 1075.45 124.075 1071.15 129.36C1069.73 126.749 1068.6 123.984 1067.45 121.193L1067.45 121.191C1067.35 120.942 1067.25 120.693 1067.15 120.443C1067.01 120.117 1066.88 119.791 1066.75 119.465C1069.22 121.264 1072.01 122.726 1074.7 123.063C1074.33 122.728 1073.9 122.365 1073.47 122.002L1073.46 121.995C1073.03 121.629 1072.6 121.264 1072.23 120.927C1066.21 115.529 1061.37 108.22 1059.87 100.687C1061.26 101.924 1062.98 102.823 1065.24 102.936C1062.93 101.594 1062.26 100.395 1061.37 98.8284C1061.14 98.4256 1060.9 97.9984 1060.62 97.5384C1062.55 99.8997 1065.56 100.462 1068.68 100.012C1068.47 99.8435 1068.22 99.7591 1067.98 99.6748C1067.74 99.5905 1067.5 99.5061 1067.28 99.3375C1062.77 96.7513 1059.44 94.0527 1057.29 89.5549C1056.32 87.1936 1055.67 84.495 1055.67 81.9088V81.5715C1055.37 82.5329 1055.14 83.5958 1054.9 84.6888L1054.9 84.6909C1054.39 87.0487 1053.84 89.5461 1052.45 91.4664C1050.08 94.9522 1044.71 98.5503 1040.41 100.349C1043.85 100.237 1048.36 99.5624 1050.08 96.6388C1049.76 98.6628 1048.04 100.687 1046.43 102.149C1047.83 101.699 1049.33 100.912 1050.62 100.125C1049.87 102.036 1049.01 104.06 1048.04 105.972C1046.54 109.12 1044.92 112.493 1042.88 115.642C1035.14 110.132 1025.25 98.7752 1017.73 89.8922C1015.47 86.7514 1013.38 83.3536 1012.1 81.2692L1012.1 81.2671L1012.08 81.2268C1011.9 80.94 1011.74 80.6786 1011.6 80.447C1015.9 84.0452 1021.92 87.1936 1029.98 87.4185C1025.04 85.8443 1005.69 71.9013 1003.64 59.5326C1003.44 58.3145 1003.2 57.103 1002.96 55.8932L1002.96 55.892C1002.21 52.0768 1001.46 48.2796 1001.71 44.3528L1000.96 49.8625C1000.85 52.1114 1000.53 54.3602 1000.1 56.6091C999.128 62.2312 997.085 67.6285 992.893 72.4636C988.163 77.9733 977.735 83.9328 973.543 85.8443C974.317 85.6214 975.108 85.3997 975.908 85.1756C982.524 83.3225 989.715 81.3084 992.297 77.1094C991.882 77.8586 991.47 78.6388 991.047 79.4418L991.039 79.4557C988.837 83.6319 986.309 88.4255 981.175 92.7033C985.583 91.1291 989.56 89.1051 993 86.6314L993.108 86.5189C987.518 104.847 968.168 115.529 959.46 119.465C970.318 118.453 978.38 116.316 985.905 112.044C982.895 119.802 978.703 127.448 973.22 134.195C972.79 134.757 972.253 135.432 971.715 136.106C971.282 135.718 970.813 135.329 970.37 134.962C970.044 134.692 969.731 134.433 969.458 134.195C960.428 126.211 953.225 115.529 950.968 104.397C953.01 106.196 955.698 107.546 959.03 107.658C955.581 105.674 954.622 103.98 953.268 101.588C952.934 100.998 952.576 100.365 952.15 99.6748C955.052 103.161 959.46 103.948 964.19 103.273C963.868 103.048 963.491 102.908 963.115 102.767C962.739 102.626 962.363 102.486 962.04 102.261C955.375 98.4379 950.323 94.5024 947.205 87.8683C945.7 84.3825 944.733 80.447 944.733 76.5115V75.9493C944.235 77.4723 943.867 79.1179 943.493 80.7931C942.733 84.1888 941.946 87.7056 940.003 90.5669C936.455 95.6268 928.393 101.024 922.05 103.723C927.103 103.61 933.983 102.486 936.455 98.213C935.918 101.137 933.338 104.173 931.08 106.421C933.123 105.634 935.38 104.622 937.423 103.385C936.348 106.309 935.058 109.12 933.553 111.931C929.468 120.477 924.522 129.81 917.75 136.781C916.89 135.432 916.137 133.97 915.385 132.283C915.224 131.946 915.089 131.609 914.955 131.271C914.821 130.934 914.686 130.597 914.525 130.259C916.138 131.046 918.073 131.384 920.545 131.271C917.427 129.585 914.632 127.561 912.375 124.637C912.375 124.525 912.267 124.525 912.267 124.412C912.214 124.244 912.16 124.047 912.106 123.85C912.082 123.761 912.058 123.673 912.034 123.587C912.004 123.482 911.975 123.381 911.945 123.288C914.418 125.762 918.718 128.798 921.513 127.223C918.073 126.211 911.515 115.529 907 107.658C905.863 105.478 904.809 103.035 904.208 101.639L904.201 101.624C904.122 101.442 904.052 101.279 903.99 101.137C905.925 103.61 908.72 105.634 912.16 105.409C909.903 104.51 901.088 95.1771 899.69 86.294C899.546 85.3289 899.379 84.3637 899.211 83.3964L899.21 83.395L899.21 83.3929C898.753 80.7551 898.292 78.1012 898.292 75.3871L898.185 79.435C898.185 81.1217 898.185 82.6959 898.078 84.3825C897.863 88.4305 897.218 92.4784 895.605 96.0766C893.777 100.237 889.585 104.96 887.865 106.534C888.239 106.305 888.622 106.077 889.009 105.847C891.702 104.247 894.548 102.556 895.475 99.5916C895.324 100.158 895.177 100.747 895.025 101.355C894.26 104.411 893.382 107.92 891.413 111.144C893.233 109.912 894.839 108.234 896.233 106.332C895.027 115.821 890.75 122.859 887.005 127.336C876.792 118.003 868.73 105.522 866.15 92.5909C868.515 94.7273 871.74 96.3015 875.718 96.5264C871.633 94.1628 870.499 92.0931 868.908 89.1885C868.531 88.5004 868.129 87.7655 867.655 86.9687C871.095 91.1291 876.363 92.0287 881.953 91.2416C881.576 91.0167 881.146 90.848 880.716 90.6794C880.286 90.5107 879.856 90.342 879.48 90.1171C871.632 85.507 865.613 80.8968 861.958 72.9133C860.238 68.7529 859.055 64.0303 859.055 59.4202V58.7455C858.5 60.4888 858.078 62.3964 857.647 64.3507C856.743 68.4469 855.794 72.7486 853.465 76.1742C849.273 82.2461 839.813 88.7678 832.288 91.8038C838.308 91.6913 846.37 90.342 849.273 85.1696C848.735 88.6553 845.617 92.2535 842.93 94.9522C845.402 94.0526 847.983 92.8157 850.348 91.354C849.058 94.8397 847.552 98.213 845.833 101.586C842.285 109.232 838.093 117.441 832.825 124.525C827.235 119.465 820.248 110.132 814.873 102.823C813.007 99.8443 811.23 96.5839 810.282 94.8422L810.035 94.39C813.26 97.5384 817.56 100.125 823.258 100.012C819.71 98.7752 805.413 86.7438 803.155 75.3871C802.959 74.4326 802.755 73.4873 802.552 72.5466L802.552 72.5457C801.749 68.8321 800.962 65.1893 800.79 61.3317L800.575 66.5041C800.682 68.6399 800.575 70.7757 800.468 72.9115L800.468 72.9133C800.145 78.1982 799.07 83.3705 796.49 88.0931C793.588 93.4904 786.815 99.6748 783.913 101.586C784.551 101.274 785.204 100.965 785.862 100.654C790.316 98.5493 794.972 96.3492 796.401 92.2965C796.162 93.0222 795.927 93.7813 795.685 94.5655C794.436 98.6007 792.982 103.301 789.718 107.546C792.62 105.859 795.307 103.835 797.458 101.249L797.565 101.137C795.953 111.819 790.363 120.139 785.095 125.986C780.688 122.051 775.42 115.754 774.238 109.682C774.053 108.744 773.849 107.806 773.644 106.867L773.644 106.866C773.016 103.976 772.384 101.07 772.303 98.1006L772.195 102.373C772.195 104.173 772.195 105.859 772.088 107.658C771.872 112.044 770.905 116.316 768.863 120.139C768.003 121.714 766.605 123.513 765.208 125.087C760.908 120.814 756.608 114.742 754.78 106.871L754.888 106.984C756.823 108.895 759.08 110.469 761.553 111.594C758.693 108.421 757.3 104.81 756.079 101.644L756.078 101.642C755.845 101.037 755.618 100.45 755.389 99.8841C756.783 102.918 760.589 104.385 764.202 105.776C764.76 105.991 765.313 106.205 765.853 106.421C763.488 104.96 757.682 100.462 754.995 96.3015C752.63 92.7033 751.448 88.5429 751.018 84.3825C750.802 82.6959 750.588 81.0092 750.588 79.2101L750.158 75.0497C750.235 77.9029 749.861 80.6379 749.486 83.3833C749.343 84.4247 749.201 85.4676 749.083 86.5189C747.9 95.8517 737.042 106.421 734.247 107.658C738.87 107.433 742.203 105.072 744.568 102.373C744.406 102.711 744.205 103.154 743.969 103.671L743.969 103.672C743.263 105.221 742.256 107.434 741.128 109.457C735.86 117.891 728.335 129.36 723.928 131.159C723.713 130.878 723.524 130.625 723.336 130.372C723.148 130.119 722.96 129.866 722.745 129.585C721.67 128.01 720.703 126.211 720.273 125.312C721.885 126.886 724.035 128.123 726.83 128.123C725.003 127.561 717.908 121.489 716.833 115.867C716.704 115.162 716.557 114.467 716.41 113.776C716.065 112.153 715.725 110.552 715.65 108.895L715.542 111.481C715.542 112.493 715.542 113.618 715.435 114.63C715.328 117.216 714.79 119.802 713.5 122.163C711.995 124.862 708.663 127.898 707.265 128.91C707.391 128.847 707.519 128.784 707.648 128.721C707.866 128.615 708.087 128.509 708.309 128.402C710.491 127.356 712.783 126.256 713.471 124.276C713.35 124.641 713.231 125.023 713.109 125.418C712.481 127.444 711.747 129.81 710.06 131.946C711.565 131.159 712.855 130.034 713.93 128.798C713.5 131.609 712.533 134.082 711.35 136.331C704.685 128.573 699.633 119.352 697.698 109.907C699.955 111.931 702.857 113.393 706.62 113.505C702.768 111.216 701.697 109.3 700.155 106.542C699.803 105.913 699.427 105.241 698.988 104.51C702.213 108.333 707.158 109.345 712.318 108.558C711.99 108.362 711.642 108.23 711.292 108.097C710.837 107.925 710.378 107.751 709.953 107.433C702.535 103.048 696.945 98.7752 693.505 91.354C691.893 87.5309 690.818 83.0332 690.818 78.6479V77.9733C690.298 79.6049 689.912 81.3886 689.516 83.2186C688.684 87.0638 687.808 91.114 685.55 94.39C681.573 100.125 672.758 106.196 665.663 109.12C671.253 109.008 678.885 107.771 681.573 102.936C681.035 106.196 678.133 109.57 675.66 112.044C677.918 111.256 680.39 110.02 682.648 108.67C681.358 111.931 679.96 115.08 678.455 118.228C674.585 126.436 669.963 135.319 663.943 142.628C659.643 138.355 656.31 133.408 654.053 127.223C653.73 126.324 653.408 125.424 653.085 124.412C655.557 125.762 658.568 126.774 662.545 127.223C657.815 124.3 653.73 120.927 650.72 116.654C650.72 116.597 650.693 116.541 650.666 116.485C650.653 116.457 650.64 116.429 650.63 116.402C650.619 116.373 650.613 116.345 650.613 116.316C650.398 115.867 650.29 115.304 650.29 114.742C653.73 118.453 660.073 123.4 664.803 122.276C659.535 120.139 651.043 104.735 645.238 93.6029C643.845 90.5936 642.694 87.3329 641.99 85.3402L641.989 85.3377C641.878 85.0231 641.778 84.7403 641.69 84.495C644.378 88.0932 648.355 91.354 653.945 92.0286C650.612 90.2296 638.142 76.1742 637.605 64.4801C637.547 63.1695 637.457 61.8754 637.367 60.5889C637.127 57.1292 636.891 53.7243 637.283 50.1998L636.423 55.2598C636.208 57.3962 635.885 59.4201 635.348 61.5566C634.273 66.729 632.445 71.6765 629.328 75.9493C625.673 80.7844 618.04 85.8443 615.03 87.3061C615.593 87.1379 616.168 86.9723 616.749 86.805C621.413 85.4615 626.455 84.0094 628.548 80.2474C628.219 80.8981 627.889 81.5805 627.547 82.2855C625.733 86.0295 623.611 90.4099 619.867 94.0527C622.985 92.8158 625.995 91.2416 628.467 88.9927L628.575 88.8803C624.812 101.249 615.998 109.345 609.225 114.068C607.72 110.244 606.645 106.196 606 102.149C607.613 104.06 609.763 105.409 612.45 105.522C609.722 103.471 608.955 101.703 607.896 99.2646C607.62 98.6281 607.323 97.9459 606.967 97.201C609.332 100.799 612.88 101.699 616.643 100.912C616.374 100.687 616.078 100.546 615.783 100.406C615.487 100.265 615.191 100.125 614.923 99.8997C609.548 95.8517 605.463 91.9162 602.99 84.9447C601.808 81.3466 601.055 77.1862 601.055 73.1382V72.576C600.666 74.1303 600.381 75.8308 600.091 77.5692V77.5697C599.498 81.1131 598.879 84.814 597.292 87.7558C595.465 91.1291 592.133 94.7273 588.585 97.5384C581.168 90.5669 572.783 79.7724 569.665 65.0423L569.773 65.1548C572.675 68.1907 576.115 70.6645 579.77 72.576C575.383 67.3448 573.216 61.4394 571.34 56.3272L571.34 56.3267C571.005 55.4145 570.68 54.5276 570.353 53.6743C572.484 58.631 578.298 61.0058 583.799 63.2528C584.617 63.5871 585.429 63.9185 586.22 64.2552C582.565 62.0064 573.75 54.5851 569.773 47.951C566.225 42.1039 564.505 35.4698 563.645 28.7232C563.323 26.0246 563 23.2135 562.893 20.4024L562.247 13.7682C562.402 18.288 561.836 22.6339 561.266 27.014C561.042 28.7362 560.817 30.4636 560.635 32.2089C558.807 47.2763 542.467 64.2552 538.167 66.2792C545.047 65.9419 550.208 62.1188 553.863 57.7335C553.68 58.1587 553.462 58.6764 553.214 59.2659C552.152 61.7946 550.533 65.6466 548.703 69.2027C540.533 83.1457 528.815 102.149 522.258 104.397C527.955 106.421 536.125 100.687 540.64 96.1891C540.533 96.8637 540.318 97.6508 540.103 98.213C540.103 98.2692 540.076 98.3255 540.049 98.3817C540.022 98.4379 539.995 98.4942 539.995 98.5504C535.91 103.723 530.75 107.658 524.622 111.032C529.568 110.807 533.33 109.907 536.448 108.333C536.018 109.569 535.48 110.693 534.943 111.817L534.943 111.819C532.792 116.879 530.105 121.264 526.88 125.087C520.537 115.867 515.7 104.622 513.98 93.1531C515.915 95.4019 518.495 97.201 521.72 97.3135C518.476 94.8132 517.537 92.5965 516.265 89.5935C515.935 88.8151 515.583 87.9839 515.163 87.0812C517.958 91.4664 522.15 92.5909 526.773 91.6913C526.45 91.4102 526.101 91.2416 525.751 91.0729C525.402 90.9042 525.052 90.7356 524.73 90.4545C518.28 85.507 513.443 80.5595 510.54 72.0138C509.143 67.6285 508.175 62.4561 508.175 57.5086V56.834C507.723 58.7266 507.383 60.7841 507.036 62.8883L507.035 62.8901C506.31 67.2862 505.55 71.8861 503.66 75.612C500.22 82.1337 492.588 89.1051 486.46 92.4784C491.298 92.2535 497.855 90.9042 500.22 85.3945C499.79 89.1051 497.21 93.0406 495.06 95.8517C496.995 94.9522 499.145 93.6029 501.08 91.9162C500.005 95.6268 498.715 99.3375 497.425 102.936C493.507 113.9 488.86 125.846 482.25 134.798C482.112 134.875 481.975 134.95 481.838 135.026C479.951 131.813 478.374 128.273 477.107 124.3L477.107 124.298C476.785 123.174 476.462 122.05 476.033 120.927C478.613 122.613 481.73 123.738 485.815 124.3C480.87 120.814 476.677 116.879 473.56 111.706C473.56 111.65 473.533 111.594 473.506 111.538C473.479 111.481 473.453 111.425 473.453 111.369C473.237 110.807 473.13 110.132 473.13 109.457C476.785 113.843 483.235 119.802 488.18 118.34C482.698 115.754 473.99 97.5384 467.863 84.1576C466.25 79.9972 464.853 75.3871 464.208 73.2507C467.003 77.5235 471.088 81.459 476.893 82.2461C473.453 80.1097 460.553 63.3557 459.908 49.5252C459.849 47.9746 459.76 46.4405 459.671 44.9139C459.43 40.7946 459.193 36.7303 459.585 32.5463L458.617 38.6182C458.402 41.0919 457.972 43.6781 457.542 46.1519C456.467 52.3363 454.532 58.1833 451.307 63.2432C447.545 68.9778 439.59 75.0497 436.473 76.8488C437.102 76.6294 437.745 76.4145 438.395 76.1976C443.236 74.58 448.413 72.8504 450.559 68.3318C450.206 69.1377 449.854 69.9775 449.491 70.8417L449.49 70.846C447.609 75.3299 445.453 80.4709 441.525 84.9447C444.75 83.5954 447.867 81.5714 450.448 78.9852L450.555 78.8728C446.685 93.4904 437.655 103.16 430.56 108.783C427.013 106.984 414.22 94.0527 413.038 82.8083C412.918 81.7555 412.782 80.7138 412.647 79.6771C412.175 76.0635 411.712 72.5101 411.963 68.753L411.318 73.8129C411.21 75.9493 410.995 77.9733 410.672 80.1097C409.92 85.2821 408.415 90.2296 405.513 94.6149C402.18 99.5624 394.978 105.072 392.075 106.759C392.648 106.547 393.233 106.337 393.822 106.126C398.285 104.528 403.018 102.832 404.894 99.1042C404.593 99.7945 404.294 100.515 403.986 101.257C402.428 105.009 400.641 109.315 397.235 113.056C400.245 111.706 403.04 109.907 405.405 107.546L405.513 107.433C401.427 124.187 387.99 133.97 381.97 137.456C389.387 136.669 394.977 134.757 400.245 130.934C398.095 138.018 395.085 144.989 391.215 151.286C391.064 151.534 390.909 151.791 390.75 152.055L390.731 152.085C390.1 153.131 389.401 154.289 388.635 155.447C383.153 147.8 379.175 137.905 375.95 128.798C374.768 125.762 373.693 122.613 372.725 119.352C374.445 120.814 376.273 121.939 378.1 122.726C376.165 120.252 374.015 116.991 373.585 113.73C375.628 118.453 381.432 119.69 385.732 119.915C380.357 116.991 373.585 111.032 370.575 105.409C368.887 102.185 368.251 98.2261 367.641 94.4285L367.641 94.4268C367.358 92.6633 367.08 90.9345 366.705 89.33V89.8922C366.705 94.1651 365.845 98.5504 364.555 102.261C361.867 109.57 357.568 113.73 351.763 117.891C351.494 118.115 351.171 118.256 350.849 118.397C350.526 118.537 350.204 118.678 349.935 118.903C353.912 119.69 357.675 118.79 360.255 115.079C359.913 115.796 359.619 116.456 359.345 117.075L359.343 117.079C358.152 119.763 357.312 121.658 354.343 123.85C357.245 123.738 359.503 122.276 361.223 120.364C359.288 132.508 352.945 144.315 345.312 152.973L342.302 156.121C337.572 153.535 333.487 150.612 330.37 146.676C330.37 146.654 330.366 146.631 330.359 146.609C330.349 146.575 330.332 146.541 330.316 146.507C330.289 146.451 330.263 146.395 330.263 146.339C330.048 145.889 329.94 145.327 329.832 144.764C333.487 148.25 339.938 152.636 344.56 151.286C339.292 149.487 330.048 134.982 323.598 124.3C322.096 121.354 320.676 118.152 319.839 116.264L319.839 116.263C319.717 115.989 319.608 115.743 319.513 115.529C322.415 118.903 326.5 121.826 331.982 122.163C328.542 120.589 315.535 107.546 314.353 96.0766C314.232 95.0139 314.094 93.9627 313.958 92.9176L313.958 92.9172C313.488 89.3182 313.028 85.7935 313.277 82.1337L312.633 87.1936C312.525 89.33 312.31 91.354 311.988 93.4904C311.235 98.6628 309.73 103.61 306.828 107.996C303.495 112.943 296.293 118.453 293.39 120.139C293.962 119.928 294.546 119.718 295.134 119.508L295.137 119.507C299.6 117.908 304.333 116.213 306.209 112.485C305.909 113.175 305.61 113.895 305.302 114.636L305.301 114.638C303.743 118.39 301.956 122.695 298.55 126.436C301.56 125.087 304.355 123.288 306.72 120.927L306.828 120.814C304.033 132.396 296.83 140.604 290.595 145.664C288.015 140.042 285.973 134.082 284.253 128.348C283.285 125.424 282.425 122.501 281.78 119.465C283.392 120.927 285.22 122.163 286.832 123.063C285.112 120.702 283.178 117.441 282.963 114.405C284.683 118.903 290.38 120.589 294.68 121.039C289.52 117.891 283.177 111.819 280.598 106.421C279.14 103.372 278.769 99.7035 278.414 96.185C278.245 94.5131 278.079 92.8752 277.802 91.354V91.9162C277.48 95.8517 276.298 99.7873 274.793 103.048C271.568 109.457 266.945 112.943 260.925 116.316C260.639 116.496 260.292 116.612 259.933 116.732C259.617 116.837 259.292 116.946 258.99 117.103C262.967 118.115 266.73 117.666 269.525 114.405C269.132 115.032 268.791 115.618 268.469 116.17C267.119 118.488 266.114 120.213 263.075 121.939C265.978 122.051 268.342 120.927 270.17 119.352C268.127 127.111 264.043 134.532 258.775 140.829C257.485 138.58 256.195 136.219 255.228 133.52C255.013 133.014 254.824 132.508 254.636 132.002C254.448 131.496 254.26 130.99 254.045 130.484C256.517 131.834 259.635 132.621 263.613 132.958C258.668 130.034 254.475 126.661 251.25 122.163C251.25 122.107 251.223 122.051 251.196 121.995C251.169 121.939 251.143 121.882 251.143 121.826C250.954 121.432 250.848 120.865 250.753 120.352L250.752 120.352L250.751 120.343C250.738 120.274 250.725 120.206 250.713 120.139C254.368 123.962 260.925 129.022 265.655 127.448C260.28 125.424 250.928 109.008 244.478 97.0886C243.019 93.9427 241.638 90.3928 240.793 88.2202C240.642 87.8302 240.507 87.4846 240.393 87.1936C243.295 91.0167 247.38 94.2775 253.077 94.7273C249.637 93.0406 236.415 78.3106 235.232 65.3797C235.106 64.1348 234.961 62.8961 234.817 61.6608L234.817 61.6584L234.817 61.6579C234.349 57.6499 233.886 53.6766 234.05 49.6376L233.405 55.3722C233.297 57.7335 233.083 60.0948 232.76 62.4561C232.008 68.3032 230.503 73.9253 227.6 78.7604C224.268 84.3825 216.958 90.5669 213.948 92.366C214.535 92.1229 215.136 91.8828 215.743 91.6402L215.744 91.6395C220.323 89.8099 225.243 87.8441 227.106 83.4678C226.778 84.3052 226.454 85.1828 226.12 86.0892C224.547 90.3498 222.741 95.244 219.215 99.5624C222.332 97.9882 225.128 95.9642 227.493 93.378L227.6 93.2655C223.945 110.132 212.765 120.589 205.993 125.537C204.058 121.826 202.23 118.115 200.51 114.517C198.898 111.256 197.5 107.996 196.21 104.622C198.467 106.084 201.048 107.321 203.413 108.22C200.833 105.634 197.93 102.149 197.393 98.7752C200.188 103.723 207.927 105.072 213.732 105.297C206.53 102.261 197.393 95.9642 193.415 90.0047C191.15 86.6416 190.275 82.4471 189.441 78.4456C189.048 76.5605 188.664 74.7182 188.147 73.0258V73.7004C188.147 78.1982 186.965 82.8083 185.245 86.7438C181.698 94.39 175.892 98.7752 168.152 103.161C167.776 103.385 167.346 103.554 166.916 103.723L166.916 103.723C166.486 103.891 166.056 104.06 165.68 104.285C171.055 105.072 176.108 104.173 179.44 100.237C178.931 101.047 178.504 101.791 178.105 102.486C176.564 105.168 175.434 107.136 171.592 109.457C175.462 109.345 178.473 107.771 180.838 105.747C178.15 118.565 169.872 130.934 159.552 139.929C159.122 140.267 158.693 140.604 158.263 141.054C156.865 139.03 155.575 136.893 154.607 134.42C154.446 134.026 154.258 133.604 154.07 133.183C153.882 132.761 153.694 132.34 153.533 131.946C155.897 133.07 158.693 133.745 162.348 133.97C157.832 131.496 153.962 128.798 150.952 124.974C150.952 124.862 150.845 124.75 150.845 124.75C150.63 124.3 150.523 123.85 150.415 123.288C153.855 126.436 159.768 130.709 164.175 129.36C159.23 127.673 150.63 114.18 144.717 104.173C143.105 101.024 141.6 97.6508 140.955 96.0766C143.643 99.225 147.405 101.924 152.565 102.261C149.448 100.799 137.3 88.6554 136.117 77.9733C136.016 77.1417 135.906 76.3142 135.797 75.4892C135.329 71.9635 134.868 68.4836 135.043 64.9299L134.505 69.6525C134.397 71.564 134.182 73.588 133.86 75.4995C133.215 80.3346 131.818 84.9448 129.13 88.9927C126.013 93.6029 119.348 98.7753 116.552 100.237C117.159 100.006 117.784 99.7791 118.415 99.5495C122.583 98.0339 127.047 96.4105 128.672 92.9031C128.396 93.5492 128.12 94.229 127.834 94.9329L127.834 94.9334C126.395 98.4776 124.709 102.634 121.39 106.196C124.185 104.96 126.765 103.273 129.022 101.137L129.13 101.024C126.013 114.067 116.875 122.388 110.64 126.774C107.178 121.976 104.692 116.523 102.228 111.118L102.225 111.112C101.629 109.805 101.035 108.5 100.428 107.208C104.62 110.132 109.457 112.268 113.973 112.606C113.557 112.28 113.109 111.919 112.645 111.546L112.644 111.546C111.667 110.76 110.62 109.919 109.672 109.232C99.245 100.687 90.645 88.8803 87.635 76.3991C90 78.3106 93.01 79.6599 96.7725 79.6599C92.9138 77.597 91.7226 75.6771 90.0891 73.0444L90.0885 73.0434C89.6744 72.3758 89.2318 71.6625 88.71 70.8894C92.15 74.6 97.095 75.3871 102.363 74.3751C102.002 74.1597 101.593 74.0217 101.193 73.887C100.757 73.7403 100.334 73.5975 99.9975 73.3631C92.365 69.3151 86.4525 65.1548 82.69 57.846C80.8625 54.0229 79.5725 49.5252 79.465 45.1399V44.4652C79.0257 46.1266 78.7139 47.9102 78.3959 49.7286C77.7025 53.6948 76.98 57.8271 74.8425 61.2192C71.08 67.1787 62.3725 73.7004 55.385 76.9613C61.0825 76.5115 68.715 74.9373 71.1875 69.9898C70.7575 73.2506 67.9625 76.8489 65.49 79.435C67.7475 78.5355 70.22 77.1862 72.37 75.7244C71.295 79.0977 69.8975 82.3586 68.5 85.6194C65.49 92.9282 61.835 100.687 57.2125 107.658C53.88 103.835 51.085 99.4499 48.8275 94.39C48.6125 93.8278 48.3706 93.2655 48.1288 92.7033C47.8869 92.1411 47.645 91.5789 47.43 91.0167C50.5475 92.4784 54.2025 93.378 59.1475 93.7153C53.1275 90.4544 47.9675 86.7438 43.99 81.7963C43.99 81.7401 43.9631 81.6839 43.9363 81.6277C43.9094 81.5714 43.8825 81.5152 43.8825 81.459C43.6675 80.8968 43.4525 80.2221 43.345 79.5475C47.86 83.8203 55.815 89.33 61.62 87.5309C55.0625 85.2821 43.6675 67.2912 35.7125 54.1353C33.5625 49.975 31.6275 45.4772 30.7675 43.3408C34.315 47.5012 39.3675 51.2118 46.2475 51.6616C42.055 49.7501 25.93 33.5582 24.3175 19.3904C24.1605 17.9669 23.978 16.5566 23.7963 15.1533C23.2319 10.7924 22.676 6.49767 22.92 2.07417L22.1675 8.37099C22.06 10.9572 21.7375 13.5434 21.3075 16.1296C20.4475 22.5388 18.5125 28.7232 14.965 34.1205C11.4187 39.4893 4.2265 45.2819 0 48.0405V48.4555C0.149353 48.4016 0.299088 48.3477 0.449097 48.2936C6.01334 46.2891 11.976 44.141 14.2447 39.502C13.8751 40.353 13.5074 41.2428 13.1281 42.1604L13.1273 42.1624C11.191 46.8473 8.95467 52.2583 4.64502 56.9464C8.40752 55.2598 11.8475 53.0109 14.75 50.1998L14.8575 50.0874C12.9225 58.1833 9.16002 64.9299 4.96751 70.4396C4.75255 70.3272 4.53758 70.2272 4.32262 70.1273C3.89258 69.9274 3.46255 69.7275 3.03252 69.4276C1.98195 68.6837 0.970245 67.9424 0 67.1933V71.0098C1.20845 71.1897 2.47597 71.2552 3.785 71.2267C2.56207 72.8068 1.29102 74.2862 0 75.6608V84.0078C2.57104 82.8645 5.00552 81.4424 7.44 79.6599C5.505 85.8443 3.14 91.9162 0.237503 97.6508C0.158112 97.5353 0.0789337 97.4194 0 97.3032V619.049ZM481.838 135.026C481.874 135.086 481.909 135.147 481.945 135.207C482.047 135.071 482.148 134.935 482.25 134.798C485.047 133.241 487.819 131.493 490.33 129.472C490.22 129.767 490.111 130.062 490.001 130.358C488.604 134.123 487.187 137.943 485.492 141.279C483.987 139.48 482.59 137.456 481.3 135.319C481.479 135.222 481.659 135.124 481.838 135.026ZM340.26 173.775C340.421 173.943 340.609 174.084 340.797 174.225L340.798 174.225C340.986 174.365 341.174 174.506 341.335 174.674C341.281 174.731 341.254 174.787 341.228 174.843C341.214 174.872 341.2 174.9 341.183 174.929C341.166 174.956 341.146 174.984 341.12 175.012C340.971 174.701 340.772 174.444 340.556 174.167C340.46 174.042 340.36 173.914 340.26 173.775ZM482.59 144.989C482.698 145.158 482.832 145.299 482.966 145.439C483.101 145.58 483.235 145.72 483.342 145.889C483.342 145.945 483.316 146.001 483.289 146.058C483.262 146.114 483.235 146.17 483.235 146.226C483.128 146.002 483.021 145.806 482.914 145.61L482.913 145.608L482.911 145.605C482.804 145.409 482.697 145.213 482.59 144.989ZM769.078 131.159H769.185C768.54 135.432 767.035 139.255 765.208 142.628C762.95 138.805 761.122 134.757 759.617 130.484C760.42 130.148 761.163 129.75 761.936 129.335C762.198 129.195 762.463 129.052 762.735 128.91L765.96 130.259C765.208 132.283 764.133 134.307 762.628 136.219C765.208 134.869 767.358 133.183 769.078 131.159ZM836.373 128.685C835.728 130.034 835.083 131.384 834.33 132.621C832.825 131.946 831.32 131.159 830.03 130.372L833.578 128.685C834.545 128.798 835.513 128.798 836.373 128.685ZM56.3525 115.754C56.5675 115.979 56.8094 116.176 57.0513 116.373C57.2932 116.569 57.535 116.766 57.75 116.991C57.6963 117.047 57.6694 117.132 57.6425 117.216C57.6156 117.3 57.5888 117.385 57.535 117.441C57.3334 117.124 57.1318 116.858 56.9412 116.605C56.7254 116.32 56.5238 116.053 56.3525 115.754ZM99.3525 171.751L96.45 170.964C96.5575 170.064 96.7725 169.165 96.9875 168.378C97.3893 169.008 97.8746 169.682 98.3912 170.4L98.3924 170.401C98.7048 170.835 99.0287 171.285 99.3525 171.751ZM106.125 163.767C106.179 163.824 106.233 163.852 106.286 163.88C106.34 163.908 106.394 163.936 106.448 163.992L106.018 164.442C106.018 164.33 106.044 164.217 106.071 164.105C106.098 163.992 106.125 163.88 106.125 163.767ZM115.37 149.037C115.585 148.7 115.8 148.363 115.908 148.138C115.8 148.475 115.693 148.924 115.585 149.373L115.585 149.375L115.585 149.374C115.477 149.15 115.477 149.15 115.37 149.037ZM213.41 150.499C213.41 150.367 213.447 150.274 213.477 150.197C213.499 150.142 213.518 150.096 213.518 150.049C213.518 150.162 213.518 150.387 213.41 150.499ZM162.132 162.868C162.025 162.98 161.918 163.205 161.918 163.318V163.205C161.918 163.093 162.025 162.98 162.132 162.868ZM293.927 184.344C293.91 184.271 293.893 184.195 293.875 184.117L293.875 184.117C293.782 183.715 293.678 183.259 293.497 182.883C293.82 182.545 294.142 182.32 294.465 182.096C294.377 182.737 294.218 183.304 294.046 183.918C294.007 184.057 293.967 184.199 293.927 184.344ZM142.783 185.019C142.89 185.356 142.998 185.581 143.213 185.919H142.675C142.675 185.818 142.697 185.694 142.721 185.557C142.75 185.39 142.783 185.205 142.783 185.019ZM660.932 158.707C660.503 157.133 660.18 155.447 660.073 153.985C660.585 154.432 661.233 154.878 661.964 155.382L661.97 155.386C662.156 155.514 662.348 155.647 662.545 155.784C662.008 156.683 661.47 157.695 660.932 158.707ZM431.495 141.028C431.558 141.055 431.623 141.083 431.689 141.11L431.69 141.11C431.824 141.167 431.958 141.223 432.065 141.279C432.011 141.447 431.931 141.616 431.85 141.785L431.849 141.786C431.769 141.954 431.689 142.122 431.635 142.291C431.528 142.067 431.448 141.871 431.367 141.675L431.366 141.672C431.286 141.476 431.205 141.279 431.098 141.054C431.205 141.054 431.312 140.941 431.312 140.941C431.368 140.97 431.43 140.999 431.495 141.028ZM448.405 187.268C448.405 187.212 448.432 187.156 448.459 187.099C448.486 187.043 448.513 186.987 448.513 186.931V187.268H448.405ZM525.053 134.645C525.053 134.532 525.052 134.532 524.945 134.42C525.008 134.387 525.062 134.344 525.112 134.297C525.147 134.265 525.18 134.23 525.214 134.195C525.294 134.11 525.375 134.026 525.482 133.97C525.429 134.082 525.348 134.195 525.268 134.307C525.187 134.42 525.106 134.532 525.053 134.645ZM341.55 184.907C341.496 184.626 341.443 184.316 341.389 184.007C341.355 183.813 341.321 183.619 341.288 183.432C341.268 183.321 341.247 183.212 341.227 183.108L342.195 183.782C342.137 183.965 342.016 184.148 341.883 184.348C341.77 184.518 341.649 184.7 341.55 184.907ZM762.95 156.908C763.38 157.246 763.918 157.695 764.563 158.258C764.52 158.39 764.478 158.527 764.435 158.667L764.435 158.668C764.259 159.238 764.069 159.852 763.81 160.394C763.642 159.514 763.408 158.635 763.159 157.701C763.09 157.442 763.02 157.178 762.95 156.908ZM766.175 152.748C765.96 152.411 765.852 152.073 765.745 151.736C766.068 151.511 766.39 151.286 766.605 150.949C766.39 151.511 766.283 152.073 766.175 152.748ZM830.998 138.355C830.89 138.58 830.783 138.693 830.568 138.917C829.6 137.568 828.74 136.219 827.988 134.757C827.773 134.307 827.531 133.886 827.289 133.464C827.047 133.042 826.805 132.621 826.59 132.171C828.633 132.958 830.997 133.408 833.9 133.52C833.04 135.207 832.073 136.893 830.998 138.355ZM728.013 141.729C727.934 141.663 727.858 141.6 727.783 141.538C727.347 141.175 726.966 140.859 726.508 140.379C726.508 140.379 726.508 140.267 726.4 140.267C726.293 140.042 726.185 139.817 726.078 139.48C726.171 139.545 726.267 139.613 726.366 139.683C726.482 139.765 726.601 139.85 726.723 139.938L726.725 139.939C727.211 140.287 727.748 140.67 728.335 141.054C728.335 141.204 728.24 141.354 728.144 141.504C728.096 141.579 728.048 141.654 728.013 141.729ZM887.758 155.447C887.65 155.671 887.543 155.924 887.435 156.177C887.328 156.43 887.22 156.683 887.113 156.908C886.36 155.784 885.715 154.659 885.07 153.535L885.392 153.198C886.145 153.985 886.898 154.772 887.758 155.447ZM891.628 157.92C891.574 158.089 891.547 158.286 891.52 158.483C891.493 158.679 891.466 158.876 891.413 159.045C891.305 159.551 891.198 160.029 891.09 160.507C890.983 160.984 890.875 161.462 890.767 161.968C889.907 160.956 889.155 159.944 888.403 158.932C888.837 158.553 889.223 158.124 889.593 157.711C889.651 157.647 889.708 157.583 889.765 157.52C889.885 157.387 890.004 157.257 890.123 157.133C890.391 157.246 890.633 157.386 890.875 157.527C891.117 157.667 891.359 157.808 891.628 157.92ZM1073.3 172.201C1072.44 171.751 1071.58 171.189 1070.72 170.514C1072.23 169.277 1073.52 168.04 1074.27 167.253C1074.06 169.052 1073.73 170.739 1073.3 172.201ZM1062.77 159.382C1062.77 159.382 1062.77 159.27 1062.66 159.27V159.157C1062.66 159.045 1062.66 158.932 1062.77 158.707C1063.52 159.27 1064.49 159.832 1065.46 160.282C1065.35 160.394 1065.27 160.535 1065.19 160.675C1065.11 160.816 1065.03 160.956 1064.92 161.069C1064.17 160.619 1063.41 160.057 1062.77 159.382ZM1069.97 176.249C1070.08 176.249 1070.19 176.361 1070.29 176.473H1069.97V176.249ZM1066.85 163.318L1066.85 163.318C1067.5 163.43 1068.25 163.43 1069.11 163.43C1068.84 163.318 1068.6 163.205 1068.36 163.093C1068.12 162.98 1067.87 162.868 1067.61 162.755C1067.77 162.643 1067.9 162.502 1068.04 162.362C1068.17 162.221 1068.3 162.081 1068.47 161.968C1068.57 162.031 1068.66 162.094 1068.76 162.156L1068.76 162.161C1069.17 162.427 1069.54 162.664 1069.97 162.755C1069.91 162.376 1069.82 162.032 1069.72 161.703C1069.65 161.448 1069.59 161.202 1069.54 160.956C1069.65 160.956 1069.76 160.956 1069.86 160.844C1069.81 160.844 1069.76 160.816 1069.7 160.788C1069.65 160.76 1069.59 160.731 1069.54 160.731C1070.72 159.495 1071.58 158.258 1072.01 157.133C1071.48 160.169 1069.97 163.992 1067.82 167.928C1066.96 166.916 1066.1 165.791 1065.35 164.554C1065.78 164.217 1066.31 163.768 1066.85 163.318ZM1068.68 154.547C1068.73 154.378 1068.76 154.21 1068.79 154.041C1068.81 153.872 1068.84 153.704 1068.9 153.535L1069.11 153.76C1069.07 153.844 1069.02 153.927 1068.96 154.017C1068.86 154.168 1068.75 154.335 1068.68 154.547ZM1048.69 159.832C1048.69 159.944 1048.66 160.029 1048.63 160.113C1048.6 160.197 1048.58 160.282 1048.58 160.394C1048.58 160.338 1048.55 160.31 1048.52 160.282C1048.5 160.254 1048.47 160.225 1048.47 160.169C1048.5 160.134 1048.53 160.098 1048.55 160.062C1048.56 160.042 1048.57 160.021 1048.58 160.001C1048.6 159.944 1048.63 159.888 1048.69 159.832ZM1069.11 171.863C1069.48 172.09 1069.85 172.327 1070.2 172.559C1071.08 173.132 1071.92 173.68 1072.77 174L1072.44 175.012C1071.26 174.112 1070.19 173.1 1069.11 171.863ZM1112.65 145.552C1112.54 145.439 1112.43 145.299 1112.33 145.158C1112.22 145.017 1112.11 144.877 1112 144.764C1112.22 144.596 1112.41 144.427 1112.59 144.258C1112.78 144.09 1112.97 143.921 1113.19 143.752C1112.97 144.315 1112.76 144.989 1112.65 145.552ZM1242.51 90.1171C1240.47 87.531 1238.32 84.7199 1236.38 82.1337C1240.25 80.5595 1244.12 78.0857 1247.45 75.0497C1246.75 77.1211 1246.1 79.1924 1245.45 81.256L1245.45 81.261C1244.52 84.2368 1243.59 87.1966 1242.51 90.1171ZM1208.97 117.778C1208.72 117.302 1208.47 116.829 1208.23 116.358C1207.08 114.163 1205.96 112.017 1204.99 109.795C1204.83 109.514 1204.69 109.204 1204.56 108.895C1204.43 108.586 1204.29 108.277 1204.13 107.996C1207.36 106.759 1210.15 105.072 1212.84 102.823H1213.59C1212.52 107.996 1211.01 113.056 1208.97 117.778ZM1202.62 104.735C1202.46 104.397 1202.33 104.06 1202.2 103.723C1202.06 103.385 1201.93 103.048 1201.77 102.711C1202.3 103.048 1202.95 103.385 1203.59 103.723L1202.62 104.735ZM1154.79 167.59C1154.68 167.478 1154.57 167.253 1154.57 167.141C1154.63 167.141 1154.68 167.169 1154.73 167.197C1154.79 167.225 1154.84 167.253 1154.9 167.253C1154.79 167.253 1154.79 167.478 1154.79 167.59ZM1109.96 141.616C1109.64 141.166 1109.32 140.604 1109.1 140.154C1108.67 139.367 1108.24 138.58 1107.81 137.681C1109.1 138.13 1110.5 138.468 1112.11 138.693C1111.47 139.705 1110.71 140.717 1109.96 141.616ZM1074.38 141.504C1072.77 139.817 1071.37 137.793 1070.29 135.994C1070.35 135.938 1070.4 135.91 1070.45 135.881C1070.51 135.853 1070.56 135.825 1070.62 135.769C1071.8 136.893 1073.3 137.905 1075.24 138.693C1075.02 139.592 1074.7 140.604 1074.38 141.504ZM1041.81 122.726C1041.16 122.501 1040.52 122.164 1039.87 121.827L1039.87 121.826L1043.1 120.139C1042.67 120.927 1042.24 121.826 1041.81 122.726ZM1041.16 123.962C1040.62 124.974 1040.09 125.986 1039.44 126.886C1038.8 127.898 1038.15 129.022 1037.51 130.259C1036.11 128.573 1034.82 126.886 1033.74 124.974C1033.6 124.735 1033.45 124.487 1033.29 124.234C1032.87 123.536 1032.42 122.793 1032.02 122.051C1034.5 123.063 1037.51 123.625 1041.16 123.962ZM975.908 157.133L973.65 155.109C974.183 154.791 974.688 154.487 975.162 154.201C976.028 153.681 976.787 153.224 977.413 152.86C977.184 153.482 976.975 154.103 976.769 154.716L976.766 154.726C976.488 155.551 976.216 156.36 975.908 157.133ZM974.51 160.057C974.188 160.675 973.865 161.265 973.543 161.856L973.542 161.857C973.22 162.447 972.897 163.037 972.575 163.655C970.963 161.856 969.565 159.944 968.275 158.033C968.705 157.808 969.135 157.583 969.458 157.358C970.963 158.483 972.683 159.382 974.51 160.057ZM966.232 154.434C966.179 154.322 966.125 154.238 966.071 154.153C966.018 154.069 965.964 153.985 965.91 153.872V153.76L966.232 154.434ZM889.907 149.487C889.8 149.375 889.719 149.262 889.639 149.15C889.558 149.037 889.478 148.925 889.37 148.812C889.907 148.025 890.338 147.238 890.553 146.451C890.445 147.351 890.23 148.363 889.907 149.487ZM884.318 152.298C884.21 152.073 884.103 151.848 883.995 151.736V151.623C884.049 151.736 884.129 151.82 884.21 151.905C884.291 151.989 884.371 152.073 884.425 152.186C884.318 152.186 884.318 152.298 884.318 152.298ZM759.617 130.034C759.188 128.798 758.758 127.448 758.435 126.099C759.51 126.886 760.585 127.561 761.66 128.235C760.908 129.022 760.263 129.585 759.617 130.034ZM731.453 135.881C730.916 137.004 730.38 138.014 729.843 139.024L729.84 139.03C728.765 137.905 727.69 136.669 726.615 135.207C728.98 134.982 730.808 134.42 732.42 133.745C732.259 134.082 732.098 134.448 731.936 134.813L731.934 134.818C731.774 135.182 731.613 135.546 731.453 135.881ZM711.565 142.516C711.35 143.415 711.028 144.427 710.705 145.327C710.49 144.821 710.302 144.343 710.114 143.865C709.926 143.387 709.738 142.909 709.523 142.403C709.684 142.291 709.845 142.206 710.006 142.122C710.168 142.038 710.329 141.953 710.49 141.841C710.813 142.066 711.135 142.291 711.565 142.516ZM665.125 151.623C663.513 149.937 662.007 148.138 660.717 146.226C660.776 146.196 660.826 146.174 660.873 146.155C660.912 146.14 660.949 146.127 660.986 146.114C661.067 146.086 661.147 146.058 661.255 146.001C662.867 147.463 664.48 148.925 666.092 150.049C666.014 150.187 665.935 150.318 665.856 150.445C665.773 150.578 665.691 150.707 665.609 150.836C665.448 151.089 665.286 151.342 665.125 151.623ZM594.068 102.823C593.906 102.711 593.772 102.598 593.638 102.486C593.503 102.373 593.369 102.261 593.208 102.149L594.497 101.137C594.444 101.418 594.363 101.699 594.282 101.98C594.202 102.261 594.121 102.542 594.068 102.823ZM585.253 133.52C585.199 133.633 585.145 133.773 585.091 133.914C585.038 134.054 584.984 134.195 584.93 134.307C584.877 134.17 584.831 134.033 584.789 133.897C584.756 133.792 584.725 133.689 584.694 133.587C584.602 133.28 584.515 132.988 584.393 132.733C584.426 132.733 584.449 132.722 584.468 132.708C584.479 132.698 584.49 132.688 584.5 132.677C584.527 132.649 584.554 132.621 584.607 132.621C584.863 132.887 584.983 133.084 585.129 133.321L585.129 133.322L585.132 133.326C585.169 133.387 585.209 133.451 585.253 133.52ZM429.592 134.869C429.163 134.42 428.733 133.858 428.304 133.297L428.303 133.295C428.303 133.239 428.276 133.183 428.249 133.127C428.234 133.095 428.219 133.064 428.209 133.033C428.2 133.008 428.195 132.983 428.195 132.958C427.98 132.508 427.872 131.946 427.765 131.384C427.871 131.479 427.979 131.576 428.089 131.675C428.762 132.28 429.513 132.956 430.345 133.633C430.022 134.082 429.807 134.42 429.592 134.869ZM391.753 173.775C391.538 174.337 391.323 174.899 391.107 175.349C390.462 174.112 389.817 172.763 389.28 171.526C389.877 171.068 390.46 170.64 391 170.244C391.919 169.57 392.716 168.985 393.258 168.49C393.089 169.089 392.931 169.678 392.777 170.252L392.774 170.261C392.438 171.514 392.121 172.697 391.753 173.775ZM345.528 177.935L345.527 177.936C345.312 178.386 345.097 178.835 344.775 179.285L343.915 178.385C344.027 178.268 344.139 178.165 344.246 178.065C344.448 177.878 344.635 177.706 344.775 177.485C345.098 177.598 345.312 177.71 345.528 177.935ZM212.228 142.965C211.871 143.71 211.442 144.455 210.938 145.328C210.882 145.425 210.825 145.523 210.767 145.624C210.717 145.711 210.667 145.799 210.615 145.889C209.432 143.64 208.25 141.279 207.068 138.805C208.895 139.929 210.722 140.941 212.765 141.953C212.657 142.291 212.443 142.628 212.228 142.965ZM161.488 152.523C160.95 151.848 160.412 151.174 159.982 150.387C160.305 150.668 160.601 150.921 160.896 151.174C161.192 151.427 161.487 151.68 161.81 151.961C161.756 152.073 161.702 152.158 161.649 152.242C161.595 152.326 161.541 152.411 161.488 152.523ZM60.0075 112.044C59.8463 111.875 59.685 111.734 59.5238 111.594C59.3625 111.453 59.2013 111.313 59.04 111.144C59.2877 110.971 59.5354 110.815 59.7771 110.663L59.7774 110.663C60.1648 110.418 60.5365 110.184 60.8675 109.907C60.6525 110.694 60.33 111.369 60.0075 112.044ZM89.14 167.028C89.2475 167.366 89.3281 167.703 89.4088 168.04C89.4894 168.378 89.57 168.715 89.6775 169.052L89.14 168.94C89.14 168.711 89.1524 168.481 89.1646 168.257V168.257C89.1883 167.82 89.211 167.399 89.14 167.028ZM106.985 174.112C105.91 170.401 105.48 168.49 105.695 166.016C106.232 165.679 106.878 165.342 107.522 165.004C109.135 166.241 111.177 167.59 113.327 168.94C112.252 171.076 111.07 173.213 109.457 175.124L106.985 174.112ZM1239.39 76.3991C1239.01 76.7926 1238.64 77.2143 1238.26 77.6359C1237.89 78.0576 1237.51 78.4793 1237.13 78.8728C1236.6 79.4351 1235.95 80.1097 1235.31 80.6719C1235.14 80.5032 1235.01 80.3064 1234.88 80.1097L1234.87 80.1082C1234.74 79.9119 1234.61 79.7157 1234.45 79.5475C1232.4 76.2866 1230.47 72.6885 1229.61 71.0018C1232.08 73.588 1235.31 75.7244 1239.39 76.3991ZM1213.75 102.373C1213.72 102.458 1213.7 102.542 1213.7 102.598C1213.64 102.598 1213.59 102.57 1213.54 102.542C1213.48 102.514 1213.43 102.486 1213.38 102.486C1213.43 102.43 1213.51 102.373 1213.59 102.317C1213.67 102.261 1213.75 102.205 1213.81 102.149C1213.81 102.205 1213.78 102.289 1213.75 102.373ZM1205.96 101.249C1205.74 101.474 1205.55 101.699 1205.37 101.924C1205.18 102.149 1204.99 102.373 1204.78 102.598C1203.7 101.249 1202.95 99.7872 1202.62 98.3255C1203.27 99.5624 1204.45 100.574 1205.96 101.249ZM1190.48 103.498C1189.94 106.084 1189.19 108.558 1188.11 111.032C1186.93 109.457 1185.75 107.883 1184.57 106.196C1187.04 105.859 1188.97 104.847 1190.48 103.498ZM1189.51 99.4499C1189.1 100.087 1188.77 100.674 1188.46 101.225C1187.44 103.005 1186.65 104.399 1184.35 105.859C1183.98 105.356 1183.6 104.826 1183.23 104.295L1183.22 104.285L1183.22 104.276C1182.84 103.745 1182.47 103.214 1182.09 102.711C1185.1 102.598 1187.68 101.699 1189.51 99.4499ZM1157.15 156.908C1157.05 157.92 1156.83 158.932 1156.62 159.944C1156.5 159.786 1156.37 159.627 1156.24 159.464C1156 159.164 1155.75 158.847 1155.54 158.483C1156.29 157.92 1156.83 157.358 1157.15 156.908ZM1155 146.226C1154.68 148.475 1153.82 151.174 1152.64 154.097L1151.03 151.736C1152.85 150.049 1154.47 148.025 1155 146.226ZM1151.35 144.54C1151.09 145.042 1150.83 145.558 1150.57 146.082C1150.07 147.084 1149.55 148.117 1148.98 149.15C1147.26 146.788 1145.76 144.315 1144.25 141.729C1146.12 142.565 1148.13 143.325 1150.11 144.071L1150.15 144.087C1150.55 144.238 1150.95 144.389 1151.35 144.54ZM1113.19 137.118C1109.96 135.432 1107.06 133.408 1104.59 130.934C1104.59 130.822 1104.48 130.709 1104.48 130.709C1104.26 130.259 1104.05 129.81 1103.94 129.247C1106.74 131.384 1111.04 133.97 1114.8 134.42L1113.19 137.118ZM1075.99 136.444C1075.13 135.769 1074.38 134.982 1073.62 134.082C1074.81 133.295 1075.99 132.396 1077.17 131.384C1076.85 133.07 1076.42 134.757 1075.99 136.444ZM1038.58 121.264C1034.5 119.24 1030.84 116.991 1027.72 114.18C1027.72 114.124 1027.7 114.068 1027.67 114.011C1027.64 113.955 1027.62 113.899 1027.62 113.843C1027.29 113.393 1027.08 112.831 1026.97 112.156C1030.41 114.517 1035.57 117.328 1040.62 118.565C1039.98 119.465 1039.33 120.364 1038.58 121.264ZM974.94 141.166C974.08 143.752 972.145 147.013 969.673 150.274C968.92 149.262 968.275 148.138 967.63 147.013C970.748 145.214 973.758 143.19 974.94 141.166ZM970.748 137.006C969.243 138.917 967.523 140.941 965.588 142.965C964.373 140.424 963.319 137.827 962.275 135.254C961.84 134.183 961.407 133.116 960.965 132.058C963.975 134.42 967.415 136.219 970.748 137.006ZM926.565 132.733C926.423 133.02 926.282 133.306 926.141 133.591C924.684 136.546 923.277 139.4 921.513 142.066C920.115 140.604 918.825 139.03 917.642 137.231C920.652 135.881 923.77 134.42 926.565 132.733ZM883.752 130.791L883.751 130.791C883.458 131.072 883.177 131.34 882.92 131.609C884.103 131.271 885.285 130.934 886.253 130.484C888.188 131.271 890.23 131.834 892.057 132.058C891.09 131.159 889.908 130.147 888.725 129.247C890.553 128.235 892.272 126.886 893.885 125.087C892.917 130.822 891.412 136.444 889.37 141.616C888.833 142.853 888.188 144.54 887.542 146.226C884.321 141.127 882.016 135.437 879.715 129.754C879.174 128.42 878.634 127.087 878.083 125.762C880.233 127.336 882.49 128.685 884.748 129.81C884.411 130.162 884.074 130.484 883.752 130.791ZM837.555 126.436C837.503 126.546 837.451 126.661 837.397 126.781C837.229 127.153 837.047 127.557 836.803 127.898C836.641 127.842 836.48 127.757 836.319 127.673C836.158 127.589 835.996 127.504 835.835 127.448C836.48 127.111 837.018 126.774 837.555 126.436ZM828.861 129.184L828.86 129.185L828.855 129.192C828.782 129.284 828.709 129.377 828.633 129.472C826.698 128.123 824.87 126.661 823.258 124.974C823.258 124.918 823.231 124.862 823.204 124.806C823.177 124.75 823.15 124.693 823.15 124.637C822.935 124.187 822.72 123.625 822.613 123.175C824.548 124.75 827.235 126.436 830.138 127.673C829.678 128.153 829.298 128.634 828.861 129.184ZM793.91 125.424C792.835 130.484 791.33 135.544 789.395 140.379L789.393 140.377C787.351 137.679 785.31 134.981 783.483 132.508C783.375 132.283 783.268 132.058 783.053 131.834C784.665 131.271 786.062 130.597 787.459 129.922L787.46 129.922L787.701 129.95C788.573 130.052 789.378 130.147 790.363 130.147C789.973 130.045 789.495 129.758 788.848 129.37L788.847 129.37L788.643 129.247C790.578 128.123 792.19 126.886 793.91 125.424ZM782.73 128.01C782.5 128.251 782.269 128.46 782.055 128.654C781.87 128.822 781.697 128.978 781.548 129.135C781.044 128.213 780.577 127.367 780.19 126.667C779.916 126.173 779.683 125.75 779.505 125.424C780.473 126.436 781.547 127.336 782.73 128.01ZM768.432 123.4C768.003 124.637 767.573 125.986 767.143 127.336C766.82 127.111 766.605 126.886 766.283 126.549C767.25 125.649 768.003 124.637 768.432 123.4ZM735.215 126.099C735.108 126.549 735 126.998 734.785 127.336C734.785 127.392 734.758 127.42 734.731 127.448C734.704 127.476 734.678 127.504 734.678 127.561C732.313 130.372 729.41 132.621 725.97 134.532C725.11 133.52 724.25 132.396 723.497 131.271C727.26 132.171 732.312 128.798 735.215 126.099ZM670.715 141.279C669.856 143.075 668.997 144.76 668.138 146.444L668.135 146.451C668.026 146.363 667.919 146.276 667.813 146.19L667.609 146.025C666.85 145.411 666.149 144.844 665.448 144.202C666.307 143.696 667.194 143.218 668.081 142.741L668.083 142.739C668.969 142.262 669.856 141.784 670.715 141.279ZM660.825 145.664L660.503 146.001C660.18 145.552 659.858 145.102 659.643 144.54C660.073 144.877 660.503 145.214 660.825 145.664ZM621.372 112.381C619.653 117.103 617.503 121.826 614.923 126.099C612.988 123.175 611.375 120.139 609.87 116.879C614.062 116.204 617.717 114.742 621.372 112.381ZM593.745 95.8517C593.53 97.5384 592.67 99.3375 591.703 101.024L590.09 99.6748C591.703 98.8877 592.992 97.6508 593.745 95.8517ZM583.425 101.586C585.468 102.486 587.51 103.273 589.768 103.835C589.66 104.06 589.553 104.173 589.338 104.397C589.66 104.285 589.875 104.173 590.198 103.948C590.362 103.986 590.53 104.028 590.701 104.071C590.805 104.097 590.909 104.124 591.015 104.151C591.754 104.34 592.535 104.541 593.315 104.622L591.38 110.02C589.768 114.405 587.94 119.015 585.898 123.4C585.898 123.4 585.898 123.288 585.79 123.288C581.168 114.967 577.513 105.747 575.04 96.3015C577.513 98.3255 580.092 99.8997 582.78 101.249L582.135 101.586H583.425ZM429.807 108.895C427.227 110.919 424.97 112.381 423.25 113.393C431.097 112.943 437.01 111.256 442.815 106.871C440.343 114.63 437.117 122.051 433.14 128.91C429.163 123.513 424.862 116.766 421.422 111.032C419.921 108.087 418.501 104.884 417.664 102.996L417.664 102.996C417.542 102.721 417.433 102.475 417.338 102.261C420.348 105.634 424.325 108.445 429.807 108.895ZM391.753 157.695C391 160.394 389.495 163.767 387.345 167.141C386.807 165.904 386.27 164.667 385.732 163.655C388.205 161.856 390.785 159.719 391.753 157.695ZM384.335 160.619C383.045 157.808 381.862 154.772 380.68 151.623C382.83 153.31 385.195 154.772 387.453 156.121C386.485 157.583 385.41 159.157 384.335 160.619ZM341.443 156.459C341.443 156.523 341.478 156.513 341.55 156.493C341.602 156.479 341.674 156.459 341.765 156.459H341.872C345.205 155.784 348.645 153.647 351.547 150.836C351.107 152.136 350.677 153.443 350.247 154.751L350.247 154.751C348.372 160.456 346.499 166.157 343.7 171.189C339.4 167.366 335.96 162.755 333.488 157.021C333.273 156.571 333.084 156.121 332.896 155.671L332.896 155.67C332.708 155.221 332.52 154.772 332.305 154.322C334.67 155.559 337.573 156.234 341.443 156.459ZM300.7 144.652C298.658 151.286 295.97 157.695 292.423 163.655C291.993 162.53 291.562 161.519 291.133 160.619C289.876 157.991 288.92 155.128 287.95 152.226C287.812 151.815 287.675 151.402 287.536 150.989C287.481 150.826 287.425 150.663 287.37 150.499C287.478 150.499 287.585 150.499 287.585 150.387C289.95 152.411 292.53 154.097 295.003 155.559C293.605 153.647 292.315 151.511 291.24 149.375C294.787 148.363 297.798 146.788 300.7 144.652ZM221.365 120.139C219.537 126.886 217.065 133.52 213.948 139.705C210.83 135.769 208.142 131.496 205.67 127.111C211.905 125.986 216.742 123.962 221.365 120.139ZM167.938 137.905C167.284 139.42 166.65 140.956 166.019 142.485C165.198 144.476 164.381 146.455 163.53 148.363C161.595 146.676 159.982 144.877 158.37 142.965C161.702 141.841 165.035 140.042 167.938 137.905ZM123.11 123.288C121.82 127.561 120.207 131.834 118.165 135.881C115.155 133.857 112.682 131.384 110.64 128.798C115.477 127.786 119.347 126.099 123.11 123.288ZM116.66 138.805L114.725 142.178C114.595 142.314 114.504 142.492 114.405 142.686C114.34 142.812 114.272 142.945 114.188 143.078C110.747 139.592 107.737 135.207 105.802 131.946C108.275 134.757 111.823 137.456 116.66 138.805Z" fill="#6E2129"/>
</svg>
